<svg width="6" height="11" viewBox="0 0 6 11" fill="none" xmlns="http://www.w3.org/2000/svg">
<path d="M3.047 0.366667C3.99052 0.366667 4.76543 0.71555 5.22879 1.34878C5.60395 1.8612 5.7565 2.53458 5.68195 3.35042C5.62075 4.02178 5.25114 4.46197 4.87778 4.85485C4.73633 5.0039 4.58303 5.1326 4.42103 5.26845C4.11832 5.52218 3.80542 5.78453 3.55851 6.19648C3.35241 6.54078 3.28686 6.9872 3.25626 7.49448H2.30134C2.33554 6.8002 2.41459 6.30538 2.63225 5.93395C2.7878 5.66867 3.0389 5.43767 3.30486 5.1931C3.52986 4.98612 3.76251 4.77217 3.95167 4.52027C4.47368 3.82635 4.64978 3.1691 4.46093 2.61928C4.27027 2.06452 3.75756 1.74625 3.05435 1.74625C2.95205 1.74625 2.8463 1.75303 2.7404 1.76697C2.07484 1.85313 1.61628 2.38003 1.49298 3.17075H0.323555C0.481658 1.40488 1.27997 0.49005 2.75615 0.37785C2.8535 0.370517 2.95145 0.366667 3.047 0.366667ZM3.047 0C2.9447 0 2.84165 0.00385001 2.7374 0.0119167C0.991817 0.14465 0.0796514 1.35282 0 3.5376H1.76088C1.78293 2.7808 2.12854 2.21503 2.77205 2.13162C2.86582 2.11936 2.96005 2.11312 3.05435 2.11292C3.57501 2.11292 4.03027 2.31312 4.18447 2.76118C4.38053 3.33135 3.94042 3.99392 3.73116 4.27203C3.34386 4.78775 2.71475 5.16395 2.38864 5.72037C2.06899 6.2656 2.01213 6.98298 1.98753 7.86097H3.53946C3.56121 7.2996 3.59181 6.76188 3.80077 6.413C4.14067 5.84613 4.64828 5.58048 5.07369 5.13278C5.48004 4.70488 5.90755 4.18917 5.98 3.39093C6.18581 1.13557 4.77488 0 3.047 0ZM2.7773 9.0079C3.1523 9.0079 3.45726 9.37255 3.45726 9.8208C3.45726 10.2691 3.1523 10.6333 2.7773 10.6333C2.40244 10.6333 2.09749 10.2689 2.09749 9.82062C2.09749 9.37237 2.40244 9.0079 2.7773 9.0079ZM2.7773 8.64123C2.23609 8.64123 1.79748 9.16942 1.79748 9.8208C1.79748 10.4722 2.23609 11 2.7773 11C3.31866 11 3.75726 10.472 3.75726 9.82062C3.75726 9.16923 3.31866 8.64123 2.7773 8.64123Z" fill="#0041AA"/>
</svg>
