<svg width="1512" height="2109" viewBox="0 0 1512 2109" fill="none" xmlns="http://www.w3.org/2000/svg">
<g clip-path="url(#clip0_1019_8018)">
<path d="M1512 0H0V2109H1512V0Z" fill="white"/>
<path d="M207.661 409.015L208.131 408.843L207.661 409.015C213.008 423.65 222.441 436.843 231.777 449.902C233.745 452.654 235.708 455.4 237.628 458.152C248.684 474.002 258.32 490.078 259.378 508.862C261.556 547.372 234.247 570.887 200.358 589.3C193.02 593.283 185.597 596.651 178.289 599.855C176.744 600.533 175.204 601.203 173.67 601.87C167.956 604.356 162.338 606.8 156.933 609.417C143.213 616.059 130.789 623.844 121.407 636.383L121.808 636.683L121.407 636.383C116.824 642.514 114.836 650.549 112.963 658.581C112.886 658.911 112.809 659.241 112.732 659.571C110.93 667.316 109.143 674.998 105.227 681.164C87.5825 708.939 51.7712 733.462 12.4092 735.826C-13.7227 737.391 -33.2155 728.229 -50.8693 716.244C-57.3067 711.874 -63.4876 707.137 -69.661 702.406C-71.963 700.642 -74.264 698.879 -76.5768 697.135C-85.0816 690.725 -93.7317 684.599 -103.115 679.775C-129.113 666.404 -151.949 661.409 -173.457 656.704C-179.134 655.463 -184.719 654.241 -190.245 652.891C-216.7 646.428 -241.921 637.008 -269.834 608.32C-306.904 570.221 -316.334 537.389 -309.386 507.45C-302.424 477.451 -278.994 450.22 -249.998 423.405C-233.625 408.275 -222.004 390.149 -210.696 371.686C-209.719 370.09 -208.745 368.493 -207.769 366.894C-197.45 349.976 -187.073 332.966 -173.233 317.797C-155.115 297.941 -138.26 285.813 -121.677 279.071C-105.098 272.331 -88.7574 270.959 -71.6434 272.669C-54.5178 274.38 -36.632 279.175 -16.9575 284.763C-14.8243 285.369 -12.6703 285.984 -10.4941 286.606C7.3897 291.713 26.767 297.247 48.3233 301.563C62.5901 304.422 77.3053 304.48 91.9939 304.538C96.8218 304.557 101.646 304.576 106.452 304.695C125.912 305.175 145.112 307.28 163.183 317.508C174.566 323.954 182.174 330.575 187.404 337.442C192.633 344.306 195.503 351.439 197.379 358.937C198.83 364.737 199.682 370.736 200.573 377.006C200.836 378.859 201.103 380.736 201.389 382.639C202.643 390.963 204.272 399.736 207.661 409.015Z" fill="#CCDFFF"/>
<path d="M207.661 409.015L208.131 408.843L207.661 409.015ZM207.661 409.015C213.008 423.65 222.441 436.843 231.777 449.902C233.745 452.654 235.708 455.4 237.628 458.152C248.684 474.002 258.32 490.078 259.378 508.862C261.556 547.372 234.247 570.887 200.358 589.3C193.02 593.283 185.597 596.651 178.289 599.855C176.744 600.533 175.204 601.203 173.67 601.87C167.956 604.356 162.338 606.8 156.933 609.417C143.213 616.059 130.789 623.844 121.407 636.383L121.808 636.683L121.407 636.383C116.824 642.514 114.836 650.549 112.963 658.581C112.886 658.911 112.809 659.241 112.732 659.571C110.93 667.316 109.143 674.998 105.227 681.164C87.5825 708.939 51.7712 733.462 12.4092 735.826C-13.7227 737.391 -33.2155 728.229 -50.8693 716.244C-57.3067 711.874 -63.4876 707.137 -69.661 702.406C-71.963 700.642 -74.264 698.879 -76.5768 697.135C-85.0816 690.725 -93.7317 684.599 -103.115 679.775C-129.113 666.404 -151.949 661.409 -173.457 656.704C-179.134 655.463 -184.719 654.241 -190.245 652.891C-216.7 646.428 -241.921 637.008 -269.834 608.32C-306.904 570.221 -316.334 537.389 -309.386 507.45C-302.424 477.451 -278.994 450.22 -249.998 423.405C-233.625 408.275 -222.004 390.149 -210.696 371.686C-209.719 370.09 -208.745 368.493 -207.769 366.894C-197.45 349.976 -187.073 332.966 -173.233 317.797C-155.115 297.941 -138.26 285.813 -121.677 279.071C-105.098 272.331 -88.7574 270.959 -71.6434 272.669C-54.5178 274.38 -36.632 279.175 -16.9575 284.763C-14.8243 285.369 -12.6703 285.984 -10.4941 286.606C7.3897 291.713 26.767 297.247 48.3233 301.563C62.5901 304.422 77.3053 304.48 91.9939 304.538C96.8218 304.557 101.646 304.576 106.452 304.695C125.912 305.175 145.112 307.28 163.183 317.508C174.566 323.954 182.174 330.575 187.404 337.442C192.633 344.306 195.503 351.439 197.379 358.937C198.83 364.737 199.682 370.736 200.573 377.006C200.836 378.859 201.103 380.736 201.389 382.639C202.643 390.963 204.272 399.736 207.661 409.015Z" stroke="#307880"/>
<path d="M185.186 1265.34H185.185C182.919 1268.6 181.943 1272.86 181.031 1277.07C180.994 1277.24 180.958 1277.4 180.922 1277.57C180.04 1281.65 179.175 1285.65 177.284 1288.85C168.71 1303.37 151.312 1316.18 132.218 1317.41C119.561 1318.22 110.116 1313.46 101.528 1307.18C98.3947 1304.9 95.3885 1302.42 92.3793 1299.94C91.2553 1299.01 90.1308 1298.08 88.9992 1297.17C84.8485 1293.8 80.6149 1290.57 76.0177 1288.03C63.3014 1280.99 52.1201 1278.36 41.625 1275.89C38.8601 1275.24 36.1428 1274.6 33.4576 1273.9C20.5896 1270.52 8.33729 1265.6 -5.23632 1250.59C-23.2813 1230.64 -27.8434 1213.48 -24.4731 1197.86C-21.0921 1182.18 -9.70779 1167.94 4.43005 1153.87C12.4424 1145.91 18.1246 1136.37 23.6393 1126.68C24.1156 1125.84 24.5907 1125.01 25.0658 1124.17C30.1015 1115.29 35.1518 1106.38 41.8872 1098.44C50.7089 1088.04 58.9007 1081.71 66.9417 1078.19C74.9765 1074.67 82.8974 1073.96 91.2082 1074.85C99.5322 1075.74 108.233 1078.25 117.832 1081.19C118.872 1081.5 119.923 1081.83 120.984 1082.15C129.706 1084.83 139.169 1087.74 149.695 1090.01C156.685 1091.51 163.903 1091.54 171.074 1091.57C173.424 1091.58 175.769 1091.59 178.099 1091.66C187.576 1091.91 196.883 1093.01 205.637 1098.34C211.165 1101.71 214.849 1105.16 217.377 1108.73C219.905 1112.3 221.296 1116.02 222.206 1119.93C222.911 1122.96 223.325 1126.1 223.759 1129.38C223.888 1130.36 224.019 1131.35 224.159 1132.35C224.771 1136.72 225.568 1141.34 227.228 1146.23L227.701 1146.07L227.228 1146.23C229.846 1153.94 234.468 1160.89 239.022 1167.75C239.981 1169.19 240.936 1170.62 241.869 1172.06C247.259 1180.38 251.929 1188.77 252.442 1198.56C253.497 1218.64 240.278 1230.91 223.774 1240.56C220.205 1242.64 216.593 1244.41 213.03 1246.09C212.278 1246.44 211.528 1246.79 210.781 1247.14C207.993 1248.45 205.246 1249.73 202.604 1251.11C195.895 1254.6 189.794 1258.71 185.186 1265.34Z" fill="#CCDFFF" fill-opacity="0.03" stroke="#CCDFFF"/>
<path d="M1202.18 861.337C1199.92 864.599 1198.94 868.862 1198.03 873.067C1197.99 873.235 1197.96 873.403 1197.92 873.571C1197.04 877.649 1196.17 881.647 1194.28 884.85C1185.71 899.369 1168.31 912.175 1149.22 913.409C1136.56 914.224 1127.11 909.456 1118.53 903.184C1115.39 900.896 1112.39 898.418 1109.38 895.937C1108.25 895.01 1107.13 894.083 1106 893.165C1101.85 889.8 1097.61 886.573 1093.02 884.03C1080.3 876.995 1069.12 874.364 1058.62 871.895C1055.86 871.244 1053.14 870.605 1050.46 869.899C1037.59 866.517 1025.34 861.596 1011.76 846.588C993.719 826.636 989.157 809.479 992.527 793.856C995.908 778.184 1007.29 763.937 1021.43 749.871C1029.44 741.906 1035.12 732.368 1040.64 722.681C1041.11 721.844 1041.59 721.007 1042.06 720.169C1047.1 711.288 1052.15 702.382 1058.89 694.44C1067.71 684.04 1075.9 677.705 1083.94 674.188C1091.98 670.673 1099.9 669.956 1108.21 670.849C1116.53 671.744 1125.23 674.252 1134.83 677.185C1135.87 677.503 1136.92 677.826 1137.98 678.152C1146.71 680.832 1156.17 683.739 1166.69 686.006C1173.68 687.513 1180.9 687.544 1188.07 687.574C1190.42 687.584 1192.77 687.594 1195.1 687.656C1204.57 687.907 1213.88 689.01 1222.64 694.341C1228.16 697.708 1231.85 701.16 1234.38 704.732C1236.9 708.302 1238.29 712.015 1239.21 715.931C1239.91 718.963 1240.32 722.096 1240.76 725.384C1240.89 726.358 1241.02 727.346 1241.16 728.348C1241.77 732.72 1242.57 737.34 1244.23 742.229L1244.7 742.068L1244.23 742.229C1246.85 749.939 1251.47 756.893 1256.02 763.745C1256.98 765.187 1257.93 766.625 1258.87 768.064C1264.26 776.377 1268.93 784.769 1269.44 794.563L1269.94 794.536L1269.44 794.563C1270.5 814.64 1257.28 826.912 1240.77 836.558C1237.2 838.643 1233.59 840.406 1230.03 842.086C1229.28 842.441 1228.53 842.792 1227.78 843.142C1224.99 844.447 1222.24 845.733 1219.6 847.108C1212.89 850.602 1206.79 854.711 1202.18 861.337Z" fill="#CCDFFF" fill-opacity="0.03" stroke="#CCDFFF"/>
<path d="M1483.18 341.337C1480.92 344.599 1479.94 348.862 1479.03 353.067C1478.99 353.235 1478.96 353.403 1478.92 353.571C1478.04 357.649 1477.17 361.647 1475.28 364.85C1466.71 379.369 1449.31 392.175 1430.22 393.409C1417.56 394.225 1408.11 389.456 1399.53 383.184C1396.39 380.896 1393.39 378.418 1390.38 375.937C1389.25 375.01 1388.13 374.083 1387 373.165C1382.85 369.8 1378.61 366.573 1374.02 364.03C1361.3 356.995 1350.12 354.364 1339.62 351.895C1336.86 351.244 1334.14 350.605 1331.46 349.899C1318.59 346.517 1306.34 341.596 1292.76 326.588C1274.72 306.636 1270.16 289.479 1273.53 273.856C1276.91 258.184 1288.29 243.937 1302.43 229.871C1310.44 221.906 1316.12 212.368 1321.64 202.681C1322.11 201.844 1322.59 201.007 1323.07 200.169C1328.1 191.288 1333.15 182.382 1339.89 174.44C1348.71 164.04 1356.9 157.705 1364.94 154.188C1372.98 150.674 1380.9 149.956 1389.21 150.85C1397.53 151.744 1406.23 154.252 1415.83 157.186C1416.87 157.503 1417.92 157.826 1418.98 158.152C1427.71 160.832 1437.17 163.739 1447.69 166.006C1454.68 167.513 1461.9 167.544 1469.07 167.574C1471.42 167.584 1473.77 167.594 1476.1 167.656C1485.58 167.908 1494.88 169.01 1503.64 174.341C1509.16 177.708 1512.85 181.16 1515.38 184.732C1517.9 188.302 1519.29 192.015 1520.21 195.931C1520.91 198.963 1521.32 202.096 1521.76 205.384C1521.89 206.358 1522.02 207.346 1522.16 208.348C1522.77 212.72 1523.57 217.34 1525.23 222.229L1525.7 222.068L1525.23 222.229C1527.85 229.939 1532.47 236.893 1537.02 243.746C1537.98 245.188 1538.94 246.625 1539.87 248.064C1545.26 256.377 1549.93 264.769 1550.44 274.563C1551.5 294.64 1538.28 306.912 1521.77 316.558C1518.2 318.643 1514.59 320.406 1511.03 322.086C1510.28 322.441 1509.53 322.792 1508.78 323.142C1505.99 324.447 1503.25 325.732 1500.6 327.109C1493.89 330.602 1487.79 334.711 1483.18 341.337Z" fill="#CCDFFF" fill-opacity="0.03" stroke="#CCDFFF"/>
<path d="M1517.18 1771.34C1514.92 1774.6 1513.94 1778.86 1513.03 1783.07C1512.99 1783.24 1512.96 1783.4 1512.92 1783.57C1512.04 1787.65 1511.17 1791.65 1509.28 1794.85C1500.71 1809.37 1483.31 1822.18 1464.22 1823.41C1451.56 1824.22 1442.11 1819.46 1433.53 1813.18C1430.39 1810.9 1427.39 1808.42 1424.38 1805.94C1423.25 1805.01 1422.13 1804.08 1421 1803.17C1416.85 1799.8 1412.61 1796.57 1408.02 1794.03C1395.3 1786.99 1384.12 1784.36 1373.62 1781.89C1370.86 1781.24 1368.14 1780.6 1365.46 1779.9C1352.59 1776.52 1340.34 1771.6 1326.76 1756.59C1308.72 1736.64 1304.16 1719.48 1307.53 1703.86C1310.91 1688.18 1322.29 1673.94 1336.43 1659.87C1344.44 1651.91 1350.12 1642.37 1355.64 1632.68C1356.11 1631.84 1356.59 1631.01 1357.07 1630.17C1362.1 1621.29 1367.15 1612.38 1373.89 1604.44C1382.71 1594.04 1390.9 1587.71 1398.94 1584.19C1406.98 1580.67 1414.9 1579.96 1423.21 1580.85C1431.53 1581.74 1440.23 1584.25 1449.83 1587.19C1450.87 1587.5 1451.92 1587.83 1452.98 1588.15C1461.71 1590.83 1471.17 1593.74 1481.69 1596.01C1488.68 1597.51 1495.9 1597.54 1503.07 1597.57C1505.42 1597.58 1507.77 1597.59 1510.1 1597.66C1519.58 1597.91 1528.88 1599.01 1537.64 1604.34C1543.16 1607.71 1546.85 1611.16 1549.38 1614.73C1551.9 1618.3 1553.29 1622.02 1554.21 1625.93C1554.91 1628.96 1555.32 1632.1 1555.76 1635.38C1555.89 1636.36 1556.02 1637.35 1556.16 1638.35C1556.77 1642.72 1557.57 1647.34 1559.23 1652.23L1559.7 1652.07L1559.23 1652.23C1561.85 1659.94 1566.47 1666.89 1571.02 1673.75C1571.98 1675.19 1572.94 1676.62 1573.87 1678.06C1579.26 1686.38 1583.93 1694.77 1584.44 1704.56C1585.5 1724.64 1572.28 1736.91 1555.77 1746.56C1552.2 1748.64 1548.59 1750.41 1545.03 1752.09C1544.28 1752.44 1543.53 1752.79 1542.78 1753.14C1539.99 1754.45 1537.25 1755.73 1534.6 1757.11C1527.89 1760.6 1521.79 1764.71 1517.18 1771.34Z" fill="#CCDFFF" fill-opacity="0.03" stroke="#CCDFFF"/>
<path d="M192.186 1810.34H192.185C189.919 1813.6 188.943 1817.86 188.031 1822.07C187.994 1822.24 187.958 1822.4 187.922 1822.57C187.04 1826.65 186.175 1830.65 184.284 1833.85C175.71 1848.37 158.312 1861.18 139.218 1862.41C126.561 1863.22 117.116 1858.46 108.528 1852.18C105.395 1849.9 102.389 1847.42 99.3793 1844.94C98.2553 1844.01 97.1308 1843.08 95.9992 1842.17C91.8485 1838.8 87.6149 1835.57 83.0177 1833.03C70.3014 1825.99 59.1201 1823.36 48.625 1820.89C45.8601 1820.24 43.1428 1819.6 40.4576 1818.9C27.5896 1815.52 15.3373 1810.6 1.76368 1795.59C-16.2813 1775.64 -20.8434 1758.48 -17.4731 1742.86C-14.0921 1727.18 -2.70779 1712.94 11.43 1698.87C19.4424 1690.91 25.1246 1681.37 30.6393 1671.68C31.1156 1670.84 31.5907 1670.01 32.0658 1669.17C37.1015 1660.29 42.1518 1651.38 48.8872 1643.44C57.7089 1633.04 65.9007 1626.71 73.9417 1623.19C81.9765 1619.67 89.8974 1618.96 98.2082 1619.85C106.532 1620.74 115.233 1623.25 124.832 1626.19C125.872 1626.5 126.923 1626.83 127.984 1627.15C136.706 1629.83 146.169 1632.74 156.695 1635.01C163.685 1636.51 170.903 1636.54 178.074 1636.57C180.424 1636.58 182.769 1636.59 185.099 1636.66C194.576 1636.91 203.883 1638.01 212.637 1643.34C218.165 1646.71 221.849 1650.16 224.377 1653.73C226.905 1657.3 228.296 1661.02 229.206 1664.93C229.911 1667.96 230.325 1671.1 230.759 1674.38C230.888 1675.36 231.019 1676.35 231.159 1677.35C231.771 1681.72 232.568 1686.34 234.228 1691.23L234.701 1691.07L234.228 1691.23C236.846 1698.94 241.468 1705.89 246.022 1712.75C246.981 1714.19 247.936 1715.62 248.869 1717.06C254.259 1725.38 258.929 1733.77 259.442 1743.56C260.497 1763.64 247.278 1775.91 230.774 1785.56C227.205 1787.64 223.593 1789.41 220.03 1791.09C219.278 1791.44 218.528 1791.79 217.781 1792.14C214.993 1793.45 212.246 1794.73 209.604 1796.11C202.895 1799.6 196.794 1803.71 192.186 1810.34Z" fill="#CCDFFF" fill-opacity="0.03" stroke="#CCDFFF"/>
</g>
<defs>
<clipPath id="clip0_1019_8018">
<rect width="1512" height="2109" fill="white"/>
</clipPath>
</defs>
</svg>
