<svg width="25" height="25" viewBox="0 0 25 25" fill="none" xmlns="http://www.w3.org/2000/svg">
<circle cx="12.5" cy="12.5" r="12.5" fill="#CCDFFF"/>
<path d="M13.047 7.36667C13.9905 7.36667 14.7654 7.71555 15.2288 8.34878C15.6039 8.8612 15.7565 9.53458 15.6819 10.3504C15.6207 11.0218 15.2511 11.462 14.8778 11.8549C14.7363 12.0039 14.583 12.1326 14.421 12.2685C14.1183 12.5222 13.8054 12.7845 13.5585 13.1965C13.3524 13.5408 13.2869 13.9872 13.2563 14.4945H12.3013C12.3355 13.8002 12.4146 13.3054 12.6322 12.934C12.7878 12.6687 13.0389 12.4377 13.3049 12.1931C13.5299 11.9861 13.7625 11.7722 13.9517 11.5203C14.4737 10.8263 14.6498 10.1691 14.4609 9.61928C14.2703 9.06452 13.7576 8.74625 13.0544 8.74625C12.9521 8.74625 12.8463 8.75303 12.7404 8.76697C12.0748 8.85313 11.6163 9.38003 11.493 10.1708H10.3236C10.4817 8.40488 11.28 7.49005 12.7561 7.37785C12.8535 7.37052 12.9515 7.36667 13.047 7.36667ZM13.047 7C12.9447 7 12.8416 7.00385 12.7374 7.01192C10.9918 7.14465 10.0797 8.35282 10 10.5376H11.7609C11.7829 9.7808 12.1285 9.21503 12.772 9.13162C12.8658 9.11936 12.96 9.11312 13.0544 9.11292C13.575 9.11292 14.0303 9.31312 14.1845 9.76118C14.3805 10.3314 13.9404 10.9939 13.7312 11.272C13.3439 11.7878 12.7147 12.1639 12.3886 12.7204C12.069 13.2656 12.0121 13.983 11.9875 14.861H13.5395C13.5612 14.2996 13.5918 13.7619 13.8008 13.413C14.1407 12.8461 14.6483 12.5805 15.0737 12.1328C15.48 11.7049 15.9076 11.1892 15.98 10.3909C16.1858 8.13557 14.7749 7 13.047 7ZM12.7773 16.0079C13.1523 16.0079 13.4573 16.3726 13.4573 16.8208C13.4573 17.2691 13.1523 17.6333 12.7773 17.6333C12.4024 17.6333 12.0975 17.2689 12.0975 16.8206C12.0975 16.3724 12.4024 16.0079 12.7773 16.0079ZM12.7773 15.6412C12.2361 15.6412 11.7975 16.1694 11.7975 16.8208C11.7975 17.4722 12.2361 18 12.7773 18C13.3187 18 13.7573 17.472 13.7573 16.8206C13.7573 16.1692 13.3187 15.6412 12.7773 15.6412Z" fill="#0041AA"/>
</svg>
