<svg width="375" height="2259" viewBox="0 0 375 2259" fill="none" xmlns="http://www.w3.org/2000/svg">
<g clip-path="url(#clip0_1343_10164)">
<rect width="375" height="2259" fill="white"/>
<path d="M-78.5927 441.883L-78.1924 442.183L-78.5928 441.883C-83.1755 448.014 -85.1637 456.049 -87.0371 464.081C-87.1141 464.411 -87.1909 464.741 -87.2676 465.071C-89.0695 472.816 -90.8569 480.498 -94.7733 486.664C-112.418 514.439 -148.229 538.962 -187.591 541.326C-213.723 542.891 -233.216 533.729 -250.87 521.744C-257.307 517.374 -263.488 512.637 -269.662 507.906C-271.964 506.142 -274.264 504.378 -276.577 502.635C-285.082 496.225 -293.732 490.099 -303.115 485.275C-329.113 471.904 -351.949 466.909 -373.457 462.204C-379.134 460.963 -384.719 459.741 -390.245 458.391C-416.7 451.928 -441.921 442.508 -469.834 413.82C-506.904 375.721 -516.334 342.889 -509.386 312.95C-502.424 282.951 -478.994 255.72 -449.998 228.905C-433.625 213.775 -422.004 195.649 -410.696 177.186C-409.719 175.59 -408.745 173.993 -407.77 172.394C-397.45 155.476 -387.073 138.466 -373.233 123.297C-355.115 103.441 -338.26 91.3135 -321.677 84.5712C-305.098 77.8308 -288.758 76.4591 -271.644 78.1691C-254.518 79.8802 -236.632 84.6751 -216.958 90.2634C-214.825 90.8693 -212.671 91.4845 -210.495 92.1059C-192.611 97.2134 -173.233 102.747 -151.677 107.063C-137.41 109.922 -122.695 109.98 -108.007 110.038C-103.179 110.057 -98.3535 110.076 -93.5482 110.195C-74.0883 110.675 -54.8879 112.78 -36.8172 123.008C-25.4341 129.454 -17.8259 136.075 -12.5959 142.942C-7.36749 149.806 -4.49713 156.939 -2.6214 164.437C-1.17047 170.237 -0.318146 176.236 0.572632 182.506C0.835999 184.359 1.10272 186.236 1.38922 188.139C2.6427 196.463 4.27161 205.236 7.66113 214.515C13.0081 229.15 22.4407 242.343 31.7771 255.402C33.7446 258.154 35.7079 260.9 37.6277 263.652C48.6838 279.502 58.3205 295.578 59.3781 314.362C61.5558 352.872 34.2469 376.387 0.357727 394.8C-6.97986 398.783 -14.4028 402.151 -21.711 405.355C-23.256 406.033 -24.7963 406.703 -26.3297 407.37C-32.0437 409.856 -37.6616 412.3 -43.0675 414.917C-56.7868 421.559 -69.2109 429.344 -78.5927 441.883Z" fill="#CCDFFF" stroke="#307880"/>
<path d="M48.1845 1265.34L48.1844 1265.34C45.9182 1268.6 44.9415 1272.86 44.0297 1277.07C43.9933 1277.24 43.9569 1277.4 43.9206 1277.57C43.0386 1281.65 42.1736 1285.65 40.2828 1288.85C31.709 1303.37 14.3113 1316.18 -4.78319 1317.41C-17.4396 1318.22 -26.8854 1313.46 -35.4726 1307.18C-38.606 1304.9 -41.6122 1302.42 -44.6214 1299.94C-45.7454 1299.01 -46.8699 1298.08 -48.0015 1297.17C-52.1522 1293.8 -56.3858 1290.57 -60.983 1288.03C-73.6993 1280.99 -84.8806 1278.36 -95.3757 1275.89C-98.1406 1275.24 -100.858 1274.6 -103.543 1273.9C-116.411 1270.52 -128.663 1265.6 -142.237 1250.59C-160.282 1230.64 -164.844 1213.48 -161.474 1197.86C-158.093 1182.18 -146.709 1167.94 -132.571 1153.87C-124.558 1145.91 -118.876 1136.37 -113.361 1126.68C-112.885 1125.84 -112.41 1125.01 -111.935 1124.17C-106.899 1115.29 -101.849 1106.38 -95.1135 1098.44C-86.2918 1088.04 -78.1 1081.71 -70.059 1078.19C-62.0242 1074.67 -54.1033 1073.96 -45.7925 1074.85C-37.4685 1075.74 -28.7678 1078.25 -19.1691 1081.19C-18.1289 1081.5 -17.0784 1081.83 -16.0168 1082.15C-7.2946 1084.83 2.16812 1087.74 12.6945 1090.01C19.6837 1091.51 26.9019 1091.54 34.0735 1091.57C36.4231 1091.58 38.7678 1091.59 41.0978 1091.66C50.5751 1091.91 59.8824 1093.01 68.6363 1098.34C74.1642 1101.71 77.8479 1105.16 80.3764 1108.73C82.9043 1112.3 84.2948 1116.02 85.2052 1119.93C85.9103 1122.96 86.3242 1126.1 86.7584 1129.38C86.8871 1130.36 87.0175 1131.35 87.1579 1132.35C87.7699 1136.72 88.5667 1141.34 90.2267 1146.23L90.7002 1146.07L90.2267 1146.23C92.8453 1153.94 97.4666 1160.89 102.021 1167.75C102.98 1169.19 103.935 1170.62 104.868 1172.06C110.258 1180.38 114.928 1188.77 115.441 1198.56L115.94 1198.54L115.441 1198.56C116.496 1218.64 103.277 1230.91 86.7728 1240.56C83.2042 1242.64 79.5921 1244.41 76.0291 1246.09C75.277 1246.44 74.5266 1246.79 73.7792 1247.14C70.9916 1248.45 68.245 1249.73 65.6029 1251.11C58.8938 1254.6 52.793 1258.71 48.1845 1265.34Z" fill="#CCDFFF" fill-opacity="0.03" stroke="#CCDFFF"/>
<path d="M380.185 1771.34L380.184 1771.34C377.918 1774.6 376.942 1778.86 376.03 1783.07C375.993 1783.24 375.957 1783.4 375.921 1783.57C375.039 1787.65 374.174 1791.65 372.283 1794.85C363.709 1809.37 346.311 1822.18 327.217 1823.41C314.56 1824.22 305.115 1819.46 296.527 1813.18C293.394 1810.9 290.388 1808.42 287.379 1805.94C286.255 1805.01 285.13 1804.08 283.998 1803.17C279.848 1799.8 275.614 1796.57 271.017 1794.03C258.301 1786.99 247.119 1784.36 236.624 1781.89C233.859 1781.24 231.142 1780.6 228.457 1779.9C215.589 1776.52 203.337 1771.6 189.763 1756.59C171.718 1736.64 167.156 1719.48 170.526 1703.86C173.907 1688.18 185.291 1673.94 199.429 1659.87C207.442 1651.91 213.124 1642.37 218.639 1632.68C219.115 1631.84 219.59 1631.01 220.065 1630.17C225.101 1621.29 230.151 1612.38 236.887 1604.44C245.708 1594.04 253.9 1587.71 261.941 1584.19C269.976 1580.67 277.897 1579.96 286.208 1580.85C294.531 1581.74 303.232 1584.25 312.831 1587.19C313.871 1587.5 314.922 1587.83 315.983 1588.15C324.705 1590.83 334.168 1593.74 344.694 1596.01C351.684 1597.51 358.902 1597.54 366.073 1597.57C368.423 1597.58 370.768 1597.59 373.098 1597.66C382.575 1597.91 391.882 1599.01 400.636 1604.34C406.164 1607.71 409.848 1611.16 412.376 1614.73C414.904 1618.3 416.295 1622.02 417.205 1625.93C417.91 1628.96 418.324 1632.1 418.758 1635.38C418.887 1636.36 419.018 1637.35 419.158 1638.35C419.77 1642.72 420.567 1647.34 422.227 1652.23L422.7 1652.07L422.227 1652.23C424.845 1659.94 429.467 1666.89 434.021 1673.75C434.98 1675.19 435.935 1676.62 436.868 1678.06C442.258 1686.38 446.928 1694.77 447.441 1704.56L447.94 1704.54L447.441 1704.56C448.496 1724.64 435.277 1736.91 418.773 1746.56C415.204 1748.64 411.592 1750.41 408.029 1752.09C407.277 1752.44 406.527 1752.79 405.779 1753.14C402.992 1754.45 400.245 1755.73 397.603 1757.11C390.894 1760.6 384.793 1764.71 380.185 1771.34Z" fill="#CCDFFF" fill-opacity="0.03" stroke="#CCDFFF"/>
<path d="M533.185 319.337L533.184 319.337C530.918 322.599 529.942 326.862 529.03 331.067C528.993 331.235 528.957 331.403 528.921 331.571C528.039 335.649 527.174 339.647 525.283 342.85C516.709 357.369 499.311 370.175 480.217 371.409C467.56 372.225 458.115 367.456 449.527 361.184C446.394 358.896 443.388 356.418 440.379 353.937C439.255 353.01 438.13 352.083 436.998 351.165C432.848 347.8 428.614 344.573 424.017 342.03C411.301 334.995 400.119 332.364 389.624 329.895C386.859 329.244 384.142 328.605 381.457 327.899C368.589 324.517 356.337 319.596 342.763 304.588C324.718 284.636 320.156 267.479 323.526 251.856C326.907 236.184 338.291 221.937 352.429 207.871C360.442 199.906 366.124 190.368 371.639 180.681C372.115 179.844 372.59 179.007 373.065 178.169C378.101 169.288 383.151 160.382 389.887 152.44C398.708 142.04 406.9 135.705 414.941 132.188C422.976 128.674 430.897 127.956 439.208 128.85C447.531 129.744 456.232 132.252 465.831 135.186C466.871 135.503 467.922 135.826 468.983 136.152C477.705 138.832 487.168 141.739 497.694 144.006C504.684 145.513 511.902 145.544 519.073 145.574C521.423 145.584 523.768 145.594 526.098 145.656C535.575 145.908 544.882 147.01 553.636 152.341C559.164 155.708 562.848 159.16 565.376 162.732C567.904 166.302 569.295 170.015 570.205 173.931C570.91 176.963 571.324 180.096 571.758 183.384C571.887 184.358 572.018 185.346 572.158 186.348C572.77 190.72 573.567 195.34 575.227 200.229L575.7 200.068L575.227 200.229C577.845 207.939 582.467 214.893 587.021 221.746C587.98 223.188 588.935 224.625 589.868 226.064C595.258 234.377 599.928 242.769 600.441 252.563L600.94 252.536L600.441 252.563C601.496 272.64 588.277 284.912 571.773 294.558C568.204 296.643 564.592 298.406 561.029 300.086C560.277 300.441 559.527 300.792 558.779 301.142C555.992 302.447 553.245 303.733 550.603 305.109C543.894 308.602 537.793 312.711 533.185 319.337Z" fill="#CCDFFF" fill-opacity="0.03" stroke="#CCDFFF"/>
</g>
<defs>
<clipPath id="clip0_1343_10164">
<rect width="375" height="2259" fill="white"/>
</clipPath>
</defs>
</svg>
