<svg width="9" height="9" viewBox="0 0 9 9" fill="none" xmlns="http://www.w3.org/2000/svg">
<path d="M8.33172 5.83184C7.88217 5.77633 7.43578 5.69765 6.99434 5.5961C6.88657 5.56006 6.77133 5.55247 6.65976 5.57404C6.54819 5.59562 6.44408 5.64565 6.3575 5.71928C6.24499 5.83396 5.9202 6.15465 5.58267 6.48596C4.37335 5.89121 3.39533 4.912 2.80178 3.70168C3.13081 3.364 3.43862 3.04118 3.56387 2.92862C3.63746 2.842 3.68747 2.73784 3.70903 2.62622C3.7306 2.51461 3.72301 2.39931 3.68699 2.29149C3.58536 1.84916 3.50671 1.40185 3.45136 0.951376C3.44543 0.894012 3.42789 0.838456 3.3998 0.788095C3.37171 0.737734 3.33366 0.693623 3.28798 0.658451C3.2423 0.623279 3.18993 0.597783 3.13408 0.583516C3.07823 0.569248 3.02006 0.56651 2.96311 0.575466H1.15447C1.07981 0.582209 1.00993 0.615086 0.957119 0.668309C0.904309 0.721532 0.87196 0.791687 0.865767 0.866425C0.749012 2.49962 1.6597 4.24749 1.84439 4.58305V4.59579L1.86986 4.64464C2.53098 5.79179 3.4829 6.74414 4.62952 7.40556L4.72293 7.45866C5.14749 7.68378 6.83513 8.53329 8.41239 8.41648C8.48785 8.41125 8.55898 8.37931 8.61305 8.32638C8.66711 8.27346 8.70058 8.20301 8.70746 8.12765V6.32031C8.71641 6.26334 8.71367 6.20514 8.69941 6.14926C8.68515 6.09338 8.65967 6.04099 8.62451 5.99529C8.58936 5.94959 8.54527 5.91152 8.49493 5.88342C8.44459 5.85532 8.38906 5.83777 8.33172 5.83184Z" stroke="#0041AA" stroke-width="0.5" stroke-linecap="round" stroke-linejoin="round"/>
</svg>
