<svg width="25" height="25" viewBox="0 0 25 25" fill="none" xmlns="http://www.w3.org/2000/svg">
<circle cx="12.5" cy="12.5" r="12.5" fill="#CCDFFF"/>
<path d="M15.3317 13.8318C14.8822 13.7763 14.4358 13.6976 13.9943 13.5961C13.8866 13.5601 13.7713 13.5525 13.6598 13.574C13.5482 13.5956 13.4441 13.6456 13.3575 13.7193C13.245 13.834 12.9202 14.1547 12.5827 14.486C11.3734 13.8912 10.3953 12.912 9.80178 11.7017C10.1308 11.364 10.4386 11.0412 10.5639 10.9286C10.6375 10.842 10.6875 10.7378 10.709 10.6262C10.7306 10.5146 10.723 10.3993 10.687 10.2915C10.5854 9.84916 10.5067 9.40185 10.4514 8.95138C10.4454 8.89401 10.4279 8.83846 10.3998 8.78809C10.3717 8.73773 10.3337 8.69362 10.288 8.65845C10.2423 8.62328 10.1899 8.59778 10.1341 8.58352C10.0782 8.56925 10.0201 8.56651 9.96311 8.57547H8.15447C8.07981 8.58221 8.00993 8.61509 7.95712 8.66831C7.90431 8.72153 7.87196 8.79169 7.86577 8.86642C7.74901 10.4996 8.6597 12.2475 8.84439 12.5831V12.5958L8.86986 12.6446C9.53098 13.7918 10.4829 14.7441 11.6295 15.4056L11.7229 15.4587C12.1475 15.6838 13.8351 16.5333 15.4124 16.4165C15.4878 16.4112 15.559 16.3793 15.613 16.3264C15.6671 16.2735 15.7006 16.203 15.7075 16.1276V14.3203C15.7164 14.2633 15.7137 14.2051 15.6994 14.1493C15.6852 14.0934 15.6597 14.041 15.6245 13.9953C15.5894 13.9496 15.5453 13.9115 15.4949 13.8834C15.4446 13.8553 15.3891 13.8378 15.3317 13.8318Z" stroke="#0041AA" stroke-width="0.5" stroke-linecap="round" stroke-linejoin="round"/>
</svg>
