<svg width="1512" height="3807" viewBox="0 0 1512 3807" fill="none" xmlns="http://www.w3.org/2000/svg">
<g clip-path="url(#clip0_1019_8030)">
<path d="M1512 0H0V3807H1512V0Z" fill="white"/>
<path d="M1288.18 889.337C1285.92 892.599 1284.94 896.862 1284.03 901.067C1283.99 901.235 1283.96 901.403 1283.92 901.571C1283.04 905.649 1282.17 909.647 1280.28 912.85C1271.71 927.369 1254.31 940.175 1235.22 941.409C1222.56 942.224 1213.11 937.456 1204.53 931.184C1201.39 928.896 1198.39 926.418 1195.38 923.937C1194.25 923.01 1193.13 922.083 1192 921.165C1187.85 917.8 1183.61 914.573 1179.02 912.03C1166.3 904.995 1155.12 902.364 1144.62 899.895C1141.86 899.244 1139.14 898.605 1136.46 897.899C1123.59 894.517 1111.34 889.596 1097.76 874.588C1079.72 854.636 1075.16 837.479 1078.53 821.856C1081.91 806.184 1093.29 791.937 1107.43 777.871C1115.44 769.906 1121.12 760.368 1126.64 750.681C1127.11 749.844 1127.59 749.007 1128.06 748.169C1133.1 739.288 1138.15 730.382 1144.89 722.44C1153.71 712.04 1161.9 705.705 1169.94 702.188C1177.98 698.673 1185.9 697.956 1194.21 698.849C1202.53 699.744 1211.23 702.252 1220.83 705.185C1221.87 705.503 1222.92 705.826 1223.98 706.152C1232.71 708.832 1242.17 711.739 1252.69 714.006C1259.68 715.513 1266.9 715.544 1274.07 715.574C1276.42 715.584 1278.77 715.594 1281.1 715.656C1290.57 715.907 1299.88 717.01 1308.64 722.341C1314.16 725.708 1317.85 729.16 1320.38 732.732C1322.9 736.302 1324.29 740.015 1325.21 743.931C1325.91 746.963 1326.32 750.096 1326.76 753.384C1326.89 754.358 1327.02 755.346 1327.16 756.348C1327.77 760.72 1328.57 765.34 1330.23 770.229L1330.7 770.068L1330.23 770.229C1332.85 777.939 1337.47 784.893 1342.02 791.745C1342.98 793.187 1343.93 794.625 1344.87 796.064C1350.26 804.377 1354.93 812.769 1355.44 822.563L1355.94 822.536L1355.44 822.563C1356.5 842.64 1343.28 854.912 1326.77 864.558C1323.2 866.643 1319.59 868.406 1316.03 870.086C1315.28 870.441 1314.53 870.792 1313.78 871.142C1310.99 872.447 1308.24 873.733 1305.6 875.108C1298.89 878.602 1292.79 882.711 1288.18 889.337Z" fill="#CCDFFF" fill-opacity="0.03" stroke="#CCDFFF"/>
<path d="M207.66 543.015L208.13 542.843L207.66 543.015C213.007 557.65 222.44 570.843 231.776 583.902C233.744 586.654 235.707 589.4 237.627 592.152C248.683 608.002 258.319 624.078 259.377 642.862C261.555 681.372 234.246 704.887 200.357 723.3C193.019 727.283 185.596 730.651 178.288 733.855C176.743 734.533 175.203 735.203 173.669 735.87C167.955 738.356 162.337 740.8 156.932 743.417C143.212 750.059 130.788 757.844 121.406 770.383L121.807 770.683L121.406 770.383C116.823 776.514 114.835 784.549 112.962 792.581C112.885 792.911 112.808 793.241 112.731 793.571C110.929 801.316 109.142 808.998 105.226 815.164C87.5815 842.939 51.7703 867.462 12.4083 869.826C-13.7236 871.391 -33.2164 862.229 -50.8702 850.244C-57.3076 845.874 -63.4886 841.137 -69.662 836.406C-71.964 834.642 -74.265 832.879 -76.5778 831.135C-85.0826 824.725 -93.7327 818.599 -103.116 813.775C-129.114 800.404 -151.95 795.409 -173.458 790.704C-179.135 789.463 -184.72 788.241 -190.246 786.891C-216.701 780.428 -241.922 771.008 -269.835 742.32C-306.905 704.221 -316.335 671.389 -309.387 641.45C-302.425 611.451 -278.995 584.22 -249.999 557.405C-233.626 542.275 -222.005 524.149 -210.697 505.686C-209.72 504.09 -208.746 502.493 -207.77 500.894C-197.451 483.976 -187.074 466.966 -173.234 451.797C-155.116 431.941 -138.261 419.813 -121.678 413.071C-105.099 406.331 -88.7583 404.959 -71.6443 406.669C-54.5187 408.38 -36.6329 413.175 -16.9584 418.763C-14.8252 419.369 -12.6713 419.984 -10.4951 420.606C7.38872 425.713 26.7661 431.247 48.3224 435.563C62.5892 438.422 77.3044 438.48 91.993 438.538C96.8209 438.557 101.645 438.576 106.451 438.695C125.911 439.175 145.111 441.28 163.182 451.508C174.565 457.954 182.173 464.575 187.403 471.442C192.632 478.306 195.502 485.439 197.378 492.937C198.829 498.737 199.681 504.736 200.572 511.006C200.835 512.859 201.102 514.736 201.388 516.639C202.642 524.963 204.271 533.736 207.66 543.015Z" fill="#CCDFFF"/>
<path d="M207.66 543.015L208.13 542.843L207.66 543.015ZM207.66 543.015C213.007 557.65 222.44 570.843 231.776 583.902C233.744 586.654 235.707 589.4 237.627 592.152C248.683 608.002 258.319 624.078 259.377 642.862C261.555 681.372 234.246 704.887 200.357 723.3C193.019 727.283 185.596 730.651 178.288 733.855C176.743 734.533 175.203 735.203 173.669 735.87C167.955 738.356 162.337 740.8 156.932 743.417C143.212 750.059 130.788 757.844 121.406 770.383L121.807 770.683L121.406 770.383C116.823 776.514 114.835 784.549 112.962 792.581C112.885 792.911 112.808 793.241 112.731 793.571C110.929 801.316 109.142 808.998 105.226 815.164C87.5815 842.939 51.7703 867.462 12.4083 869.826C-13.7236 871.391 -33.2164 862.229 -50.8702 850.244C-57.3076 845.874 -63.4886 841.137 -69.662 836.406C-71.964 834.642 -74.265 832.879 -76.5778 831.135C-85.0826 824.725 -93.7327 818.599 -103.116 813.775C-129.114 800.404 -151.95 795.409 -173.458 790.704C-179.135 789.463 -184.72 788.241 -190.246 786.891C-216.701 780.428 -241.922 771.008 -269.835 742.32C-306.905 704.221 -316.335 671.389 -309.387 641.45C-302.425 611.451 -278.995 584.22 -249.999 557.405C-233.626 542.275 -222.005 524.149 -210.697 505.686C-209.72 504.09 -208.746 502.493 -207.77 500.894C-197.451 483.976 -187.074 466.966 -173.234 451.797C-155.116 431.941 -138.261 419.813 -121.678 413.071C-105.099 406.331 -88.7583 404.959 -71.6443 406.669C-54.5187 408.38 -36.6329 413.175 -16.9584 418.763C-14.8252 419.369 -12.6713 419.984 -10.4951 420.606C7.38872 425.713 26.7661 431.247 48.3224 435.563C62.5892 438.422 77.3044 438.48 91.993 438.538C96.8209 438.557 101.645 438.576 106.451 438.695C125.911 439.175 145.111 441.28 163.182 451.508C174.565 457.954 182.173 464.575 187.403 471.442C192.632 478.306 195.502 485.439 197.378 492.937C198.829 498.737 199.681 504.736 200.572 511.006C200.835 512.859 201.102 514.736 201.388 516.639C202.642 524.963 204.271 533.736 207.66 543.015Z" stroke="#307880"/>
<path d="M124.185 1133.34H124.184C121.918 1136.6 120.942 1140.86 120.03 1145.07C119.993 1145.24 119.957 1145.4 119.921 1145.57C119.039 1149.65 118.174 1153.65 116.283 1156.85C107.709 1171.37 90.311 1184.18 71.2165 1185.41C58.5601 1186.22 49.1143 1181.46 40.5271 1175.18C37.3937 1172.9 34.3875 1170.42 31.3783 1167.94C30.2543 1167.01 29.1298 1166.08 27.9982 1165.17C23.8475 1161.8 19.6139 1158.57 15.0167 1156.03C2.30044 1148.99 -8.88091 1146.36 -19.376 1143.89C-22.1409 1143.24 -24.8582 1142.6 -27.5434 1141.9C-40.4114 1138.52 -52.6637 1133.6 -66.2373 1118.59C-84.2823 1098.64 -88.8444 1081.48 -85.4741 1065.86C-82.0931 1050.18 -70.7088 1035.94 -56.571 1021.87C-48.5586 1013.91 -42.8764 1004.37 -37.3617 994.681C-36.8854 993.844 -36.4103 993.007 -35.9352 992.169C-30.8995 983.288 -25.8492 974.382 -19.1138 966.44C-10.2921 956.04 -2.10026 949.705 5.94073 946.188C13.9755 942.674 21.8964 941.956 30.2072 942.85C38.5312 943.744 47.2319 946.252 56.8306 949.186C57.8708 949.503 58.9213 949.826 59.9828 950.152C68.7051 952.832 78.1678 955.739 88.6942 958.006C95.6834 959.513 102.902 959.544 110.073 959.574C112.423 959.584 114.768 959.594 117.098 959.656C126.575 959.908 135.882 961.01 144.636 966.341C150.164 969.708 153.848 973.16 156.376 976.732C158.904 980.302 160.295 984.015 161.205 987.931C161.91 990.963 162.324 994.096 162.758 997.384C162.887 998.358 163.018 999.346 163.158 1000.35C163.77 1004.72 164.567 1009.34 166.227 1014.23L166.7 1014.07L166.227 1014.23C168.845 1021.94 173.467 1028.89 178.021 1035.75C178.98 1037.19 179.935 1038.62 180.868 1040.06C186.258 1048.38 190.928 1056.77 191.441 1066.56C192.496 1086.64 179.277 1098.91 162.773 1108.56C159.204 1110.64 155.592 1112.41 152.029 1114.09C151.277 1114.44 150.527 1114.79 149.78 1115.14C146.992 1116.45 144.245 1117.73 141.603 1119.11C134.894 1122.6 128.793 1126.71 124.185 1133.34Z" fill="#CCDFFF" fill-opacity="0.03" stroke="#CCDFFF"/>
<path d="M1483.18 3169.34C1480.92 3172.6 1479.94 3176.86 1479.03 3181.07C1478.99 3181.24 1478.96 3181.4 1478.92 3181.57C1478.04 3185.65 1477.17 3189.65 1475.28 3192.85C1466.71 3207.37 1449.31 3220.18 1430.22 3221.41C1417.56 3222.22 1408.11 3217.46 1399.53 3211.18C1396.39 3208.9 1393.39 3206.42 1390.38 3203.94C1389.25 3203.01 1388.13 3202.08 1387 3201.17C1382.85 3197.8 1378.61 3194.57 1374.02 3192.03C1361.3 3184.99 1350.12 3182.36 1339.62 3179.89C1336.86 3179.24 1334.14 3178.6 1331.46 3177.9C1318.59 3174.52 1306.34 3169.6 1292.76 3154.59C1274.72 3134.64 1270.16 3117.48 1273.53 3101.86C1276.91 3086.18 1288.29 3071.94 1302.43 3057.87C1310.44 3049.91 1316.12 3040.37 1321.64 3030.68C1322.11 3029.84 1322.59 3029.01 1323.07 3028.17C1328.1 3019.29 1333.15 3010.38 1339.89 3002.44C1348.71 2992.04 1356.9 2985.71 1364.94 2982.19C1372.98 2978.67 1380.9 2977.96 1389.21 2978.85C1397.53 2979.74 1406.23 2982.25 1415.83 2985.19C1416.87 2985.5 1417.92 2985.83 1418.98 2986.15C1427.71 2988.83 1437.17 2991.74 1447.69 2994.01C1454.68 2995.51 1461.9 2995.54 1469.07 2995.57C1471.42 2995.58 1473.77 2995.59 1476.1 2995.66C1485.58 2995.91 1494.88 2997.01 1503.64 3002.34C1509.16 3005.71 1512.85 3009.16 1515.38 3012.73C1517.9 3016.3 1519.29 3020.02 1520.21 3023.93C1520.91 3026.96 1521.32 3030.1 1521.76 3033.38C1521.89 3034.36 1522.02 3035.35 1522.16 3036.35C1522.77 3040.72 1523.57 3045.34 1525.23 3050.23L1525.7 3050.07L1525.23 3050.23C1527.85 3057.94 1532.47 3064.89 1537.02 3071.75C1537.98 3073.19 1538.94 3074.62 1539.87 3076.06C1545.26 3084.38 1549.93 3092.77 1550.44 3102.56C1551.5 3122.64 1538.28 3134.91 1521.77 3144.56C1518.2 3146.64 1514.59 3148.41 1511.03 3150.09C1510.28 3150.44 1509.53 3150.79 1508.78 3151.14C1505.99 3152.45 1503.25 3153.73 1500.6 3155.11C1493.89 3158.6 1487.79 3162.71 1483.18 3169.34Z" fill="#CCDFFF" fill-opacity="0.03" stroke="#CCDFFF"/>
<path d="M144.185 2635.34H144.184C141.918 2638.6 140.942 2642.86 140.03 2647.07C139.993 2647.24 139.957 2647.4 139.921 2647.57C139.039 2651.65 138.174 2655.65 136.283 2658.85C127.709 2673.37 110.311 2686.18 91.2165 2687.41C78.5601 2688.22 69.1143 2683.46 60.5271 2677.18C57.3937 2674.9 54.3875 2672.42 51.3783 2669.94C50.2543 2669.01 49.1298 2668.08 47.9982 2667.17C43.8475 2663.8 39.6139 2660.57 35.0167 2658.03C22.3004 2650.99 11.1191 2648.36 0.624077 2645.89C-2.14088 2645.24 -4.85819 2644.6 -7.54339 2643.9C-20.4114 2640.52 -32.6637 2635.6 -46.2373 2620.59C-64.2823 2600.64 -68.8444 2583.48 -65.4741 2567.86C-62.0931 2552.18 -50.7088 2537.94 -36.571 2523.87C-28.5586 2515.91 -22.8764 2506.37 -17.3617 2496.68C-16.8854 2495.84 -16.4103 2495.01 -15.9352 2494.17C-10.8995 2485.29 -5.84911 2476.38 0.886269 2468.44C9.70792 2458.04 17.8997 2451.71 25.9407 2448.19C33.9755 2444.67 41.8964 2443.96 50.2072 2444.85C58.5312 2445.74 67.2319 2448.25 76.8306 2451.19C77.8708 2451.5 78.9213 2451.83 79.9828 2452.15C88.7051 2454.83 98.1678 2457.74 108.694 2460.01C115.684 2461.51 122.902 2461.54 130.073 2461.57C132.423 2461.58 134.768 2461.59 137.098 2461.66C146.575 2461.91 155.882 2463.01 164.636 2468.34C170.164 2471.71 173.848 2475.16 176.376 2478.73C178.904 2482.3 180.295 2486.02 181.205 2489.93C181.91 2492.96 182.324 2496.1 182.758 2499.38C182.887 2500.36 183.018 2501.35 183.158 2502.35C183.77 2506.72 184.567 2511.34 186.227 2516.23L186.7 2516.07L186.227 2516.23C188.845 2523.94 193.467 2530.89 198.021 2537.75C198.98 2539.19 199.935 2540.62 200.868 2542.06C206.258 2550.38 210.928 2558.77 211.441 2568.56C212.496 2588.64 199.277 2600.91 182.773 2610.56C179.204 2612.64 175.592 2614.41 172.029 2616.09C171.277 2616.44 170.527 2616.79 169.78 2617.14C166.992 2618.45 164.245 2619.73 161.603 2621.11C154.894 2624.6 148.793 2628.71 144.185 2635.34Z" fill="#CCDFFF" fill-opacity="0.03" stroke="#CCDFFF"/>
<path d="M1517.18 1566.34C1514.92 1569.6 1513.94 1573.86 1513.03 1578.07C1512.99 1578.24 1512.96 1578.4 1512.92 1578.57C1512.04 1582.65 1511.17 1586.65 1509.28 1589.85C1500.71 1604.37 1483.31 1617.18 1464.22 1618.41C1451.56 1619.22 1442.11 1614.46 1433.53 1608.18C1430.39 1605.9 1427.39 1603.42 1424.38 1600.94C1423.25 1600.01 1422.13 1599.08 1421 1598.17C1416.85 1594.8 1412.61 1591.57 1408.02 1589.03C1395.3 1581.99 1384.12 1579.36 1373.62 1576.89C1370.86 1576.24 1368.14 1575.6 1365.46 1574.9C1352.59 1571.52 1340.34 1566.6 1326.76 1551.59C1308.72 1531.64 1304.16 1514.48 1307.53 1498.86C1310.91 1483.18 1322.29 1468.94 1336.43 1454.87C1344.44 1446.91 1350.12 1437.37 1355.64 1427.68C1356.11 1426.84 1356.59 1426.01 1357.07 1425.17C1362.1 1416.29 1367.15 1407.38 1373.89 1399.44C1382.71 1389.04 1390.9 1382.71 1398.94 1379.19C1406.98 1375.67 1414.9 1374.96 1423.21 1375.85C1431.53 1376.74 1440.23 1379.25 1449.83 1382.19C1450.87 1382.5 1451.92 1382.83 1452.98 1383.15C1461.71 1385.83 1471.17 1388.74 1481.69 1391.01C1488.68 1392.51 1495.9 1392.54 1503.07 1392.57C1505.42 1392.58 1507.77 1392.59 1510.1 1392.66C1519.58 1392.91 1528.88 1394.01 1537.64 1399.34C1543.16 1402.71 1546.85 1406.16 1549.38 1409.73C1551.9 1413.3 1553.29 1417.02 1554.21 1420.93C1554.91 1423.96 1555.32 1427.1 1555.76 1430.38C1555.89 1431.36 1556.02 1432.35 1556.16 1433.35C1556.77 1437.72 1557.57 1442.34 1559.23 1447.23L1559.7 1447.07L1559.23 1447.23C1561.85 1454.94 1566.47 1461.89 1571.02 1468.75C1571.98 1470.19 1572.94 1471.62 1573.87 1473.06C1579.26 1481.38 1583.93 1489.77 1584.44 1499.56C1585.5 1519.64 1572.28 1531.91 1555.77 1541.56C1552.2 1543.64 1548.59 1545.41 1545.03 1547.09C1544.28 1547.44 1543.53 1547.79 1542.78 1548.14C1539.99 1549.45 1537.25 1550.73 1534.6 1552.11C1527.89 1555.6 1521.79 1559.71 1517.18 1566.34Z" fill="#CCDFFF" fill-opacity="0.03" stroke="#CCDFFF"/>
<path d="M1128.18 1261.34C1125.92 1264.6 1124.94 1268.86 1124.03 1273.07C1123.99 1273.24 1123.96 1273.4 1123.92 1273.57C1123.04 1277.65 1122.17 1281.65 1120.28 1284.85C1111.71 1299.37 1094.31 1312.18 1075.22 1313.41C1062.56 1314.22 1053.11 1309.46 1044.53 1303.18C1041.39 1300.9 1038.39 1298.42 1035.38 1295.94C1034.25 1295.01 1033.13 1294.08 1032 1293.17C1027.85 1289.8 1023.61 1286.57 1019.02 1284.03C1006.3 1276.99 995.119 1274.36 984.624 1271.89C981.859 1271.24 979.142 1270.6 976.457 1269.9C963.589 1266.52 951.337 1261.6 937.763 1246.59C919.718 1226.64 915.156 1209.48 918.526 1193.86C921.907 1178.18 933.291 1163.94 947.429 1149.87C955.442 1141.91 961.124 1132.37 966.639 1122.68C967.115 1121.84 967.59 1121.01 968.065 1120.17C973.101 1111.29 978.151 1102.38 984.887 1094.44C993.708 1084.04 1001.9 1077.71 1009.94 1074.19C1017.98 1070.67 1025.9 1069.96 1034.21 1070.85C1042.53 1071.74 1051.23 1074.25 1060.83 1077.19C1061.87 1077.5 1062.92 1077.83 1063.98 1078.15C1072.71 1080.83 1082.17 1083.74 1092.69 1086.01C1099.68 1087.51 1106.9 1087.54 1114.07 1087.57C1116.42 1087.58 1118.77 1087.59 1121.1 1087.66C1130.58 1087.91 1139.88 1089.01 1148.64 1094.34C1154.16 1097.71 1157.85 1101.16 1160.38 1104.73C1162.9 1108.3 1164.29 1112.02 1165.21 1115.93C1165.91 1118.96 1166.32 1122.1 1166.76 1125.38C1166.89 1126.36 1167.02 1127.35 1167.16 1128.35C1167.77 1132.72 1168.57 1137.34 1170.23 1142.23L1170.7 1142.07L1170.23 1142.23C1172.85 1149.94 1177.47 1156.89 1182.02 1163.75C1182.98 1165.19 1183.94 1166.62 1184.87 1168.06C1190.26 1176.38 1194.93 1184.77 1195.44 1194.56C1196.5 1214.64 1183.28 1226.91 1166.77 1236.56C1163.2 1238.64 1159.59 1240.41 1156.03 1242.09C1155.28 1242.44 1154.53 1242.79 1153.78 1243.14C1150.99 1244.45 1148.25 1245.73 1145.6 1247.11C1138.89 1250.6 1132.79 1254.71 1128.18 1261.34Z" fill="#CCDFFF" fill-opacity="0.03" stroke="#CCDFFF"/>
<path d="M192.185 1810.34H192.184C189.918 1813.6 188.942 1817.86 188.03 1822.07C187.993 1822.24 187.957 1822.4 187.921 1822.57C187.039 1826.65 186.174 1830.65 184.283 1833.85C175.709 1848.37 158.311 1861.18 139.217 1862.41C126.56 1863.22 117.115 1858.46 108.527 1852.18C105.394 1849.9 102.388 1847.42 99.3783 1844.94C98.2543 1844.01 97.1298 1843.08 95.9982 1842.17C91.8475 1838.8 87.6139 1835.57 83.0167 1833.03C70.3004 1825.99 59.1191 1823.36 48.624 1820.89C45.8591 1820.24 43.1418 1819.6 40.4566 1818.9C27.5886 1815.52 15.3363 1810.6 1.7627 1795.59C-16.2823 1775.64 -20.8444 1758.48 -17.4741 1742.86C-14.0931 1727.18 -2.70877 1712.94 11.429 1698.87C19.4414 1690.91 25.1236 1681.37 30.6383 1671.68C31.1146 1670.84 31.5897 1670.01 32.0648 1669.17C37.1005 1660.29 42.1508 1651.38 48.8862 1643.44C57.7079 1633.04 65.8997 1626.71 73.9407 1623.19C81.9755 1619.67 89.8964 1618.96 98.2072 1619.85C106.531 1620.74 115.232 1623.25 124.831 1626.19C125.871 1626.5 126.922 1626.83 127.983 1627.15C136.705 1629.83 146.168 1632.74 156.694 1635.01C163.684 1636.51 170.902 1636.54 178.073 1636.57C180.423 1636.58 182.768 1636.59 185.098 1636.66C194.575 1636.91 203.882 1638.01 212.636 1643.34C218.164 1646.71 221.848 1650.16 224.376 1653.73C226.904 1657.3 228.295 1661.02 229.205 1664.93C229.91 1667.96 230.324 1671.1 230.758 1674.38C230.887 1675.36 231.018 1676.35 231.158 1677.35C231.77 1681.72 232.567 1686.34 234.227 1691.23L234.7 1691.07L234.227 1691.23C236.845 1698.94 241.467 1705.89 246.021 1712.75C246.98 1714.19 247.935 1715.62 248.868 1717.06C254.258 1725.38 258.928 1733.77 259.441 1743.56C260.496 1763.64 247.277 1775.91 230.773 1785.56C227.204 1787.64 223.592 1789.41 220.029 1791.09C219.277 1791.44 218.527 1791.79 217.78 1792.14C214.992 1793.45 212.245 1794.73 209.603 1796.11C202.894 1799.6 196.793 1803.71 192.185 1810.34Z" fill="#CCDFFF" fill-opacity="0.03" stroke="#CCDFFF"/>
<path d="M599.185 2104.34H599.184C596.918 2107.6 595.942 2111.86 595.03 2116.07C594.993 2116.24 594.957 2116.4 594.921 2116.57C594.039 2120.65 593.174 2124.65 591.283 2127.85C582.709 2142.37 565.311 2155.18 546.217 2156.41C533.56 2157.22 524.115 2152.46 515.527 2146.18C512.394 2143.9 509.388 2141.42 506.379 2138.94C505.255 2138.01 504.13 2137.08 502.998 2136.17C498.848 2132.8 494.614 2129.57 490.017 2127.03C477.301 2119.99 466.119 2117.36 455.624 2114.89C452.859 2114.24 450.142 2113.6 447.457 2112.9C434.589 2109.52 422.337 2104.6 408.763 2089.59C390.718 2069.64 386.156 2052.48 389.526 2036.86C392.907 2021.18 404.291 2006.94 418.429 1992.87C426.442 1984.91 432.124 1975.37 437.639 1965.68C438.115 1964.84 438.59 1964.01 439.065 1963.17C444.101 1954.29 449.151 1945.38 455.887 1937.44C464.708 1927.04 472.9 1920.71 480.941 1917.19C488.976 1913.67 496.897 1912.96 505.208 1913.85C513.531 1914.74 522.232 1917.25 531.831 1920.19C532.871 1920.5 533.922 1920.83 534.983 1921.15C543.705 1923.83 553.168 1926.74 563.694 1929.01C570.684 1930.51 577.902 1930.54 585.073 1930.57C587.423 1930.58 589.768 1930.59 592.098 1930.66C601.575 1930.91 610.882 1932.01 619.636 1937.34C625.164 1940.71 628.848 1944.16 631.376 1947.73C633.904 1951.3 635.295 1955.02 636.205 1958.93C636.91 1961.96 637.324 1965.1 637.758 1968.38C637.887 1969.36 638.018 1970.35 638.158 1971.35C638.77 1975.72 639.567 1980.34 641.227 1985.23L641.7 1985.07L641.227 1985.23C643.845 1992.94 648.467 1999.89 653.021 2006.75C653.98 2008.19 654.935 2009.62 655.868 2011.06C661.258 2019.38 665.928 2027.77 666.441 2037.56C667.496 2057.64 654.277 2069.91 637.773 2079.56C634.204 2081.64 630.592 2083.41 627.029 2085.09C626.277 2085.44 625.527 2085.79 624.78 2086.14C621.992 2087.45 619.245 2088.73 616.603 2090.11C609.894 2093.6 603.793 2097.71 599.185 2104.34Z" fill="#CCDFFF" fill-opacity="0.03" stroke="#CCDFFF"/>
</g>
<defs>
<clipPath id="clip0_1019_8030">
<rect width="1512" height="3807" fill="white"/>
</clipPath>
</defs>
</svg>
