<svg width="25" height="25" viewBox="0 0 25 25" fill="none" xmlns="http://www.w3.org/2000/svg">
<circle cx="12.5" cy="12.5" r="12.5" fill="#CCDFFF"/>
<path d="M5.31857 14.4702C5.38143 14.4846 5.46679 14.5592 5.49143 14.6272L5.61643 14.9174C5.64464 14.9731 5.63929 15.0834 5.60571 15.1363L5.10679 15.9215C5 16.0899 5.02214 16.3285 5.16571 16.4832L5.58821 16.8895C5.73536 17.0153 5.995 17.038 6.16429 16.9393L6.98 16.4591C7.03107 16.4288 7.14071 16.4182 7.2175 16.4529L7.51857 16.5725C7.57929 16.5928 7.65679 16.6746 7.67179 16.7351L7.89571 17.6302C7.94321 17.82 8.13143 17.9761 8.33357 17.9939C8.33357 17.9939 8.4575 18.0049 8.64321 18.0049C8.82893 18.0049 8.95321 17.9939 8.95321 17.9939C9.05554 17.9823 9.15191 17.9415 9.22989 17.8766C9.30786 17.8118 9.36388 17.726 9.39071 17.6302L9.615 16.7351C9.63 16.675 9.70714 16.5928 9.77786 16.5691L10.0793 16.4488C10.1325 16.4237 10.2557 16.4288 10.3068 16.4591L11.1225 16.9393C11.1943 16.9816 11.28 17.0039 11.3711 17.0039C11.4943 17.0039 11.6136 16.9623 11.7061 16.8829L12.1282 16.4763C12.1951 16.4003 12.236 16.3062 12.2453 16.2069C12.2546 16.1077 12.2318 16.0081 12.18 15.9218L11.6811 15.1367C11.6475 15.0837 11.6421 14.9734 11.6746 14.9081L11.7989 14.6183C11.82 14.5599 11.905 14.4853 11.9679 14.4708L12.8979 14.2553C12.9973 14.2294 13.0865 14.1754 13.1538 14.1003C13.2212 14.0252 13.2636 13.9324 13.2757 13.8339C13.2757 13.8339 13.2871 13.7146 13.2871 13.5358C13.2871 13.3571 13.2757 13.2375 13.2757 13.2375C13.2636 13.139 13.2211 13.0462 13.1538 12.9711C13.0864 12.896 12.9973 12.842 12.8979 12.816L11.9682 12.6008C11.9054 12.5864 11.82 12.5118 11.7954 12.4437L11.6704 12.1536C11.6421 12.0979 11.6475 11.9876 11.6811 11.9347L12.18 11.1495C12.2868 10.9811 12.2646 10.7425 12.1211 10.5878L11.6986 10.1815C11.5511 10.0554 11.2911 10.0327 11.1225 10.1317L10.3068 10.6119C10.2557 10.6418 10.1457 10.6532 10.0693 10.6181L9.76821 10.4985C9.7075 10.4782 9.63036 10.3964 9.61536 10.3359L9.39107 9.44075C9.36413 9.34499 9.30803 9.25919 9.23 9.19438C9.15197 9.12956 9.05557 9.08871 8.95321 9.07706C8.95321 9.07706 8.82857 9.06641 8.64286 9.06641C8.45714 9.06641 8.33286 9.07741 8.33286 9.07741C8.23052 9.08909 8.13414 9.12997 8.05612 9.19477C7.9781 9.25958 7.92199 9.34536 7.895 9.44109L7.67143 10.3355C7.65643 10.396 7.57893 10.4782 7.50821 10.5019L7.20679 10.6222C7.15321 10.6473 7.03036 10.6418 6.97929 10.6119L6.16393 10.1317C5.995 10.0327 5.74071 10.0499 5.58036 10.1881L5.15821 10.5947C5.09129 10.6707 5.0504 10.7648 5.04113 10.8641C5.03186 10.9633 5.05467 11.0629 5.10643 11.1492L5.60536 11.9343C5.63893 11.9872 5.64429 12.0976 5.61179 12.1629L5.4875 12.4527C5.46643 12.5111 5.38143 12.5857 5.31857 12.6002L4.38857 12.8157C4.28909 12.8416 4.19994 12.8956 4.1326 12.9707C4.06526 13.0458 4.02281 13.1386 4.01071 13.2371C4.01071 13.2371 4 13.3564 4 13.5352C4 13.7139 4.01143 13.8335 4.01143 13.8335C4.02357 13.932 4.06604 14.0248 4.13337 14.0999C4.2007 14.175 4.28982 14.229 4.38929 14.255L5.31857 14.4702ZM4.35714 13.5352C4.35714 13.3777 4.36679 13.2715 4.36714 13.2681C4.37283 13.2413 4.38553 13.2164 4.40403 13.1957C4.42254 13.175 4.44623 13.1592 4.47286 13.1498L5.40286 12.9343C5.58321 12.8923 5.765 12.7335 5.82143 12.5744L5.93714 12.3038C6.01857 12.1433 6.00714 11.9075 5.91036 11.7549L5.41143 10.9701C5.3875 10.9319 5.39429 10.8563 5.41786 10.8305L5.82536 10.438C5.85786 10.4101 5.94071 10.4032 5.97786 10.4249L6.79357 10.9051C6.94821 10.9962 7.21321 11.0024 7.35357 10.9354L7.635 10.8233C7.81036 10.7652 7.97536 10.5902 8.01893 10.4163L8.2425 9.52153C8.25219 9.49582 8.26858 9.47293 8.29009 9.45505C8.3116 9.43718 8.33751 9.42492 8.36536 9.41944C8.36893 9.41944 8.47929 9.41016 8.64286 9.41016C8.80643 9.41016 8.91679 9.41944 8.92036 9.41978C8.94815 9.42526 8.97402 9.43748 8.99552 9.45529C9.01703 9.4731 9.03344 9.4959 9.04321 9.52153L9.26714 10.4163C9.31071 10.5899 9.47536 10.7652 9.64107 10.8195L9.92214 10.9309C10.0854 11.0079 10.3382 10.9959 10.4925 10.9051L11.3079 10.4249C11.345 10.4032 11.4329 10.4146 11.4529 10.4311L11.8607 10.8233C11.8914 10.8567 11.8982 10.9319 11.8743 10.9701L11.3754 11.7552C11.2786 11.9075 11.2671 12.1437 11.3439 12.2942L11.4604 12.5651C11.5207 12.7339 11.7025 12.8927 11.8832 12.9346L12.8129 13.1498C12.8396 13.1591 12.8634 13.1749 12.8819 13.1956C12.9005 13.2163 12.9132 13.2413 12.9189 13.2681C12.9189 13.2715 12.9286 13.3777 12.9286 13.5352C12.9286 13.6926 12.9189 13.7988 12.9186 13.8022C12.9129 13.829 12.9002 13.8539 12.8817 13.8746C12.8632 13.8953 12.8395 13.9111 12.8129 13.9205L11.8829 14.136C11.7025 14.178 11.5207 14.3368 11.4643 14.4959L11.3486 14.7665C11.2671 14.927 11.2786 15.1628 11.3754 15.3154L11.8743 16.1002C11.8982 16.1384 11.8914 16.214 11.8679 16.2398L11.4604 16.6323C11.4345 16.6509 11.4029 16.6605 11.3707 16.6595C11.349 16.6602 11.3274 16.6553 11.3082 16.6454L10.4925 16.1652C10.3382 16.0744 10.0732 16.0679 9.9325 16.1349L9.65107 16.247C9.47571 16.3051 9.31071 16.4804 9.2675 16.654L9.04357 17.5488C9.03388 17.5745 9.0175 17.5974 8.99598 17.6153C8.97447 17.6331 8.94856 17.6454 8.92071 17.6509C8.91679 17.6509 8.80643 17.6602 8.64286 17.6602C8.47929 17.6602 8.36893 17.6509 8.36536 17.6505C8.33757 17.6451 8.31169 17.6328 8.29019 17.615C8.26869 17.5972 8.25227 17.5744 8.2425 17.5488L8.01857 16.6537C7.975 16.4801 7.81 16.3051 7.64464 16.2508L7.36357 16.1394C7.28365 16.1036 7.19634 16.0858 7.10821 16.0872C6.99071 16.0872 6.87893 16.115 6.79321 16.1655L5.97786 16.6457C5.94071 16.6674 5.8525 16.6557 5.83286 16.6396L5.425 16.247C5.39429 16.2137 5.3875 16.1384 5.41143 16.1002L5.91036 15.3151C6.00714 15.1628 6.01857 14.9267 5.94179 14.7761L5.82536 14.5052C5.765 14.3364 5.58321 14.1776 5.4025 14.1357L4.47286 13.9205C4.44614 13.9112 4.42236 13.8954 4.40379 13.8747C4.38522 13.854 4.37248 13.829 4.36679 13.8022C4.36679 13.7988 4.35714 13.6926 4.35714 13.5352Z" fill="#0041AA"/>
<path d="M8.64397 15.4246C9.72719 15.4246 10.6083 14.5766 10.6083 13.534C10.6083 12.4914 9.72719 11.6434 8.64397 11.6434C7.56076 11.6434 6.67969 12.4914 6.67969 13.534C6.67969 14.5766 7.56076 15.4246 8.64397 15.4246ZM8.64397 11.9871C9.53004 11.9871 10.2511 12.6812 10.2511 13.534C10.2511 14.3868 9.53004 15.0809 8.64397 15.0809C7.7579 15.0809 7.03683 14.3868 7.03683 13.534C7.03683 12.6812 7.7579 11.9871 8.64397 11.9871ZM13.8143 8.82944C13.7903 8.85534 13.7575 8.87216 13.7218 8.87688L13.0572 8.87069C12.9752 8.87278 12.8956 8.89827 12.8287 8.94393C12.7617 8.98958 12.7104 9.05334 12.6811 9.12713C12.6811 9.12713 12.6518 9.20722 12.6197 9.32994C12.5875 9.45266 12.574 9.53653 12.574 9.53653C12.549 9.69156 12.6386 9.86309 12.7825 9.93563L13.3686 10.2313C13.4 10.2542 13.4212 10.2877 13.4279 10.3251L13.4611 10.5434C13.4632 10.5779 13.4526 10.612 13.4311 10.6396L12.959 11.0851C12.8408 11.1965 12.8097 11.3869 12.8911 11.5365L13.105 11.8802C13.1954 12.0081 13.3911 12.0734 13.5447 12.0273L14.1961 11.8355C14.2315 11.8355 14.2668 11.8486 14.2868 11.8641L14.4708 11.9947C14.4975 12.0179 14.515 12.0494 14.52 12.0837L14.5136 12.7203C14.5122 12.8771 14.6265 13.0342 14.78 13.0858C14.78 13.0858 14.8633 13.1139 14.9908 13.1449C15.1183 13.1758 15.2054 13.1889 15.2054 13.1889C15.2147 13.1903 15.2518 13.193 15.2611 13.193C15.3344 13.1921 15.4061 13.1727 15.4691 13.1368C15.532 13.1008 15.5841 13.0496 15.62 12.9881L15.9272 12.424C15.951 12.3938 15.9858 12.3734 16.0247 12.367L16.2615 12.334C16.2972 12.334 16.3393 12.3518 16.3511 12.3635L16.814 12.818C16.9265 12.9287 17.1161 12.9682 17.2829 12.8833L17.6397 12.6774C17.7761 12.588 17.8422 12.4058 17.7929 12.2542L17.5958 11.6468C17.5905 11.6091 17.6005 11.5708 17.6236 11.5399L17.7593 11.3629C17.7833 11.337 17.8161 11.3201 17.8518 11.3154L18.5165 11.3216C18.5985 11.3195 18.678 11.294 18.745 11.2484C18.8119 11.2027 18.8633 11.139 18.8925 11.0652C18.8925 11.0652 18.9218 10.9851 18.954 10.8624C18.9861 10.7397 18.9997 10.6558 18.9997 10.6558C19.0103 10.5768 18.9961 10.4966 18.9589 10.4255C18.9217 10.3544 18.8633 10.2956 18.7911 10.2567L18.205 9.96106C18.1736 9.93815 18.1524 9.90461 18.1458 9.86722L18.1129 9.64963C18.1108 9.61514 18.1214 9.58105 18.1429 9.55338L18.615 9.10788C18.7333 8.9965 18.7643 8.80606 18.6829 8.65653L18.469 8.31278C18.3786 8.18525 18.1833 8.11925 18.0293 8.16531L17.3775 8.35713C17.3449 8.35708 17.3132 8.34709 17.2868 8.32859L17.1029 8.19797C17.0761 8.17477 17.0587 8.14326 17.0536 8.10894L17.06 7.47231C17.0587 7.39275 17.0325 7.31541 16.9851 7.25028C16.9376 7.18515 16.8709 7.13521 16.7936 7.10691C16.7936 7.10691 16.7104 7.07872 16.5829 7.04778C16.4554 7.01684 16.3683 7.00378 16.3683 7.00378C16.3497 7.00201 16.3312 7.00075 16.3125 7C16.2393 7.00088 16.1676 7.02027 16.1046 7.05622C16.0416 7.09218 15.9895 7.14345 15.9536 7.20488L15.6465 7.76897C15.6227 7.7992 15.5878 7.8196 15.549 7.82603L15.3122 7.85869C15.2798 7.85801 15.2485 7.84768 15.2225 7.82913L14.7597 7.37469C14.6992 7.31675 14.6209 7.27911 14.5365 7.26735C14.452 7.25559 14.3658 7.27032 14.2908 7.30938L13.9336 7.51494C13.7972 7.60431 13.7311 7.7865 13.7804 7.93809L13.9775 8.5455C13.9828 8.58325 13.9728 8.62151 13.9497 8.65241L13.8143 8.82944ZM14.1072 9.02606L14.2297 8.86588C14.3254 8.75691 14.3625 8.57919 14.3183 8.44341L14.1215 7.83634C14.1197 7.82672 14.1275 7.80506 14.1258 7.80472L14.4643 7.60947L14.5047 7.61531L14.9679 8.06975C15.05 8.15019 15.1854 8.20244 15.3125 8.20244C15.337 8.20281 15.3614 8.20062 15.3854 8.19591L15.5908 8.16669C15.6679 8.15768 15.7418 8.13141 15.8064 8.08999C15.8711 8.04856 15.9248 7.99312 15.9633 7.92813L16.27 7.36438C16.2811 7.35245 16.2964 7.34497 16.3129 7.34341C16.3168 7.34375 16.3897 7.35544 16.4961 7.38088C16.6022 7.40666 16.6722 7.42969 16.6754 7.43106C16.6865 7.43553 16.7025 7.45788 16.7033 7.46888L16.6968 8.1055C16.6954 8.24781 16.7843 8.40766 16.8993 8.47984L17.0654 8.59775C17.1758 8.68747 17.365 8.72528 17.5043 8.683L18.1379 8.49325C18.1529 8.49325 18.1697 8.50219 18.1675 8.49772L18.3704 8.82359C18.3743 8.83253 18.3704 8.85522 18.3643 8.86244L17.8922 9.30828C17.7868 9.40831 17.7322 9.58156 17.7611 9.71013L17.7911 9.90778C17.804 10.0494 17.9083 10.2003 18.0393 10.2663L18.625 10.5616C18.6373 10.5723 18.6451 10.587 18.6468 10.6028C18.6364 10.6621 18.6234 10.7209 18.6079 10.7792C18.5931 10.8374 18.5757 10.895 18.5558 10.9518C18.5511 10.9624 18.5279 10.9779 18.5165 10.9786L17.8515 10.9724C17.7047 10.9724 17.5404 11.058 17.4661 11.1673L17.344 11.3271C17.2958 11.3859 17.2626 11.4548 17.2472 11.5282C17.2318 11.6016 17.2346 11.6774 17.2554 11.7496L17.4522 12.3567C17.454 12.3659 17.4461 12.3879 17.4479 12.3883L17.1093 12.5835L17.069 12.5777L16.6058 12.1233C16.5236 12.0428 16.3883 11.9906 16.2611 11.9906C16.2367 11.9902 16.2122 11.9924 16.1883 11.9971L15.9829 12.0263C15.9058 12.0353 15.8319 12.0616 15.7672 12.103C15.7025 12.1444 15.6488 12.1999 15.6104 12.2649L15.3036 12.8286C15.2926 12.8405 15.2773 12.848 15.2608 12.8496C15.1992 12.8395 15.1381 12.827 15.0775 12.8121C15.0171 12.7979 14.9572 12.7811 14.8983 12.7619C14.8872 12.7575 14.8711 12.7351 14.8704 12.7241L14.8768 12.0875C14.8783 11.9452 14.7893 11.7853 14.6743 11.7132L14.5083 11.5953C14.4472 11.5488 14.3755 11.5169 14.2992 11.5021C14.2229 11.4873 14.144 11.49 14.069 11.51L13.4354 11.6998C13.42 11.6998 13.4033 11.6918 13.4058 11.6953L13.2029 11.3694C13.199 11.3605 13.2029 11.3378 13.209 11.3306L13.6811 10.8847C13.7865 10.7847 13.8411 10.6114 13.8122 10.4829L13.7822 10.2856C13.7728 10.2113 13.7455 10.1402 13.7024 10.0779C13.6593 10.0156 13.6016 9.96395 13.534 9.92703L12.9483 9.63175C12.936 9.62104 12.9282 9.60636 12.9265 9.5905C12.9268 9.58672 12.939 9.51659 12.9654 9.41416C12.9922 9.31206 13.0161 9.24469 13.0175 9.24159C13.0222 9.23094 13.0454 9.21547 13.0568 9.21478L13.7218 9.22097C13.8686 9.22097 14.0329 9.13538 14.1072 9.02606Z" fill="#0041AA"/>
<path d="M15.7863 11.1289C16.377 11.1289 16.8577 10.6662 16.8577 10.0977C16.8577 9.52909 16.377 9.06641 15.7863 9.06641C15.1956 9.06641 14.7148 9.52909 14.7148 10.0977C14.7148 10.6662 15.1956 11.1289 15.7863 11.1289ZM15.7863 9.41016C16.1802 9.41016 16.5006 9.7185 16.5006 10.0977C16.5006 10.4768 16.1802 10.7852 15.7863 10.7852C15.3923 10.7852 15.072 10.4768 15.072 10.0977C15.072 9.7185 15.3923 9.41016 15.7863 9.41016Z" fill="#0041AA"/>
</svg>
