<svg width="16" height="12" viewBox="0 0 16 12" fill="none" xmlns="http://www.w3.org/2000/svg">
<path d="M1.31857 7.47016C1.38143 7.48459 1.46679 7.55919 1.49143 7.62725L1.61643 7.91737C1.64464 7.97306 1.63929 8.08341 1.60571 8.13634L1.10679 8.92147C1 9.08991 1.02214 9.32847 1.16571 9.48316L1.58821 9.88947C1.73536 10.0153 1.995 10.038 2.16429 9.93931L2.98 9.45909C3.03107 9.42884 3.14071 9.41819 3.2175 9.45291L3.51857 9.57253C3.57929 9.59281 3.65679 9.67462 3.67179 9.73512L3.89571 10.6302C3.94321 10.82 4.13143 10.9761 4.33357 10.9939C4.33357 10.9939 4.4575 11.0049 4.64321 11.0049C4.82893 11.0049 4.95321 10.9939 4.95321 10.9939C5.05554 10.9823 5.15191 10.9415 5.22989 10.8766C5.30786 10.8118 5.36388 10.726 5.39071 10.6302L5.615 9.73512C5.63 9.67497 5.70714 9.59281 5.77786 9.56909L6.07929 9.44878C6.1325 9.42369 6.25571 9.42884 6.30679 9.45909L7.1225 9.93931C7.19429 9.98159 7.28 10.0039 7.37107 10.0039C7.49429 10.0039 7.61357 9.96234 7.70607 9.88294L8.12821 9.47628C8.19514 9.40025 8.23603 9.30618 8.2453 9.20694C8.25457 9.10769 8.23176 9.00811 8.18 8.92181L7.68107 8.13669C7.6475 8.08375 7.64214 7.97341 7.67464 7.90809L7.79893 7.61831C7.82 7.55987 7.905 7.48528 7.96786 7.47084L8.89786 7.25531C8.99734 7.22938 9.08649 7.17538 9.15383 7.10028C9.22117 7.02517 9.26362 6.93239 9.27571 6.83387C9.27571 6.83387 9.28714 6.71459 9.28714 6.53584C9.28714 6.35709 9.27571 6.23747 9.27571 6.23747C9.26357 6.13897 9.2211 6.04621 9.15377 5.97111C9.08644 5.89601 8.99732 5.84201 8.89786 5.81603L7.96821 5.60084C7.90536 5.58641 7.82 5.51181 7.79536 5.44375L7.67036 5.15362C7.64214 5.09794 7.6475 4.98759 7.68107 4.93466L8.18 4.14953C8.28679 3.98109 8.26464 3.74253 8.12107 3.58784L7.69857 3.18153C7.55107 3.05538 7.29107 3.03269 7.1225 3.13169L6.30679 3.61191C6.25571 3.64181 6.14571 3.65316 6.06929 3.61809L5.76821 3.49847C5.7075 3.47819 5.63036 3.39637 5.61536 3.33587L5.39107 2.44075C5.36413 2.34499 5.30803 2.25919 5.23 2.19438C5.15197 2.12956 5.05557 2.08871 4.95321 2.07706C4.95321 2.07706 4.82857 2.06641 4.64286 2.06641C4.45714 2.06641 4.33286 2.07741 4.33286 2.07741C4.23052 2.08909 4.13414 2.12997 4.05612 2.19477C3.9781 2.25958 3.92199 2.34536 3.895 2.44109L3.67143 3.33553C3.65643 3.39603 3.57893 3.47819 3.50821 3.50191L3.20679 3.62222C3.15321 3.64731 3.03036 3.64181 2.97929 3.61191L2.16393 3.13169C1.995 3.03269 1.74071 3.04987 1.58036 3.18806L1.15821 3.59472C1.09129 3.67075 1.0504 3.76482 1.04113 3.86406C1.03186 3.96331 1.05467 4.06289 1.10643 4.14919L1.60536 4.93431C1.63893 4.98725 1.64429 5.09759 1.61179 5.16291L1.4875 5.45269C1.46643 5.51112 1.38143 5.58572 1.31857 5.60016L0.388571 5.81569C0.289086 5.84162 0.199938 5.89561 0.132599 5.97072C0.0652607 6.04582 0.0228116 6.13861 0.0107143 6.23712C0.0107143 6.23712 0 6.35641 0 6.53516C0 6.71391 0.0114286 6.83353 0.0114286 6.83353C0.0235724 6.93203 0.066038 7.02479 0.13337 7.09989C0.200701 7.17499 0.289823 7.22899 0.389286 7.25497L1.31857 7.47016ZM0.357143 6.53516C0.357143 6.37772 0.366786 6.2715 0.367143 6.26806C0.372833 6.24131 0.385532 6.21641 0.404034 6.19571C0.422536 6.17502 0.446227 6.15922 0.472857 6.14981L1.40286 5.93428C1.58321 5.89234 1.765 5.73353 1.82143 5.57437L1.93714 5.30384C2.01857 5.14331 2.00714 4.9075 1.91036 4.75487L1.41143 3.97009C1.3875 3.93194 1.39429 3.85631 1.41786 3.83053L1.82536 3.43797C1.85786 3.41012 1.94071 3.40325 1.97786 3.42491L2.79357 3.90512C2.94821 3.99622 3.21321 4.00241 3.35357 3.93537L3.635 3.82331C3.81036 3.76522 3.97536 3.59025 4.01893 3.41631L4.2425 2.52153C4.25219 2.49582 4.26858 2.47293 4.29009 2.45505C4.3116 2.43718 4.33751 2.42492 4.36536 2.41944C4.36893 2.41944 4.47929 2.41016 4.64286 2.41016C4.80643 2.41016 4.91679 2.41944 4.92036 2.41978C4.94815 2.42526 4.97402 2.43748 4.99552 2.45529C5.01703 2.4731 5.03344 2.4959 5.04321 2.52153L5.26714 3.41631C5.31071 3.58991 5.47536 3.76522 5.64107 3.81953L5.92214 3.93091C6.08536 4.00791 6.33821 3.99587 6.4925 3.90512L7.30786 3.42491C7.345 3.40325 7.43286 3.41459 7.45286 3.43109L7.86071 3.82331C7.89143 3.85666 7.89821 3.93194 7.87429 3.97009L7.37536 4.75522C7.27857 4.9075 7.26714 5.14366 7.34393 5.29422L7.46036 5.56509C7.52071 5.73387 7.7025 5.89269 7.88321 5.93462L8.81286 6.14981C8.83957 6.15914 8.86335 6.17491 8.88192 6.19561C8.9005 6.21632 8.91324 6.24126 8.91893 6.26806C8.91893 6.2715 8.92857 6.37772 8.92857 6.53516C8.92857 6.69259 8.91893 6.79881 8.91857 6.80225C8.91288 6.829 8.90018 6.8539 8.88168 6.8746C8.86318 6.89529 8.83949 6.91109 8.81286 6.9205L7.88286 7.13603C7.7025 7.17797 7.52071 7.33678 7.46429 7.49594L7.34857 7.76647C7.26714 7.927 7.27857 8.16281 7.37536 8.31544L7.87429 9.10022C7.89821 9.13837 7.89143 9.214 7.86786 9.23978L7.46036 9.63234C7.43454 9.65092 7.40293 9.66049 7.37071 9.6595C7.34896 9.66018 7.32739 9.65532 7.30821 9.64541L6.4925 9.16519C6.33821 9.07444 6.07321 9.06791 5.9325 9.13494L5.65107 9.247C5.47571 9.30509 5.31071 9.48041 5.2675 9.654L5.04357 10.5488C5.03388 10.5745 5.0175 10.5974 4.99598 10.6153C4.97447 10.6331 4.94856 10.6454 4.92071 10.6509C4.91679 10.6509 4.80643 10.6602 4.64286 10.6602C4.47929 10.6602 4.36893 10.6509 4.36536 10.6505C4.33757 10.6451 4.31169 10.6328 4.29019 10.615C4.26869 10.5972 4.25227 10.5744 4.2425 10.5488L4.01857 9.65366C3.975 9.48006 3.81 9.30509 3.64464 9.25078L3.36357 9.13941C3.28365 9.10364 3.19634 9.08578 3.10821 9.08716C2.99071 9.08716 2.87893 9.115 2.79321 9.16553L1.97786 9.64575C1.94071 9.66741 1.8525 9.65572 1.83286 9.63956L1.425 9.247C1.39429 9.21366 1.3875 9.13837 1.41143 9.10022L1.91036 8.31509C2.00714 8.16281 2.01857 7.92666 1.94179 7.77609L1.82536 7.50522C1.765 7.33644 1.58321 7.17762 1.4025 7.13569L0.472857 6.9205C0.446142 6.91117 0.422361 6.8954 0.40379 6.8747C0.385218 6.85399 0.372477 6.82905 0.366786 6.80225C0.366786 6.79881 0.357143 6.69259 0.357143 6.53516Z" fill="#0041AA"/>
<path d="M4.64397 8.42463C5.72719 8.42463 6.60826 7.57659 6.60826 6.534C6.60826 5.49141 5.72719 4.64338 4.64397 4.64338C3.56076 4.64338 2.67969 5.49141 2.67969 6.534C2.67969 7.57659 3.56076 8.42463 4.64397 8.42463ZM4.64397 4.98713C5.53004 4.98713 6.25112 5.68116 6.25112 6.534C6.25112 7.38684 5.53004 8.08088 4.64397 8.08088C3.7579 8.08088 3.03683 7.38684 3.03683 6.534C3.03683 5.68116 3.7579 4.98713 4.64397 4.98713ZM9.81433 1.82944C9.79035 1.85534 9.75755 1.87216 9.72183 1.87688L9.05719 1.87069C8.97516 1.87278 8.89564 1.89827 8.82868 1.94393C8.76173 1.98958 8.71037 2.05334 8.68112 2.12713C8.68112 2.12713 8.65183 2.20722 8.61969 2.32994C8.58754 2.45266 8.57397 2.53653 8.57397 2.53653C8.54897 2.69156 8.63862 2.86309 8.78254 2.93563L9.36862 3.23125C9.40003 3.25416 9.42122 3.28771 9.4279 3.32509L9.46112 3.54338C9.46322 3.57786 9.4526 3.61195 9.43112 3.63963L8.95897 4.08513C8.84076 4.1965 8.80969 4.38694 8.89112 4.53647L9.10504 4.88022C9.1954 5.00809 9.39112 5.07341 9.54469 5.02734L10.1961 4.83553C10.2315 4.83553 10.2668 4.84859 10.2868 4.86406L10.4708 4.99469C10.4975 5.01788 10.515 5.0494 10.52 5.08372L10.5136 5.72034C10.5122 5.87709 10.6265 6.03419 10.78 6.08575C10.78 6.08575 10.8633 6.11394 10.9908 6.14488C11.1183 6.17581 11.2054 6.18888 11.2054 6.18888C11.2147 6.19025 11.2518 6.193 11.2611 6.193C11.3344 6.19212 11.4061 6.17273 11.4691 6.13678C11.532 6.10082 11.5841 6.04956 11.62 5.98813L11.9272 5.42403C11.951 5.3938 11.9858 5.3734 12.0247 5.36697L12.2615 5.33397C12.2972 5.33397 12.3393 5.35184 12.3511 5.36353L12.814 5.81797C12.9265 5.92866 13.1161 5.96819 13.2829 5.88328L13.6397 5.67738C13.7761 5.588 13.8422 5.40581 13.7929 5.25422L13.5958 4.64681C13.5905 4.60906 13.6005 4.5708 13.6236 4.53991L13.7593 4.36288C13.7833 4.33697 13.8161 4.32015 13.8518 4.31544L14.5165 4.32163C14.5985 4.31953 14.678 4.29404 14.745 4.24839C14.8119 4.20273 14.8633 4.13897 14.8925 4.06519C14.8925 4.06519 14.9218 3.98509 14.954 3.86238C14.9861 3.73966 14.9997 3.65578 14.9997 3.65578C15.0103 3.57682 14.9961 3.49661 14.9589 3.42548C14.9217 3.35435 14.8633 3.29557 14.7911 3.25669L14.205 2.96106C14.1736 2.93815 14.1524 2.90461 14.1458 2.86722L14.1129 2.64963C14.1108 2.61514 14.1214 2.58105 14.1429 2.55338L14.615 2.10788C14.7333 1.9965 14.7643 1.80606 14.6829 1.65653L14.469 1.31278C14.3786 1.18525 14.1833 1.11925 14.0293 1.16531L13.3775 1.35713C13.3449 1.35708 13.3132 1.34709 13.2868 1.32859L13.1029 1.19797C13.0761 1.17477 13.0587 1.14326 13.0536 1.10894L13.06 0.472313C13.0587 0.392751 13.0325 0.315413 12.9851 0.250279C12.9376 0.185145 12.8709 0.135206 12.7936 0.106906C12.7936 0.106906 12.7104 0.0787188 12.5829 0.0477813C12.4554 0.0168437 12.3683 0.00378125 12.3683 0.00378125C12.3497 0.00200807 12.3312 0.00074713 12.3125 0C12.2393 0.000878007 12.1676 0.0202674 12.1046 0.0562249C12.0416 0.0921825 11.9895 0.143445 11.9536 0.204875L11.6465 0.768969C11.6227 0.799205 11.5878 0.819603 11.549 0.826031L11.3122 0.858688C11.2798 0.858013 11.2485 0.847683 11.2225 0.829125L10.7597 0.374688C10.6992 0.316752 10.6209 0.279114 10.5365 0.26735C10.452 0.255587 10.3658 0.270322 10.2908 0.309375L9.93362 0.514938C9.79719 0.604313 9.73112 0.7865 9.7804 0.938094L9.97754 1.5455C9.98281 1.58325 9.97284 1.62151 9.94969 1.65241L9.81433 1.82944ZM10.1072 2.02606L10.2297 1.86588C10.3254 1.75691 10.3625 1.57919 10.3183 1.44341L10.1215 0.836344C10.1197 0.826719 10.1275 0.805063 10.1258 0.804719L10.4643 0.609469L10.5047 0.615313L10.9679 1.06975C11.05 1.15019 11.1854 1.20244 11.3125 1.20244C11.337 1.20281 11.3614 1.20062 11.3854 1.19591L11.5908 1.16669C11.6679 1.15768 11.7418 1.13141 11.8064 1.08999C11.8711 1.04856 11.9248 0.993124 11.9633 0.928125L12.27 0.364375C12.2811 0.352453 12.2964 0.344968 12.3129 0.343406C12.3168 0.34375 12.3897 0.355438 12.4961 0.380875C12.6022 0.406656 12.6722 0.429688 12.6754 0.431063C12.6865 0.435531 12.7025 0.457875 12.7033 0.468875L12.6968 1.1055C12.6954 1.24781 12.7843 1.40766 12.8993 1.47984L13.0654 1.59775C13.1758 1.68747 13.365 1.72528 13.5043 1.683L14.1379 1.49325C14.1529 1.49325 14.1697 1.50219 14.1675 1.49772L14.3704 1.82359C14.3743 1.83253 14.3704 1.85522 14.3643 1.86244L13.8922 2.30828C13.7868 2.40831 13.7322 2.58156 13.7611 2.71013L13.7911 2.90778C13.804 3.04941 13.9083 3.20031 14.0393 3.26631L14.625 3.56159C14.6373 3.5723 14.6451 3.58699 14.6468 3.60284C14.6364 3.66211 14.6234 3.72094 14.6079 3.77919C14.5931 3.8374 14.5757 3.89497 14.5558 3.95175C14.5511 3.96241 14.5279 3.97788 14.5165 3.97856L13.8515 3.97238C13.7047 3.97238 13.5404 4.05797 13.4661 4.16728L13.344 4.32713C13.2958 4.38589 13.2626 4.45477 13.2472 4.52817C13.2318 4.60157 13.2346 4.67743 13.2554 4.74959L13.4522 5.35666C13.454 5.36594 13.4461 5.38794 13.4479 5.38828L13.1093 5.58353L13.069 5.57769L12.6058 5.12325C12.5236 5.04281 12.3883 4.99056 12.2611 4.99056C12.2367 4.99019 12.2122 4.99238 12.1883 4.99709L11.9829 5.02631C11.9058 5.03532 11.8319 5.06159 11.7672 5.10301C11.7025 5.14444 11.6488 5.19988 11.6104 5.26488L11.3036 5.82863C11.2926 5.84055 11.2773 5.84803 11.2608 5.84959C11.1992 5.83952 11.1381 5.82702 11.0775 5.81213C11.0171 5.79787 10.9572 5.78113 10.8983 5.76194C10.8872 5.75747 10.8711 5.73513 10.8704 5.72412L10.8768 5.0875C10.8783 4.94519 10.7893 4.78534 10.6743 4.71316L10.5083 4.59525C10.4472 4.54881 10.3755 4.51689 10.2992 4.50208C10.2229 4.48727 10.144 4.48998 10.069 4.51L9.4354 4.69975C9.42004 4.69975 9.40326 4.69184 9.40576 4.69528L9.2029 4.36941C9.19897 4.36047 9.2029 4.33778 9.20897 4.33056L9.68112 3.88472C9.78647 3.78469 9.84112 3.61144 9.81219 3.48288L9.78219 3.28556C9.77282 3.21128 9.74548 3.14015 9.70238 3.07789C9.65927 3.01562 9.60159 2.96395 9.53397 2.92703L8.94826 2.63175C8.93598 2.62104 8.92823 2.60636 8.92647 2.5905C8.92683 2.58672 8.93897 2.51659 8.9654 2.41416C8.99219 2.31206 9.01612 2.24469 9.01754 2.24159C9.02219 2.23094 9.0454 2.21547 9.05683 2.21478L9.72183 2.22097C9.86862 2.22097 10.0329 2.13538 10.1072 2.02606Z" fill="#0041AA"/>
<path d="M11.7863 4.12891C12.377 4.12891 12.8577 3.66622 12.8577 3.09766C12.8577 2.52909 12.377 2.06641 11.7863 2.06641C11.1956 2.06641 10.7148 2.52909 10.7148 3.09766C10.7148 3.66622 11.1956 4.12891 11.7863 4.12891ZM11.7863 2.41016C12.1802 2.41016 12.5006 2.7185 12.5006 3.09766C12.5006 3.47681 12.1802 3.78516 11.7863 3.78516C11.3923 3.78516 11.072 3.47681 11.072 3.09766C11.072 2.7185 11.3923 2.41016 11.7863 2.41016Z" fill="#0041AA"/>
</svg>
