<svg width="40" height="40" viewBox="0 0 40 40" fill="none" xmlns="http://www.w3.org/2000/svg">
<path d="M37.6 20.4141C37.6 19.1141 37.4833 17.8641 37.2667 16.6641H20V23.7557H29.8667C29.4417 26.0474 28.15 27.9891 26.2083 29.2891V33.8891H32.1333C35.6 30.6974 37.6 25.9974 37.6 20.4141Z" fill="#4285F4"/>
<path d="M20.0005 38.3344C24.9505 38.3344 29.1005 36.6927 32.1339 33.8927L26.2089 29.2927C24.5672 30.3927 22.4672 31.0427 20.0005 31.0427C15.2255 31.0427 11.1839 27.8177 9.74219 23.4844H3.61719V28.2344C6.63385 34.226 12.8339 38.3344 20.0005 38.3344Z" fill="#34A853"/>
<path d="M9.73906 23.4823C9.3724 22.3823 9.16406 21.2073 9.16406 19.999C9.16406 18.7906 9.3724 17.6156 9.73906 16.5156V11.7656H3.61406C2.33073 14.3204 1.66293 17.14 1.66406 19.999C1.66406 22.9573 2.3724 25.7573 3.61406 28.2323L9.73906 23.4823Z" fill="#FBBC05"/>
<path d="M20.0005 8.95573C22.6922 8.95573 25.1089 9.88073 27.0089 11.6974L32.2672 6.43906C29.0922 3.48073 24.9422 1.66406 20.0005 1.66406C12.8339 1.66406 6.63385 5.7724 3.61719 11.7641L9.74219 16.5141C11.1839 12.1807 15.2255 8.95573 20.0005 8.95573Z" fill="#EA4335"/>
</svg>
