<svg width="1512" height="2008" viewBox="0 0 1512 2008" fill="none" xmlns="http://www.w3.org/2000/svg">
<g clip-path="url(#clip0_1019_7974)">
<path d="M1512 0H0V2008H1512V0Z" fill="white"/>
<path d="M234.16 137.015L234.63 136.843L234.16 137.015C239.507 151.65 248.94 164.843 258.276 177.902C260.244 180.654 262.207 183.4 264.127 186.152C275.183 202.002 284.819 218.078 285.877 236.862C288.055 275.372 260.746 298.887 226.857 317.3C219.519 321.283 212.096 324.651 204.788 327.855C203.243 328.533 201.703 329.203 200.169 329.87C194.455 332.356 188.837 334.8 183.432 337.417C169.712 344.059 157.288 351.844 147.906 364.383L148.307 364.683L147.906 364.383C143.323 370.514 141.335 378.549 139.462 386.581C139.385 386.911 139.308 387.241 139.231 387.571C137.429 395.316 135.642 402.998 131.726 409.164C114.082 436.939 78.2703 461.462 38.9083 463.826C12.7764 465.391 -6.71643 456.229 -24.3702 444.244C-30.8076 439.874 -36.9886 435.137 -43.162 430.406C-45.464 428.642 -47.765 426.879 -50.0778 425.135C-58.5826 418.725 -67.2327 412.599 -76.6156 407.775C-102.614 394.404 -125.45 389.409 -146.958 384.704C-152.635 383.463 -158.22 382.241 -163.746 380.891C-190.201 374.428 -215.422 365.008 -243.335 336.32C-280.405 298.221 -289.835 265.389 -282.887 235.45C-275.925 205.451 -252.495 178.22 -223.499 151.405C-207.126 136.275 -195.505 118.149 -184.197 99.686C-183.22 98.09 -182.246 96.493 -181.27 94.894C-170.951 77.976 -160.574 60.966 -146.734 45.797C-128.616 25.941 -111.761 13.8135 -95.1776 7.07119C-78.5986 0.330788 -62.2583 -1.04091 -45.1443 0.669088C-28.0187 2.38019 -10.1329 7.17509 9.54156 12.7634C11.6748 13.3693 13.8287 13.9844 16.0049 14.6059C33.8887 19.713 53.2661 25.247 74.8224 29.563C89.0892 32.422 103.804 32.48 118.493 32.538C123.321 32.557 128.145 32.576 132.951 32.695C152.411 33.175 171.611 35.28 189.682 45.508C201.065 51.954 208.673 58.575 213.903 65.442C219.132 72.306 222.002 79.439 223.878 86.937C225.329 92.737 226.181 98.736 227.072 105.006C227.335 106.859 227.602 108.736 227.888 110.639C229.142 118.963 230.771 127.736 234.16 137.015Z" fill="#CCDFFF"/>
<path d="M234.16 137.015L234.63 136.843L234.16 137.015ZM234.16 137.015C239.507 151.65 248.94 164.843 258.276 177.902C260.244 180.654 262.207 183.4 264.127 186.152C275.183 202.002 284.819 218.078 285.877 236.862C288.055 275.372 260.746 298.887 226.857 317.3C219.519 321.283 212.096 324.651 204.788 327.855C203.243 328.533 201.703 329.203 200.169 329.87C194.455 332.356 188.837 334.8 183.432 337.417C169.712 344.059 157.288 351.844 147.906 364.383L148.307 364.683L147.906 364.383C143.323 370.514 141.335 378.549 139.462 386.581C139.385 386.911 139.308 387.241 139.231 387.571C137.429 395.316 135.642 402.998 131.726 409.164C114.082 436.939 78.2703 461.462 38.9083 463.826C12.7764 465.391 -6.71644 456.229 -24.3702 444.244C-30.8076 439.874 -36.9886 435.137 -43.162 430.406C-45.464 428.642 -47.765 426.879 -50.0778 425.135C-58.5826 418.725 -67.2327 412.599 -76.6156 407.775C-102.614 394.404 -125.45 389.409 -146.958 384.704C-152.635 383.463 -158.22 382.241 -163.746 380.891C-190.201 374.428 -215.422 365.008 -243.335 336.32C-280.405 298.221 -289.835 265.389 -282.887 235.45C-275.925 205.451 -252.495 178.22 -223.499 151.405C-207.126 136.275 -195.505 118.149 -184.197 99.686C-183.22 98.09 -182.246 96.493 -181.27 94.894C-170.951 77.976 -160.574 60.966 -146.734 45.797C-128.616 25.941 -111.761 13.8135 -95.1776 7.07119C-78.5986 0.330788 -62.2583 -1.04091 -45.1443 0.669088C-28.0187 2.38019 -10.1329 7.17509 9.54156 12.7634C11.6748 13.3693 13.8287 13.9844 16.0049 14.6059C33.8887 19.713 53.2661 25.247 74.8224 29.563C89.0892 32.422 103.804 32.48 118.493 32.538C123.321 32.557 128.145 32.576 132.951 32.695C152.411 33.175 171.611 35.28 189.682 45.508C201.065 51.954 208.673 58.575 213.903 65.442C219.132 72.306 222.002 79.439 223.878 86.937C225.329 92.737 226.181 98.736 227.072 105.006C227.335 106.859 227.602 108.736 227.888 110.639C229.142 118.963 230.771 127.736 234.16 137.015Z" stroke="#307880"/>
<path d="M185.185 1265.34H185.184C182.918 1268.6 181.942 1272.86 181.03 1277.07C180.993 1277.24 180.957 1277.4 180.921 1277.57C180.039 1281.65 179.174 1285.65 177.283 1288.85C168.709 1303.37 151.311 1316.18 132.217 1317.41C119.56 1318.22 110.115 1313.46 101.527 1307.18C98.3937 1304.9 95.3875 1302.42 92.3783 1299.94C91.2543 1299.01 90.1298 1298.08 88.9982 1297.17C84.8475 1293.8 80.6139 1290.57 76.0167 1288.03C63.3004 1280.99 52.1191 1278.36 41.624 1275.89C38.8591 1275.24 36.1418 1274.6 33.4566 1273.9C20.5886 1270.52 8.33631 1265.6 -5.2373 1250.59C-23.2823 1230.64 -27.8444 1213.48 -24.4741 1197.86C-21.0931 1182.18 -9.70877 1167.94 4.42907 1153.87C12.4414 1145.91 18.1236 1136.37 23.6383 1126.68C24.1146 1125.84 24.5897 1125.01 25.0648 1124.17C30.1005 1115.29 35.1508 1106.38 41.8862 1098.44C50.7079 1088.04 58.8997 1081.71 66.9407 1078.19C74.9755 1074.67 82.8964 1073.96 91.2072 1074.85C99.5312 1075.74 108.232 1078.25 117.831 1081.19C118.871 1081.5 119.922 1081.83 120.983 1082.15C129.705 1084.83 139.168 1087.74 149.694 1090.01C156.684 1091.51 163.902 1091.54 171.073 1091.57C173.423 1091.58 175.768 1091.59 178.098 1091.66C187.575 1091.91 196.882 1093.01 205.636 1098.34C211.164 1101.71 214.848 1105.16 217.376 1108.73C219.904 1112.3 221.295 1116.02 222.205 1119.93C222.91 1122.96 223.324 1126.1 223.758 1129.38C223.887 1130.36 224.018 1131.35 224.158 1132.35C224.77 1136.72 225.567 1141.34 227.227 1146.23L227.7 1146.07L227.227 1146.23C229.845 1153.94 234.467 1160.89 239.021 1167.75C239.98 1169.19 240.935 1170.62 241.868 1172.06C247.258 1180.38 251.928 1188.77 252.441 1198.56C253.496 1218.64 240.277 1230.91 223.773 1240.56C220.204 1242.64 216.592 1244.41 213.029 1246.09C212.277 1246.44 211.527 1246.79 210.78 1247.14C207.992 1248.45 205.245 1249.73 202.603 1251.11C195.894 1254.6 189.793 1258.71 185.185 1265.34Z" fill="#CCDFFF" fill-opacity="0.03" stroke="#CCDFFF"/>
<path d="M1483.18 341.337C1480.92 344.599 1479.94 348.862 1479.03 353.067C1478.99 353.235 1478.96 353.403 1478.92 353.571C1478.04 357.649 1477.17 361.647 1475.28 364.85C1466.71 379.369 1449.31 392.175 1430.22 393.409C1417.56 394.225 1408.11 389.456 1399.53 383.184C1396.39 380.896 1393.39 378.418 1390.38 375.937C1389.25 375.01 1388.13 374.083 1387 373.165C1382.85 369.8 1378.61 366.573 1374.02 364.03C1361.3 356.995 1350.12 354.364 1339.62 351.895C1336.86 351.244 1334.14 350.605 1331.46 349.899C1318.59 346.517 1306.34 341.596 1292.76 326.588C1274.72 306.636 1270.16 289.479 1273.53 273.856C1276.91 258.184 1288.29 243.937 1302.43 229.871C1310.44 221.906 1316.12 212.368 1321.64 202.681C1322.11 201.844 1322.59 201.007 1323.07 200.169C1328.1 191.288 1333.15 182.382 1339.89 174.44C1348.71 164.04 1356.9 157.705 1364.94 154.188C1372.98 150.674 1380.9 149.956 1389.21 150.85C1397.53 151.744 1406.23 154.252 1415.83 157.186C1416.87 157.503 1417.92 157.826 1418.98 158.152C1427.71 160.832 1437.17 163.739 1447.69 166.006C1454.68 167.513 1461.9 167.544 1469.07 167.574C1471.42 167.584 1473.77 167.594 1476.1 167.656C1485.58 167.908 1494.88 169.01 1503.64 174.341C1509.16 177.708 1512.85 181.16 1515.38 184.732C1517.9 188.302 1519.29 192.015 1520.21 195.931C1520.91 198.963 1521.32 202.096 1521.76 205.384C1521.89 206.358 1522.02 207.346 1522.16 208.348C1522.77 212.72 1523.57 217.34 1525.23 222.229L1525.7 222.068L1525.23 222.229C1527.85 229.939 1532.47 236.893 1537.02 243.746C1537.98 245.188 1538.94 246.625 1539.87 248.064C1545.26 256.377 1549.93 264.769 1550.44 274.563C1551.5 294.64 1538.28 306.912 1521.77 316.558C1518.2 318.643 1514.59 320.406 1511.03 322.086C1510.28 322.441 1509.53 322.792 1508.78 323.142C1505.99 324.447 1503.25 325.732 1500.6 327.109C1493.89 330.602 1487.79 334.711 1483.18 341.337Z" fill="#CCDFFF" fill-opacity="0.03" stroke="#CCDFFF"/>
<path d="M1517.18 1771.34C1514.92 1774.6 1513.94 1778.86 1513.03 1783.07C1512.99 1783.24 1512.96 1783.4 1512.92 1783.57C1512.04 1787.65 1511.17 1791.65 1509.28 1794.85C1500.71 1809.37 1483.31 1822.18 1464.22 1823.41C1451.56 1824.22 1442.11 1819.46 1433.53 1813.18C1430.39 1810.9 1427.39 1808.42 1424.38 1805.94C1423.25 1805.01 1422.13 1804.08 1421 1803.17C1416.85 1799.8 1412.61 1796.57 1408.02 1794.03C1395.3 1786.99 1384.12 1784.36 1373.62 1781.89C1370.86 1781.24 1368.14 1780.6 1365.46 1779.9C1352.59 1776.52 1340.34 1771.6 1326.76 1756.59C1308.72 1736.64 1304.16 1719.48 1307.53 1703.86C1310.91 1688.18 1322.29 1673.94 1336.43 1659.87C1344.44 1651.91 1350.12 1642.37 1355.64 1632.68C1356.11 1631.84 1356.59 1631.01 1357.07 1630.17C1362.1 1621.29 1367.15 1612.38 1373.89 1604.44C1382.71 1594.04 1390.9 1587.71 1398.94 1584.19C1406.98 1580.67 1414.9 1579.96 1423.21 1580.85C1431.53 1581.74 1440.23 1584.25 1449.83 1587.19C1450.87 1587.5 1451.92 1587.83 1452.98 1588.15C1461.71 1590.83 1471.17 1593.74 1481.69 1596.01C1488.68 1597.51 1495.9 1597.54 1503.07 1597.57C1505.42 1597.58 1507.77 1597.59 1510.1 1597.66C1519.58 1597.91 1528.88 1599.01 1537.64 1604.34C1543.16 1607.71 1546.85 1611.16 1549.38 1614.73C1551.9 1618.3 1553.29 1622.02 1554.21 1625.93C1554.91 1628.96 1555.32 1632.1 1555.76 1635.38C1555.89 1636.36 1556.02 1637.35 1556.16 1638.35C1556.77 1642.72 1557.57 1647.34 1559.23 1652.23L1559.7 1652.07L1559.23 1652.23C1561.85 1659.94 1566.47 1666.89 1571.02 1673.75C1571.98 1675.19 1572.94 1676.62 1573.87 1678.06C1579.26 1686.38 1583.93 1694.77 1584.44 1704.56C1585.5 1724.64 1572.28 1736.91 1555.77 1746.56C1552.2 1748.64 1548.59 1750.41 1545.03 1752.09C1544.28 1752.44 1543.53 1752.79 1542.78 1753.14C1539.99 1754.45 1537.25 1755.73 1534.6 1757.11C1527.89 1760.6 1521.79 1764.71 1517.18 1771.34Z" fill="#CCDFFF" fill-opacity="0.03" stroke="#CCDFFF"/>
<path d="M192.185 1810.34H192.184C189.918 1813.6 188.942 1817.86 188.03 1822.07C187.993 1822.24 187.957 1822.4 187.921 1822.57C187.039 1826.65 186.174 1830.65 184.283 1833.85C175.709 1848.37 158.311 1861.18 139.217 1862.41C126.56 1863.22 117.115 1858.46 108.527 1852.18C105.394 1849.9 102.388 1847.42 99.3783 1844.94C98.2543 1844.01 97.1298 1843.08 95.9982 1842.17C91.8475 1838.8 87.6139 1835.57 83.0167 1833.03C70.3004 1825.99 59.1191 1823.36 48.624 1820.89C45.8591 1820.24 43.1418 1819.6 40.4566 1818.9C27.5886 1815.52 15.3363 1810.6 1.7627 1795.59C-16.2823 1775.64 -20.8444 1758.48 -17.4741 1742.86C-14.0931 1727.18 -2.70877 1712.94 11.429 1698.87C19.4414 1690.91 25.1236 1681.37 30.6383 1671.68C31.1146 1670.84 31.5897 1670.01 32.0648 1669.17C37.1005 1660.29 42.1508 1651.38 48.8862 1643.44C57.7079 1633.04 65.8997 1626.71 73.9407 1623.19C81.9755 1619.67 89.8964 1618.96 98.2072 1619.85C106.531 1620.74 115.232 1623.25 124.831 1626.19C125.871 1626.5 126.922 1626.83 127.983 1627.15C136.705 1629.83 146.168 1632.74 156.694 1635.01C163.684 1636.51 170.902 1636.54 178.073 1636.57C180.423 1636.58 182.768 1636.59 185.098 1636.66C194.575 1636.91 203.882 1638.01 212.636 1643.34C218.164 1646.71 221.848 1650.16 224.376 1653.73C226.904 1657.3 228.295 1661.02 229.205 1664.93C229.91 1667.96 230.324 1671.1 230.758 1674.38C230.887 1675.36 231.018 1676.35 231.158 1677.35C231.77 1681.72 232.567 1686.34 234.227 1691.23L234.7 1691.07L234.227 1691.23C236.845 1698.94 241.467 1705.89 246.021 1712.75C246.98 1714.19 247.935 1715.62 248.868 1717.06C254.258 1725.38 258.928 1733.77 259.441 1743.56C260.496 1763.64 247.277 1775.91 230.773 1785.56C227.204 1787.64 223.592 1789.41 220.029 1791.09C219.277 1791.44 218.527 1791.79 217.78 1792.14C214.992 1793.45 212.245 1794.73 209.603 1796.11C202.894 1799.6 196.793 1803.71 192.185 1810.34Z" fill="#CCDFFF" fill-opacity="0.03" stroke="#CCDFFF"/>
</g>
<defs>
<clipPath id="clip0_1019_7974">
<rect width="1512" height="2008" fill="white"/>
</clipPath>
</defs>
</svg>
