<svg width="1512" height="5268" viewBox="0 0 1512 5268" fill="none" xmlns="http://www.w3.org/2000/svg">
<g clip-path="url(#clip0_1019_7987)">
<path d="M1512 0H0V5268H1512V0Z" fill="white"/>
<path d="M35.4067 317.38L35.807 317.68L35.4066 317.38C30.8239 323.51 28.8358 331.55 26.9623 339.58C26.8853 339.91 26.8085 340.24 26.7318 340.57C24.9299 348.32 23.1425 356 19.2261 362.16C1.58154 389.94 -34.2298 414.46 -73.5918 416.83C-99.7237 418.39 -119.217 409.23 -136.871 397.24C-143.308 392.87 -149.489 388.14 -155.663 383.41C-157.965 381.64 -160.265 379.88 -162.578 378.14C-171.083 371.72 -179.733 365.6 -189.116 360.77C-215.114 347.4 -237.95 342.41 -259.458 337.7C-265.135 336.46 -270.72 335.24 -276.246 333.89C-302.701 327.43 -327.922 318.01 -355.835 289.32C-392.905 251.22 -402.335 218.39 -395.387 188.45C-388.425 158.45 -364.995 131.22 -335.999 104.405C-319.626 89.2751 -308.005 71.149 -296.697 52.686C-295.72 51.09 -294.746 49.493 -293.771 47.894C-283.451 30.976 -273.074 13.966 -259.234 -1.20296C-241.116 -21.059 -224.261 -33.187 -207.678 -39.929C-191.099 -46.669 -174.759 -48.041 -157.645 -46.331C-140.519 -44.62 -122.633 -39.825 -102.959 -34.237C-100.826 -33.631 -98.6713 -33.0159 -96.4951 -32.3939C-78.6113 -27.2869 -59.2339 -21.753 -37.6776 -17.437C-23.4107 -14.578 -8.69565 -14.5199 5.99295 -14.4619C10.8209 -14.4429 15.646 -14.424 20.4513 -14.305C39.9112 -13.825 59.1115 -11.72 77.1823 -1.49196C88.5653 4.95404 96.1736 11.5751 101.403 18.4421C106.632 25.3061 109.502 32.4391 111.378 39.9371C112.829 45.7371 113.681 51.736 114.572 58.006C114.835 59.859 115.102 61.736 115.388 63.639C116.642 71.963 118.271 80.7361 121.66 90.0151C127.007 104.65 136.44 117.843 145.776 130.902C147.744 133.654 149.707 136.4 151.627 139.152C162.683 155.002 172.319 171.08 173.377 189.86C175.555 228.37 148.246 251.89 114.357 270.3C107.019 274.28 99.5966 277.65 92.2885 280.86C90.7434 281.53 89.2031 282.2 87.6697 282.87C81.9557 285.36 76.3379 287.8 70.9319 290.42C57.2126 297.06 44.7885 304.84 35.4067 317.38Z" fill="#CCDFFF" stroke="#307880"/>
<path d="M1508.18 1232.34C1505.92 1235.6 1504.94 1239.86 1504.03 1244.07C1503.99 1244.24 1503.96 1244.4 1503.92 1244.57C1503.04 1248.65 1502.17 1252.65 1500.28 1255.85C1491.71 1270.37 1474.31 1283.18 1455.22 1284.41C1442.56 1285.22 1433.11 1280.46 1424.53 1274.18C1421.39 1271.9 1418.39 1269.42 1415.38 1266.94C1414.25 1266.01 1413.13 1265.08 1412 1264.17C1407.85 1260.8 1403.61 1257.57 1399.02 1255.03C1386.3 1247.99 1375.12 1245.36 1364.62 1242.89C1361.86 1242.24 1359.14 1241.6 1356.46 1240.9C1343.59 1237.52 1331.34 1232.6 1317.76 1217.59C1299.72 1197.64 1295.16 1180.48 1298.53 1164.86C1301.91 1149.18 1313.29 1134.94 1327.43 1120.87C1335.44 1112.91 1341.12 1103.37 1346.64 1093.68C1347.11 1092.84 1347.59 1092.01 1348.07 1091.17C1353.1 1082.29 1358.15 1073.38 1364.89 1065.44C1373.71 1055.04 1381.9 1048.71 1389.94 1045.19C1397.98 1041.67 1405.9 1040.96 1414.21 1041.85C1422.53 1042.74 1431.23 1045.25 1440.83 1048.19C1441.87 1048.5 1442.92 1048.83 1443.98 1049.15C1452.71 1051.83 1462.17 1054.74 1472.69 1057.01C1479.68 1058.51 1486.9 1058.54 1494.07 1058.57C1496.42 1058.58 1498.77 1058.59 1501.1 1058.66C1510.58 1058.91 1519.88 1060.01 1528.64 1065.34C1534.16 1068.71 1537.85 1072.16 1540.38 1075.73C1542.9 1079.3 1544.29 1083.02 1545.21 1086.93C1545.91 1089.96 1546.32 1093.1 1546.76 1096.38C1546.89 1097.36 1547.02 1098.35 1547.16 1099.35C1547.77 1103.72 1548.57 1108.34 1550.23 1113.23L1550.7 1113.07L1550.23 1113.23C1552.85 1120.94 1557.47 1127.89 1562.02 1134.75C1562.98 1136.19 1563.94 1137.62 1564.87 1139.06C1570.26 1147.38 1574.93 1155.77 1575.44 1165.56L1575.94 1165.54L1575.44 1165.56C1576.5 1185.64 1563.28 1197.91 1546.77 1207.56C1543.2 1209.64 1539.59 1211.41 1536.03 1213.09C1535.28 1213.44 1534.53 1213.79 1533.78 1214.14C1530.99 1215.45 1528.24 1216.73 1525.6 1218.11C1518.89 1221.6 1512.79 1225.71 1508.18 1232.34Z" fill="#CCDFFF" fill-opacity="0.03" stroke="#CCDFFF"/>
<path d="M1169.18 1810.34C1166.92 1813.6 1165.94 1817.86 1165.03 1822.07C1164.99 1822.24 1164.96 1822.4 1164.92 1822.57C1164.04 1826.65 1163.17 1830.65 1161.28 1833.85C1152.71 1848.37 1135.31 1861.18 1116.22 1862.41C1103.56 1863.22 1094.11 1858.46 1085.53 1852.18C1082.39 1849.9 1079.39 1847.42 1076.38 1844.94C1075.25 1844.01 1074.13 1843.08 1073 1842.17C1068.85 1838.8 1064.61 1835.57 1060.02 1833.03C1047.3 1825.99 1036.12 1823.36 1025.62 1820.89C1022.86 1820.24 1020.14 1819.6 1017.46 1818.9C1004.59 1815.52 992.337 1810.6 978.763 1795.59C960.718 1775.64 956.156 1758.48 959.526 1742.86C962.907 1727.18 974.291 1712.94 988.429 1698.87C996.442 1690.91 1002.12 1681.37 1007.64 1671.68C1008.11 1670.84 1008.59 1670.01 1009.07 1669.17C1014.1 1660.29 1019.15 1651.38 1025.89 1643.44C1034.71 1633.04 1042.9 1626.71 1050.94 1623.19C1058.98 1619.67 1066.9 1618.96 1075.21 1619.85C1083.53 1620.74 1092.23 1623.25 1101.83 1626.19C1102.87 1626.5 1103.92 1626.83 1104.98 1627.15C1113.71 1629.83 1123.17 1632.74 1133.69 1635.01C1140.68 1636.51 1147.9 1636.54 1155.07 1636.57C1157.42 1636.58 1159.77 1636.59 1162.1 1636.66C1171.58 1636.91 1180.88 1638.01 1189.64 1643.34C1195.16 1646.71 1198.85 1650.16 1201.38 1653.73C1203.9 1657.3 1205.29 1661.02 1206.21 1664.93C1206.91 1667.96 1207.32 1671.1 1207.76 1674.38C1207.89 1675.36 1208.02 1676.35 1208.16 1677.35C1208.77 1681.72 1209.57 1686.34 1211.23 1691.23L1211.7 1691.07L1211.23 1691.23C1213.85 1698.94 1218.47 1705.89 1223.02 1712.75C1223.98 1714.19 1224.94 1715.62 1225.87 1717.06C1231.26 1725.38 1235.93 1733.77 1236.44 1743.56L1236.94 1743.54L1236.44 1743.56C1237.5 1763.64 1224.28 1775.91 1207.77 1785.56C1204.2 1787.64 1200.59 1789.41 1197.03 1791.09C1196.28 1791.44 1195.53 1791.79 1194.78 1792.14C1191.99 1793.45 1189.24 1794.73 1186.6 1796.11C1179.89 1799.6 1173.79 1803.71 1169.18 1810.34Z" fill="#CCDFFF" fill-opacity="0.03" stroke="#CCDFFF"/>
<path d="M511.185 3787.34H511.184C508.918 3790.6 507.942 3794.86 507.03 3799.07C506.993 3799.24 506.957 3799.4 506.921 3799.57C506.039 3803.65 505.174 3807.65 503.283 3810.85C494.709 3825.37 477.311 3838.18 458.217 3839.41C445.56 3840.22 436.115 3835.46 427.527 3829.18C424.394 3826.9 421.388 3824.42 418.379 3821.94C417.255 3821.01 416.13 3820.08 414.998 3819.17C410.848 3815.8 406.614 3812.57 402.017 3810.03C389.301 3802.99 378.119 3800.36 367.624 3797.89C364.859 3797.24 362.142 3796.6 359.457 3795.9C346.589 3792.52 334.337 3787.6 320.763 3772.59C302.718 3752.64 298.156 3735.48 301.526 3719.86C304.907 3704.18 316.291 3689.94 330.429 3675.87C338.442 3667.91 344.124 3658.37 349.639 3648.68C350.115 3647.84 350.59 3647.01 351.065 3646.17C356.101 3637.29 361.151 3628.38 367.887 3620.44C376.708 3610.04 384.9 3603.71 392.941 3600.19C400.976 3596.67 408.897 3595.96 417.208 3596.85C425.531 3597.74 434.232 3600.25 443.831 3603.19C444.871 3603.5 445.922 3603.83 446.983 3604.15C455.705 3606.83 465.168 3609.74 475.694 3612.01C482.684 3613.51 489.902 3613.54 497.073 3613.57C499.423 3613.58 501.768 3613.59 504.098 3613.66C513.575 3613.91 522.882 3615.01 531.636 3620.34C537.164 3623.71 540.848 3627.16 543.376 3630.73C545.904 3634.3 547.295 3638.02 548.205 3641.93C548.91 3644.96 549.324 3648.1 549.758 3651.38C549.887 3652.36 550.018 3653.35 550.158 3654.35C550.77 3658.72 551.567 3663.34 553.227 3668.23L553.7 3668.07L553.227 3668.23C555.845 3675.94 560.467 3682.89 565.021 3689.75C565.98 3691.19 566.935 3692.62 567.868 3694.06C573.258 3702.38 577.928 3710.77 578.441 3720.56L578.94 3720.54L578.441 3720.56C579.496 3740.64 566.277 3752.91 549.773 3762.56C546.204 3764.64 542.592 3766.41 539.029 3768.09C538.277 3768.44 537.527 3768.79 536.779 3769.14C533.992 3770.45 531.245 3771.73 528.603 3773.11C521.894 3776.6 515.793 3780.71 511.185 3787.34Z" fill="#CCDFFF" fill-opacity="0.03" stroke="#CCDFFF"/>
<path d="M888.185 3270.34H888.184C885.918 3273.6 884.942 3277.86 884.03 3282.07C883.993 3282.24 883.957 3282.4 883.921 3282.57C883.039 3286.65 882.174 3290.65 880.283 3293.85C871.709 3308.37 854.311 3321.18 835.217 3322.41C822.56 3323.22 813.115 3318.46 804.527 3312.18C801.394 3309.9 798.388 3307.42 795.379 3304.94C794.255 3304.01 793.13 3303.08 791.998 3302.17C787.848 3298.8 783.614 3295.57 779.017 3293.03C766.301 3285.99 755.119 3283.36 744.624 3280.89C741.859 3280.24 739.142 3279.6 736.457 3278.9C723.589 3275.52 711.337 3270.6 697.763 3255.59C679.718 3235.64 675.156 3218.48 678.526 3202.86C681.907 3187.18 693.291 3172.94 707.429 3158.87C715.442 3150.91 721.124 3141.37 726.639 3131.68C727.115 3130.84 727.59 3130.01 728.065 3129.17C733.101 3120.29 738.151 3111.38 744.887 3103.44C753.708 3093.04 761.9 3086.71 769.941 3083.19C777.976 3079.67 785.897 3078.96 794.208 3079.85C802.531 3080.74 811.232 3083.25 820.831 3086.19C821.871 3086.5 822.922 3086.83 823.983 3087.15C832.705 3089.83 842.168 3092.74 852.694 3095.01C859.684 3096.51 866.902 3096.54 874.073 3096.57C876.423 3096.58 878.768 3096.59 881.098 3096.66C890.575 3096.91 899.882 3098.01 908.636 3103.34C914.164 3106.71 917.848 3110.16 920.376 3113.73C922.904 3117.3 924.295 3121.02 925.205 3124.93C925.91 3127.96 926.324 3131.1 926.758 3134.38C926.887 3135.36 927.018 3136.35 927.158 3137.35C927.77 3141.72 928.567 3146.34 930.227 3151.23L930.7 3151.07L930.227 3151.23C932.845 3158.94 937.467 3165.89 942.021 3172.75C942.98 3174.19 943.935 3175.62 944.868 3177.06C950.258 3185.38 954.928 3193.77 955.441 3203.56L955.94 3203.54L955.441 3203.56C956.496 3223.64 943.277 3235.91 926.773 3245.56C923.204 3247.64 919.592 3249.41 916.029 3251.09C915.277 3251.44 914.527 3251.79 913.779 3252.14C910.992 3253.45 908.245 3254.73 905.603 3256.11C898.894 3259.6 892.793 3263.71 888.185 3270.34Z" fill="#CCDFFF" fill-opacity="0.03" stroke="#CCDFFF"/>
<path d="M171.185 3078.34H171.184C168.918 3081.6 167.942 3085.86 167.03 3090.07C166.993 3090.24 166.957 3090.4 166.921 3090.57C166.039 3094.65 165.174 3098.65 163.283 3101.85C154.709 3116.37 137.311 3129.18 118.217 3130.41C105.56 3131.22 96.1143 3126.46 87.5271 3120.18C84.3937 3117.9 81.3875 3115.42 78.3783 3112.94C77.2543 3112.01 76.1298 3111.08 74.9982 3110.17C70.8475 3106.8 66.6139 3103.57 62.0167 3101.03C49.3004 3093.99 38.1191 3091.36 27.624 3088.89C24.8591 3088.24 22.1418 3087.6 19.4566 3086.9C6.58864 3083.52 -5.66369 3078.6 -19.2373 3063.59C-37.2823 3043.64 -41.8444 3026.48 -38.4741 3010.86C-35.0931 2995.18 -23.7089 2980.94 -9.57107 2966.87C-1.55866 2958.91 4.12362 2949.37 9.63837 2939.68C10.1146 2938.84 10.5897 2938.01 11.0648 2937.17C16.1005 2928.29 21.1508 2919.38 27.8862 2911.44C36.7079 2901.04 44.8997 2894.71 52.9407 2891.19C60.9755 2887.67 68.8964 2886.96 77.2072 2887.85C85.5312 2888.74 94.2319 2891.25 103.831 2894.19C104.871 2894.5 105.922 2894.83 106.983 2895.15C115.705 2897.83 125.168 2900.74 135.694 2903.01C142.684 2904.51 149.902 2904.54 157.073 2904.57C159.423 2904.58 161.768 2904.59 164.098 2904.66C173.575 2904.91 182.882 2906.01 191.636 2911.34C197.164 2914.71 200.848 2918.16 203.376 2921.73C205.904 2925.3 207.295 2929.02 208.205 2932.93C208.91 2935.96 209.324 2939.1 209.758 2942.38C209.887 2943.36 210.018 2944.35 210.158 2945.35C210.77 2949.72 211.567 2954.34 213.227 2959.23L213.7 2959.07L213.227 2959.23C215.845 2966.94 220.467 2973.89 225.021 2980.75C225.98 2982.19 226.935 2983.62 227.868 2985.06C233.258 2993.38 237.928 3001.77 238.441 3011.56L238.94 3011.54L238.441 3011.56C239.496 3031.64 226.277 3043.91 209.773 3053.56C206.204 3055.64 202.592 3057.41 199.029 3059.09C198.277 3059.44 197.527 3059.79 196.779 3060.14C193.992 3061.45 191.245 3062.73 188.603 3064.11C181.894 3067.6 175.793 3071.71 171.185 3078.34Z" fill="#CCDFFF" fill-opacity="0.03" stroke="#CCDFFF"/>
<path d="M1482.18 3949.34C1479.92 3952.6 1478.94 3956.86 1478.03 3961.07C1477.99 3961.24 1477.96 3961.4 1477.92 3961.57C1477.04 3965.65 1476.17 3969.65 1474.28 3972.85C1465.71 3987.37 1448.31 4000.18 1429.22 4001.41C1416.56 4002.22 1407.11 3997.46 1398.53 3991.18C1395.39 3988.9 1392.39 3986.42 1389.38 3983.94C1388.25 3983.01 1387.13 3982.08 1386 3981.17C1381.85 3977.8 1377.61 3974.57 1373.02 3972.03C1360.3 3964.99 1349.12 3962.36 1338.62 3959.89C1335.86 3959.24 1333.14 3958.6 1330.46 3957.9C1317.59 3954.52 1305.34 3949.6 1291.76 3934.59C1273.72 3914.64 1269.16 3897.48 1272.53 3881.86C1275.91 3866.18 1287.29 3851.94 1301.43 3837.87C1309.44 3829.91 1315.12 3820.37 1320.64 3810.68C1321.11 3809.84 1321.59 3809.01 1322.07 3808.17C1327.1 3799.29 1332.15 3790.38 1338.89 3782.44C1347.71 3772.04 1355.9 3765.71 1363.94 3762.19C1371.98 3758.67 1379.9 3757.96 1388.21 3758.85C1396.53 3759.74 1405.23 3762.25 1414.83 3765.19C1415.87 3765.5 1416.92 3765.83 1417.98 3766.15C1426.71 3768.83 1436.17 3771.74 1446.69 3774.01C1453.68 3775.51 1460.9 3775.54 1468.07 3775.57C1470.42 3775.58 1472.77 3775.59 1475.1 3775.66C1484.58 3775.91 1493.88 3777.01 1502.64 3782.34C1508.16 3785.71 1511.85 3789.16 1514.38 3792.73C1516.9 3796.3 1518.29 3800.02 1519.21 3803.93C1519.91 3806.96 1520.32 3810.1 1520.76 3813.38C1520.89 3814.36 1521.02 3815.35 1521.16 3816.35C1521.77 3820.72 1522.57 3825.34 1524.23 3830.23L1524.7 3830.07L1524.23 3830.23C1526.85 3837.94 1531.47 3844.89 1536.02 3851.75C1536.98 3853.19 1537.94 3854.62 1538.87 3856.06C1544.26 3864.38 1548.93 3872.77 1549.44 3882.56L1549.94 3882.54L1549.44 3882.56C1550.5 3902.64 1537.28 3914.91 1520.77 3924.56C1517.2 3926.64 1513.59 3928.41 1510.03 3930.09C1509.28 3930.44 1508.53 3930.79 1507.78 3931.14C1504.99 3932.45 1502.24 3933.73 1499.6 3935.11C1492.89 3938.6 1486.79 3942.71 1482.18 3949.34Z" fill="#CCDFFF" fill-opacity="0.03" stroke="#CCDFFF"/>
<path d="M1484.18 3107.34C1481.92 3110.6 1480.94 3114.86 1480.03 3119.07C1479.99 3119.24 1479.96 3119.4 1479.92 3119.57C1479.04 3123.65 1478.17 3127.65 1476.28 3130.85C1467.71 3145.37 1450.31 3158.18 1431.22 3159.41C1418.56 3160.22 1409.11 3155.46 1400.53 3149.18C1397.39 3146.9 1394.39 3144.42 1391.38 3141.94C1390.25 3141.01 1389.13 3140.08 1388 3139.17C1383.85 3135.8 1379.61 3132.57 1375.02 3130.03C1362.3 3122.99 1351.12 3120.36 1340.62 3117.89C1337.86 3117.24 1335.14 3116.6 1332.46 3115.9C1319.59 3112.52 1307.34 3107.6 1293.76 3092.59C1275.72 3072.64 1271.16 3055.48 1274.53 3039.86C1277.91 3024.18 1289.29 3009.94 1303.43 2995.87C1311.44 2987.91 1317.12 2978.37 1322.64 2968.68C1323.11 2967.84 1323.59 2967.01 1324.07 2966.17C1329.1 2957.29 1334.15 2948.38 1340.89 2940.44C1349.71 2930.04 1357.9 2923.71 1365.94 2920.19C1373.98 2916.67 1381.9 2915.96 1390.21 2916.85C1398.53 2917.74 1407.23 2920.25 1416.83 2923.19C1417.87 2923.5 1418.92 2923.83 1419.98 2924.15C1428.71 2926.83 1438.17 2929.74 1448.69 2932.01C1455.68 2933.51 1462.9 2933.54 1470.07 2933.57C1472.42 2933.58 1474.77 2933.59 1477.1 2933.66C1486.58 2933.91 1495.88 2935.01 1504.64 2940.34C1510.16 2943.71 1513.85 2947.16 1516.38 2950.73C1518.9 2954.3 1520.29 2958.02 1521.21 2961.93C1521.91 2964.96 1522.32 2968.1 1522.76 2971.38C1522.89 2972.36 1523.02 2973.35 1523.16 2974.35C1523.77 2978.72 1524.57 2983.34 1526.23 2988.23L1526.7 2988.07L1526.23 2988.23C1528.85 2995.94 1533.47 3002.89 1538.02 3009.75C1538.98 3011.19 1539.94 3012.62 1540.87 3014.06C1546.26 3022.38 1550.93 3030.77 1551.44 3040.56L1551.94 3040.54L1551.44 3040.56C1552.5 3060.64 1539.28 3072.91 1522.77 3082.56C1519.2 3084.64 1515.59 3086.41 1512.03 3088.09C1511.28 3088.44 1510.53 3088.79 1509.78 3089.14C1506.99 3090.45 1504.24 3091.73 1501.6 3093.11C1494.89 3096.6 1488.79 3100.71 1484.18 3107.34Z" fill="#CCDFFF" fill-opacity="0.03" stroke="#CCDFFF"/>
<path d="M814.185 1444.34H814.184C811.918 1447.6 810.942 1451.86 810.03 1456.07C809.993 1456.24 809.957 1456.4 809.921 1456.57C809.039 1460.65 808.174 1464.65 806.283 1467.85C797.709 1482.37 780.311 1495.18 761.217 1496.41C748.56 1497.22 739.115 1492.46 730.527 1486.18C727.394 1483.9 724.388 1481.42 721.379 1478.94C720.255 1478.01 719.13 1477.08 717.998 1476.17C713.848 1472.8 709.614 1469.57 705.017 1467.03C692.301 1459.99 681.119 1457.36 670.624 1454.89C667.859 1454.24 665.142 1453.6 662.457 1452.9C649.589 1449.52 637.337 1444.6 623.763 1429.59C605.718 1409.64 601.156 1392.48 604.526 1376.86C607.907 1361.18 619.291 1346.94 633.429 1332.87C641.442 1324.91 647.124 1315.37 652.639 1305.68C653.115 1304.84 653.59 1304.01 654.065 1303.17C659.101 1294.29 664.151 1285.38 670.887 1277.44C679.708 1267.04 687.9 1260.71 695.941 1257.19C703.976 1253.67 711.897 1252.96 720.208 1253.85C728.531 1254.74 737.232 1257.25 746.831 1260.19C747.871 1260.5 748.922 1260.83 749.983 1261.15C758.705 1263.83 768.168 1266.74 778.694 1269.01C785.684 1270.51 792.902 1270.54 800.073 1270.57C802.423 1270.58 804.768 1270.59 807.098 1270.66C816.575 1270.91 825.882 1272.01 834.636 1277.34C840.164 1280.71 843.848 1284.16 846.376 1287.73C848.904 1291.3 850.295 1295.02 851.205 1298.93C851.91 1301.96 852.324 1305.1 852.758 1308.38C852.887 1309.36 853.018 1310.35 853.158 1311.35C853.77 1315.72 854.567 1320.34 856.227 1325.23L856.7 1325.07L856.227 1325.23C858.845 1332.94 863.467 1339.89 868.021 1346.75C868.98 1348.19 869.935 1349.62 870.868 1351.06C876.258 1359.38 880.928 1367.77 881.441 1377.56L881.94 1377.54L881.441 1377.56C882.496 1397.64 869.277 1409.91 852.773 1419.56C849.204 1421.64 845.592 1423.41 842.029 1425.09C841.277 1425.44 840.527 1425.79 839.779 1426.14C836.992 1427.45 834.245 1428.73 831.603 1430.11C824.894 1433.6 818.793 1437.71 814.185 1444.34Z" fill="#CCDFFF" fill-opacity="0.03" stroke="#CCDFFF"/>
<path d="M143.185 1765.34H143.184C140.918 1768.6 139.942 1772.86 139.03 1777.07C138.993 1777.24 138.957 1777.4 138.921 1777.57C138.039 1781.65 137.174 1785.65 135.283 1788.85C126.709 1803.37 109.311 1816.18 90.2165 1817.41C77.5601 1818.22 68.1143 1813.46 59.5271 1807.18C56.3937 1804.9 53.3875 1802.42 50.3783 1799.94C49.2543 1799.01 48.1298 1798.08 46.9982 1797.17C42.8475 1793.8 38.6139 1790.57 34.0167 1788.03C21.3004 1780.99 10.1191 1778.36 -0.375923 1775.89C-3.14088 1775.24 -5.85819 1774.6 -8.54339 1773.9C-21.4114 1770.52 -33.6637 1765.6 -47.2373 1750.59C-65.2823 1730.64 -69.8444 1713.48 -66.4741 1697.86C-63.0931 1682.18 -51.7089 1667.94 -37.5711 1653.87C-29.5587 1645.91 -23.8764 1636.37 -18.3617 1626.68C-17.8854 1625.84 -17.4103 1625.01 -16.9352 1624.17C-11.8995 1615.29 -6.84911 1606.38 -0.113731 1598.44C8.70792 1588.04 16.8997 1581.71 24.9407 1578.19C32.9755 1574.67 40.8964 1573.96 49.2072 1574.85C57.5312 1575.74 66.2319 1578.25 75.8306 1581.19C76.8708 1581.5 77.9213 1581.83 78.9829 1582.15C87.7051 1584.83 97.1678 1587.74 107.694 1590.01C114.684 1591.51 121.902 1591.54 129.073 1591.57C131.423 1591.58 133.768 1591.59 136.098 1591.66C145.575 1591.91 154.882 1593.01 163.636 1598.34C169.164 1601.71 172.848 1605.16 175.376 1608.73C177.904 1612.3 179.295 1616.02 180.205 1619.93C180.91 1622.96 181.324 1626.1 181.758 1629.38C181.887 1630.36 182.018 1631.35 182.158 1632.35C182.77 1636.72 183.567 1641.34 185.227 1646.23L185.7 1646.07L185.227 1646.23C187.845 1653.94 192.467 1660.89 197.021 1667.75C197.98 1669.19 198.935 1670.62 199.868 1672.06C205.258 1680.38 209.928 1688.77 210.441 1698.56L210.94 1698.54L210.441 1698.56C211.496 1718.64 198.277 1730.91 181.773 1740.56C178.204 1742.64 174.592 1744.41 171.029 1746.09C170.277 1746.44 169.527 1746.79 168.779 1747.14C165.992 1748.45 163.245 1749.73 160.603 1751.11C153.894 1754.6 147.793 1758.71 143.185 1765.34Z" fill="#CCDFFF" fill-opacity="0.03" stroke="#CCDFFF"/>
</g>
<defs>
<clipPath id="clip0_1019_7987">
<rect width="1512" height="5268" fill="white"/>
</clipPath>
</defs>
</svg>
