<svg width="25" height="25" viewBox="0 0 25 25" fill="none" xmlns="http://www.w3.org/2000/svg">
<circle cx="12.5" cy="12.5" r="12.5" fill="#CCDFFF"/>
<path d="M10.1836 11.4063V10.4002C10.1836 9.7636 10.4275 9.15311 10.8615 8.70299C11.2956 8.25287 11.8843 8 12.4981 8C13.1119 8 13.7007 8.25287 14.1347 8.70299C14.5688 9.15311 14.8126 9.7636 14.8126 10.4002V11.4063M9.42258 11.4063H15.5776C15.6897 11.4064 15.7971 11.4527 15.8763 11.5349C15.9555 11.6171 16 11.7285 16 11.8447V16.5615C16 16.6778 15.9555 16.7893 15.8762 16.8715C15.797 16.9537 15.6895 16.9999 15.5774 17H9.4228C9.31067 17 9.20313 16.9538 9.12384 16.8716C9.04454 16.7894 9 16.6778 9 16.5615V11.8447C9 11.7285 9.04454 11.6169 9.12384 11.5347C9.20313 11.4525 9.31044 11.4063 9.42258 11.4063Z" stroke="#0041AA" stroke-width="0.5" stroke-linecap="round" stroke-linejoin="round"/>
</svg>
