<svg width="1512" height="982" viewBox="0 0 1512 982" fill="none" xmlns="http://www.w3.org/2000/svg">
<g clip-path="url(#clip0_1019_8003)">
<path d="M1512 0H0V982H1512V0Z" fill="#F8F9FC"/>
<path d="M519.662 1025.52L520.132 1025.34L519.662 1025.52C525.009 1040.15 534.442 1053.34 543.778 1066.4C545.746 1069.15 547.709 1071.9 549.629 1074.65C560.685 1090.5 570.321 1106.58 571.379 1125.36C573.557 1163.87 546.248 1187.39 512.359 1205.8C505.021 1209.78 497.598 1213.15 490.29 1216.36C488.745 1217.03 487.205 1217.7 485.671 1218.37C479.957 1220.86 474.339 1223.3 468.934 1225.92C455.214 1232.56 442.79 1240.34 433.408 1252.88L433.809 1253.18L433.408 1252.88C428.825 1259.01 426.837 1267.05 424.964 1275.08C424.887 1275.41 424.81 1275.74 424.733 1276.07C422.931 1283.82 421.144 1291.5 417.228 1297.66C399.583 1325.44 363.772 1349.96 324.41 1352.33C298.278 1353.89 278.785 1344.73 261.131 1332.74C254.694 1328.37 248.513 1323.64 242.34 1318.91C240.038 1317.14 237.737 1315.38 235.424 1313.64C226.919 1307.22 218.269 1301.1 208.886 1296.27C182.888 1282.9 160.052 1277.91 138.544 1273.2C132.867 1271.96 127.282 1270.74 121.756 1269.39C95.3005 1262.93 70.0793 1253.51 42.1665 1224.82C5.09667 1186.72 -4.33378 1153.89 2.61455 1123.95C9.57677 1093.95 33.0067 1066.72 62.0027 1039.9C78.3757 1024.77 89.9968 1006.65 101.305 988.186C102.282 986.59 103.256 984.993 104.232 983.394C114.551 966.476 124.928 949.466 138.768 934.297C156.886 914.441 173.741 902.313 190.324 895.571C206.903 888.831 223.243 887.459 240.357 889.169C257.483 890.88 275.369 895.675 295.043 901.263C297.176 901.869 299.33 902.484 301.506 903.106C319.39 908.213 338.768 913.747 360.324 918.063C374.591 920.922 389.306 920.98 403.994 921.038C408.822 921.057 413.647 921.076 418.453 921.195C437.913 921.675 457.113 923.78 475.184 934.008C486.567 940.454 494.175 947.075 499.405 953.942C504.634 960.806 507.504 967.939 509.38 975.437C510.831 981.237 511.683 987.236 512.574 993.506C512.837 995.359 513.104 997.236 513.39 999.139C514.644 1007.46 516.273 1016.24 519.662 1025.52Z" fill="#AACAFF"/>
<path d="M519.662 1025.52L520.132 1025.34L519.662 1025.52ZM519.662 1025.52C525.009 1040.15 534.442 1053.34 543.778 1066.4C545.746 1069.15 547.709 1071.9 549.629 1074.65C560.685 1090.5 570.321 1106.58 571.379 1125.36C573.557 1163.87 546.248 1187.39 512.359 1205.8C505.021 1209.78 497.598 1213.15 490.29 1216.36C488.745 1217.03 487.205 1217.7 485.671 1218.37C479.957 1220.86 474.339 1223.3 468.934 1225.92C455.214 1232.56 442.79 1240.34 433.408 1252.88L433.809 1253.18L433.408 1252.88C428.825 1259.01 426.837 1267.05 424.964 1275.08C424.887 1275.41 424.81 1275.74 424.733 1276.07C422.931 1283.82 421.144 1291.5 417.228 1297.66C399.583 1325.44 363.772 1349.96 324.41 1352.33C298.278 1353.89 278.785 1344.73 261.131 1332.74C254.694 1328.37 248.513 1323.64 242.34 1318.91C240.038 1317.14 237.737 1315.38 235.424 1313.64C226.919 1307.22 218.269 1301.1 208.886 1296.27C182.888 1282.9 160.052 1277.91 138.544 1273.2C132.867 1271.96 127.282 1270.74 121.756 1269.39C95.3005 1262.93 70.0793 1253.51 42.1665 1224.82C5.09667 1186.72 -4.33378 1153.89 2.61455 1123.95C9.57677 1093.95 33.0067 1066.72 62.0027 1039.9C78.3757 1024.77 89.9968 1006.65 101.305 988.186C102.282 986.59 103.256 984.993 104.232 983.394C114.551 966.476 124.928 949.466 138.768 934.297C156.886 914.441 173.741 902.313 190.324 895.571C206.903 888.831 223.243 887.459 240.357 889.169C257.483 890.88 275.369 895.675 295.043 901.263C297.176 901.869 299.33 902.484 301.506 903.106C319.39 908.213 338.768 913.747 360.324 918.063C374.591 920.922 389.306 920.98 403.994 921.038C408.822 921.057 413.647 921.076 418.453 921.195C437.913 921.675 457.113 923.78 475.184 934.008C486.567 940.454 494.175 947.075 499.405 953.942C504.634 960.806 507.504 967.939 509.38 975.437C510.831 981.237 511.683 987.236 512.574 993.506C512.837 995.359 513.104 997.236 513.39 999.139C514.644 1007.46 516.273 1016.24 519.662 1025.52Z" stroke="#307880"/>
<g opacity="0.5">
<path d="M1590.69 369.092L1557.99 385.239L1557.77 385.346C1547.14 390.775 1537.36 397.752 1528.74 406.064L1510.46 423.271C1506.59 426.918 1501.98 429.654 1496.94 431.294C1491.9 432.935 1486.55 433.44 1481.26 432.775C1475.96 432.111 1470.85 430.293 1466.26 427.445C1461.67 424.597 1457.72 420.785 1454.67 416.269L1420.04 365.006C1417.25 360.876 1415.28 356.241 1414.23 351.367C1413.18 346.494 1413.07 341.476 1413.92 336.6C1414.77 331.725 1416.55 327.087 1419.17 322.952C1421.79 318.817 1425.19 315.266 1429.17 312.501L1517.49 251.273C1525.54 245.689 1535.51 243.647 1545.18 245.596C1554.86 247.544 1563.46 253.324 1569.1 261.664L1604.38 313.898C1607.42 318.408 1609.5 323.515 1610.46 328.871C1611.42 334.228 1611.24 339.71 1609.94 344.944C1608.65 350.179 1606.25 355.044 1602.93 359.21C1599.61 363.375 1595.43 366.744 1590.69 369.087V369.092Z" stroke="#002055" stroke-linecap="round" stroke-linejoin="round"/>
<path d="M1480.36 324.183L1511.1 369.684L1541.51 319.156L1480.36 324.183Z" stroke="#002055" stroke-linecap="round" stroke-linejoin="round"/>
</g>
<path d="M147.407 253.883L147.808 254.183L147.407 253.883C142.824 260.014 140.836 268.049 138.963 276.081C138.886 276.411 138.809 276.741 138.732 277.071C136.931 284.816 135.143 292.498 131.227 298.664C113.582 326.439 77.7712 350.962 38.4092 353.326C12.2773 354.891 -7.2155 345.729 -24.8693 333.744C-31.3068 329.374 -37.4877 324.637 -43.6611 319.906C-45.9631 318.142 -48.264 316.378 -50.5768 314.635C-59.0816 308.225 -67.7317 302.099 -77.1141 297.275C-103.113 283.904 -125.949 278.909 -147.457 274.204C-153.134 272.963 -158.719 271.741 -164.245 270.391C-190.7 263.928 -215.921 254.508 -243.834 225.82C-280.904 187.721 -290.334 154.889 -283.386 124.95C-276.424 94.9513 -252.994 67.7205 -223.998 40.9048C-207.625 25.775 -196.004 7.64886 -184.696 -10.8142C-183.719 -12.4096 -182.745 -14.0073 -181.77 -15.6059C-171.45 -32.5236 -161.073 -49.5337 -147.233 -64.7029C-129.115 -84.5586 -112.26 -96.6865 -95.6764 -103.429C-79.098 -110.169 -62.7574 -111.541 -45.6434 -109.831C-28.5178 -108.12 -10.632 -103.325 9.04257 -97.7366C11.1757 -97.1307 13.3298 -96.5154 15.506 -95.8939C33.3897 -90.7865 52.7671 -85.2526 74.3233 -80.9373C88.5902 -78.0784 103.305 -78.0201 117.993 -77.9619C122.821 -77.9427 127.647 -77.9236 132.452 -77.805C151.912 -77.3249 171.112 -75.2204 189.183 -64.992C200.566 -58.5463 208.174 -51.9246 213.404 -45.0582C218.633 -38.1938 221.503 -31.0605 223.379 -23.5625C224.83 -17.7626 225.682 -11.7637 226.573 -5.49413C226.836 -3.6407 227.103 -1.76362 227.389 0.138969C228.643 8.46268 230.272 17.2356 233.661 26.5152C239.008 41.15 248.441 54.3434 257.777 67.4023C259.745 70.1542 261.708 72.8999 263.628 75.6521C274.684 91.5016 284.32 107.578 285.378 126.362C287.556 164.872 260.247 188.387 226.358 206.8C219.02 210.783 211.597 214.151 204.289 217.355C202.744 218.033 201.203 218.703 199.67 219.37C193.956 221.856 188.338 224.301 182.933 226.917C169.213 233.559 156.789 241.344 147.407 253.883Z" fill="#AACAFF"/>
<path d="M147.407 253.883L147.808 254.183L147.407 253.883ZM147.407 253.883C142.824 260.014 140.836 268.049 138.963 276.081C138.886 276.411 138.809 276.741 138.732 277.071C136.931 284.816 135.143 292.498 131.227 298.664C113.582 326.439 77.7712 350.962 38.4092 353.326C12.2773 354.891 -7.2155 345.729 -24.8693 333.744C-31.3068 329.374 -37.4877 324.637 -43.6611 319.906C-45.9631 318.142 -48.264 316.378 -50.5768 314.635C-59.0816 308.225 -67.7317 302.099 -77.1141 297.275C-103.113 283.904 -125.949 278.909 -147.457 274.204C-153.134 272.963 -158.719 271.741 -164.245 270.391C-190.7 263.928 -215.921 254.508 -243.834 225.82C-280.904 187.721 -290.334 154.889 -283.386 124.95C-276.424 94.9513 -252.994 67.7205 -223.998 40.9048C-207.625 25.775 -196.004 7.64886 -184.696 -10.8142C-183.719 -12.4096 -182.745 -14.0073 -181.77 -15.6059C-171.45 -32.5236 -161.073 -49.5337 -147.233 -64.7029C-129.115 -84.5586 -112.26 -96.6865 -95.6764 -103.429C-79.098 -110.169 -62.7574 -111.541 -45.6434 -109.831C-28.5178 -108.12 -10.632 -103.325 9.04257 -97.7366C11.1757 -97.1307 13.3298 -96.5154 15.506 -95.8939C33.3897 -90.7865 52.7671 -85.2526 74.3233 -80.9373C88.5902 -78.0784 103.305 -78.0201 117.993 -77.9619C122.821 -77.9427 127.647 -77.9236 132.452 -77.805C151.912 -77.3249 171.112 -75.2204 189.183 -64.992C200.566 -58.5463 208.174 -51.9246 213.404 -45.0582C218.633 -38.1938 221.503 -31.0605 223.379 -23.5625C224.83 -17.7626 225.682 -11.7637 226.573 -5.49413C226.836 -3.6407 227.103 -1.76362 227.389 0.138969C228.643 8.46268 230.272 17.2356 233.661 26.5152C239.008 41.15 248.441 54.3434 257.777 67.4023C259.745 70.1542 261.708 72.8999 263.628 75.6521C274.684 91.5016 284.32 107.578 285.378 126.362C287.556 164.872 260.247 188.387 226.358 206.8C219.02 210.783 211.597 214.151 204.289 217.355C202.744 218.033 201.203 218.703 199.67 219.37C193.956 221.856 188.338 224.301 182.933 226.917C169.213 233.559 156.789 241.344 147.407 253.883Z" stroke="#307880"/>
<path d="M648.185 371.337C645.919 374.599 644.942 378.862 644.031 383.067C643.994 383.235 643.958 383.403 643.921 383.571C643.039 387.649 642.174 391.647 640.284 394.85C631.71 409.369 614.312 422.175 595.218 423.409C582.561 424.224 573.115 419.456 564.528 413.184C561.395 410.896 558.389 408.418 555.379 405.937C554.255 405.01 553.131 404.083 551.999 403.165C547.849 399.8 543.615 396.573 539.018 394.03C526.301 386.995 515.12 384.364 504.625 381.895C501.86 381.244 499.143 380.605 496.458 379.899C483.59 376.517 471.337 371.596 457.764 356.588C439.719 336.636 435.157 319.479 438.527 303.856C441.908 288.184 453.292 273.937 467.43 259.871C475.442 251.906 481.125 242.368 486.639 232.681C487.116 231.844 487.591 231.007 488.066 230.169C493.102 221.288 498.152 212.382 504.887 204.44C513.709 194.04 521.901 187.705 529.942 184.188C537.977 180.673 545.898 179.956 554.208 180.849C562.532 181.744 571.233 184.252 580.832 187.185C581.872 187.503 582.922 187.826 583.984 188.152C592.706 190.832 602.169 193.739 612.695 196.006C619.685 197.513 626.903 197.544 634.074 197.574C636.424 197.584 638.769 197.594 641.099 197.656C650.576 197.907 659.883 199.01 668.637 204.341C674.165 207.708 677.849 211.16 680.377 214.732C682.905 218.302 684.296 222.015 685.206 225.931C685.911 228.963 686.325 232.096 686.759 235.384C686.888 236.358 687.018 237.346 687.159 238.348C687.771 242.72 688.567 247.34 690.228 252.229L690.701 252.068L690.228 252.229C692.846 259.939 697.467 266.893 702.022 273.745C702.98 275.187 703.936 276.625 704.869 278.064C710.259 286.377 714.929 294.769 715.442 304.563L715.941 304.536L715.442 304.563C716.497 324.64 703.278 336.912 686.774 346.558C683.205 348.643 679.593 350.406 676.03 352.086C675.278 352.441 674.527 352.792 673.78 353.142C670.992 354.447 668.246 355.733 665.604 357.108C658.895 360.602 652.794 364.711 648.185 371.337Z" fill="#CCDFFF" fill-opacity="0.03" stroke="#CCDFFF"/>
<path d="M648.185 371.337C645.919 374.599 644.942 378.862 644.031 383.067C643.994 383.235 643.958 383.403 643.921 383.571C643.039 387.649 642.174 391.647 640.284 394.85C631.71 409.369 614.312 422.175 595.218 423.409C582.561 424.224 573.115 419.456 564.528 413.184C561.395 410.896 558.389 408.418 555.379 405.937C554.255 405.01 553.131 404.083 551.999 403.165C547.849 399.8 543.615 396.573 539.018 394.03C526.301 386.995 515.12 384.364 504.625 381.895C501.86 381.244 499.143 380.605 496.458 379.899C483.59 376.517 471.337 371.596 457.764 356.588C439.719 336.636 435.157 319.479 438.527 303.856C441.908 288.184 453.292 273.937 467.43 259.871C475.442 251.906 481.125 242.368 486.639 232.681C487.116 231.844 487.591 231.007 488.066 230.169C493.102 221.288 498.152 212.382 504.887 204.44C513.709 194.04 521.901 187.705 529.942 184.188C537.977 180.673 545.898 179.956 554.208 180.849C562.532 181.744 571.233 184.252 580.832 187.185C581.872 187.503 582.922 187.826 583.984 188.152C592.706 190.832 602.169 193.739 612.695 196.006C619.685 197.513 626.903 197.544 634.074 197.574C636.424 197.584 638.769 197.594 641.099 197.656C650.576 197.907 659.883 199.01 668.637 204.341C674.165 207.708 677.849 211.16 680.377 214.732C682.905 218.302 684.296 222.015 685.206 225.931C685.911 228.963 686.325 232.096 686.759 235.384C686.888 236.358 687.018 237.346 687.159 238.348C687.771 242.72 688.567 247.34 690.228 252.229L690.701 252.068L690.228 252.229C692.846 259.939 697.467 266.893 702.022 273.745C702.98 275.187 703.936 276.625 704.869 278.064C710.259 286.377 714.929 294.769 715.442 304.563L715.941 304.536L715.442 304.563C716.497 324.64 703.278 336.912 686.774 346.558C683.205 348.643 679.593 350.406 676.03 352.086C675.278 352.441 674.527 352.792 673.78 353.142C670.992 354.447 668.246 355.733 665.604 357.108C658.895 360.602 652.794 364.711 648.185 371.337Z" fill="#CCDFFF" fill-opacity="0.03" stroke="#CCDFFF"/>
<path d="M754.185 814.337C751.919 817.599 750.942 821.862 750.031 826.067C749.994 826.235 749.958 826.403 749.921 826.571C749.039 830.649 748.174 834.647 746.284 837.85C737.71 852.369 720.312 865.175 701.218 866.409C688.561 867.224 679.115 862.456 670.528 856.184C667.395 853.896 664.389 851.418 661.379 848.937C660.255 848.01 659.131 847.083 657.999 846.165C653.849 842.8 649.615 839.573 645.018 837.03C632.301 829.995 621.12 827.364 610.625 824.895C607.86 824.244 605.143 823.605 602.458 822.899C589.59 819.517 577.337 814.596 563.764 799.588C545.719 779.636 541.157 762.479 544.527 746.856C547.908 731.184 559.292 716.937 573.43 702.871C581.442 694.906 587.125 685.368 592.639 675.681C593.116 674.844 593.591 674.007 594.066 673.169C599.102 664.288 604.152 655.382 610.887 647.44C619.709 637.04 627.901 630.705 635.942 627.188C643.977 623.673 651.898 622.956 660.208 623.849C668.532 624.744 677.233 627.252 686.832 630.185C687.872 630.503 688.922 630.826 689.984 631.152C698.706 633.832 708.169 636.739 718.695 639.006C725.685 640.513 732.903 640.544 740.074 640.574C742.424 640.584 744.769 640.594 747.099 640.656C756.576 640.907 765.883 642.01 774.637 647.341C780.165 650.708 783.849 654.16 786.377 657.732C788.905 661.302 790.296 665.015 791.206 668.931C791.911 671.963 792.325 675.096 792.759 678.384C792.888 679.358 793.018 680.346 793.159 681.348C793.771 685.72 794.567 690.34 796.228 695.229L796.701 695.068L796.228 695.229C798.846 702.939 803.467 709.893 808.022 716.745C808.98 718.187 809.936 719.625 810.869 721.064C816.259 729.377 820.929 737.769 821.442 747.563L821.941 747.536L821.442 747.563C822.497 767.64 809.278 779.912 792.774 789.558C789.205 791.643 785.593 793.406 782.03 795.086C781.278 795.441 780.527 795.792 779.78 796.142C776.992 797.447 774.246 798.733 771.604 800.108C764.895 803.602 758.794 807.711 754.185 814.337Z" fill="#CCDFFF" fill-opacity="0.03" stroke="#CCDFFF"/>
</g>
<defs>
<clipPath id="clip0_1019_8003">
<rect width="1512" height="982" fill="white"/>
</clipPath>
</defs>
</svg>
