<svg width="142" height="142" viewBox="0 0 142 142" fill="none" xmlns="http://www.w3.org/2000/svg">
<path d="M142 71C142 110.212 110.212 142 71 142C31.7878 142 0 110.212 0 71C0 31.7878 31.7878 0 71 0C110.212 0 142 31.7878 142 71ZM6.80454 71C6.80454 106.454 35.5458 135.195 71 135.195C106.454 135.195 135.195 106.454 135.195 71C135.195 35.5458 106.454 6.80454 71 6.80454C35.5458 6.80454 6.80454 35.5458 6.80454 71Z" fill="#22B10A"/>
<path d="M95 41L57.8 81.909L47 73.729H41L57.8 101L101 41H95Z" fill="#22B10A"/>
</svg>
