<svg width="13" height="9" viewBox="0 0 13 9" fill="none" xmlns="http://www.w3.org/2000/svg">
<path d="M12.75 8.35714C12.75 8.41429 12.732 8.47526 12.6924 8.5328C12.7164 8.47923 12.73 8.42 12.73 8.35714V0.642857C12.73 0.579998 12.7164 0.520772 12.6924 0.467197C12.732 0.524741 12.75 0.585711 12.75 0.642857V8.35714ZM0.25 0.642857C0.25 0.58571 0.267966 0.52474 0.307574 0.467196C0.283631 0.520772 0.27 0.579997 0.27 0.642857V8.35714H0.269893L0.270107 8.36445C0.27196 8.42779 0.287433 8.48719 0.313129 8.54066C0.269642 8.48083 0.25 8.4169 0.25 8.35714V0.642857ZM4.45978 7.05958C4.44585 7.06113 4.43194 7.06275 4.41804 7.06443L4.36537 7.03862C4.39665 7.04624 4.42813 7.05322 4.45978 7.05958ZM3.03516 6.04343C3.03582 6.04473 3.03647 6.04603 3.03713 6.04733C3.02192 6.02048 3.0076 5.99331 2.99417 5.96585C2.83089 5.63189 2.8061 5.26687 2.92084 4.92282C2.95519 4.81982 3.00181 4.71953 3.05998 4.62342C2.99417 4.74425 2.94416 4.87239 2.91195 5.00585C2.82747 5.35587 2.87157 5.71792 3.03516 6.04343ZM7.01 5.35714C7.01 5.10016 6.94351 4.85009 6.81976 4.62299C6.87806 4.71923 6.92476 4.81967 6.95916 4.92282C7.0739 5.26687 7.04911 5.63189 6.88583 5.96585C6.86631 6.00579 6.84488 6.0451 6.82161 6.0837C6.94246 5.86045 7.0089 5.61393 7.01 5.35822V5.35714ZM5.5202 7.03589L5.46196 7.06443C5.44684 7.0626 5.4317 7.06085 5.41654 7.05917C5.45133 7.05216 5.4859 7.0444 5.5202 7.03589ZM10.66 7.03571H10.65V6.85714V2.14286V1.96429H10.66C10.6636 1.96429 10.6669 1.96458 10.67 1.96506V7.03494C10.6669 7.03542 10.6636 7.03571 10.66 7.03571ZM2.35 1.96429V2.14286V2.74922C2.34694 2.74971 2.34358 2.75 2.34 2.75C2.33642 2.75 2.33306 2.74971 2.33 2.74922V1.96506C2.33306 1.96458 2.33642 1.96429 2.34 1.96429H2.35Z" fill="#CCCCDD" stroke="#0041AA" stroke-width="0.5"/>
</svg>
