<svg width="25" height="25" viewBox="0 0 25 25" fill="none" xmlns="http://www.w3.org/2000/svg">
<circle cx="12.5" cy="12.5" r="12.5" fill="#CCDFFF"/>
<path d="M11.9405 16.033C11.9403 16.033 11.9402 16.033 11.94 16.033V15.8571L11.9405 16.033ZM12.462 16.0644C12.4468 16.0626 12.4317 16.0608 12.4165 16.0592C12.4513 16.0522 12.4859 16.0444 12.5202 16.0359L12.462 16.0644ZM13.8858 14.9658C13.8663 15.0058 13.8449 15.0451 13.8216 15.0837C13.9425 14.8604 14.0089 14.6139 14.01 14.3582V14.3571C14.01 14.1002 13.9435 13.8501 13.8198 13.623C13.8781 13.7192 13.9248 13.8197 13.9592 13.9228C14.0739 14.2669 14.0491 14.6319 13.8858 14.9658ZM9.92084 13.9228C9.95519 13.8198 10.0018 13.7195 10.06 13.6234C9.99417 13.7442 9.94416 13.8724 9.91195 14.0059C9.82747 14.3559 9.87157 14.7179 10.0352 15.0434C10.0358 15.0447 10.0365 15.046 10.0371 15.0473C10.0219 15.0205 10.0076 14.9933 9.99417 14.9658C9.83089 14.6319 9.8061 14.2669 9.92084 13.9228ZM11.3654 16.0386C11.3966 16.0462 11.4281 16.0532 11.4598 16.0596C11.4459 16.0611 11.4319 16.0627 11.418 16.0644L11.3654 16.0386ZM19.75 17.3571C19.75 17.4143 19.732 17.4753 19.6924 17.5328C19.7164 17.4792 19.73 17.42 19.73 17.3571V9.64286C19.73 9.58 19.7164 9.52077 19.6924 9.4672C19.732 9.52474 19.75 9.58571 19.75 9.64286V17.3571ZM7.30757 9.4672C7.28363 9.52077 7.27 9.58 7.27 9.64286V17.3571H7.26989L7.27011 17.3645C7.27196 17.4278 7.28743 17.4872 7.31313 17.5407C7.26964 17.4808 7.25 17.4169 7.25 17.3571V9.64286C7.25 9.58571 7.26797 9.52474 7.30757 9.4672ZM17.66 16.0357H17.65V15.8571V11.1429V10.9643H17.66C17.6636 10.9643 17.6669 10.9646 17.67 10.9651V16.0349C17.6669 16.0354 17.6636 16.0357 17.66 16.0357ZM9.35 10.9643V11.1429V11.7492C9.34694 11.7497 9.34358 11.75 9.34 11.75C9.33642 11.75 9.33306 11.7497 9.33 11.7492V10.9651C9.33306 10.9646 9.33642 10.9643 9.34 10.9643H9.35Z" fill="#CCCCDD" stroke="#0041AA" stroke-width="0.5"/>
</svg>
