<svg width="25" height="25" viewBox="0 0 25 25" fill="none" xmlns="http://www.w3.org/2000/svg">
<circle cx="12.5" cy="12.5" r="12.5" fill="#CCDFFF"/>
<mask id="path-2-inside-1_1700_11281" fill="white">
<path d="M18.22 8H6.78C6.57313 8 6.37474 8.06773 6.22846 8.18829C6.08218 8.30885 6 8.47236 6 8.64286V16.3571C6 16.5276 6.08218 16.6912 6.22846 16.8117C6.37474 16.9323 6.57313 17 6.78 17H7.651C7.69998 16.9992 7.74773 16.9872 7.78901 16.9655C7.83029 16.9438 7.8635 16.9131 7.885 16.8768C8.15886 16.4 8.59136 15.9971 9.13219 15.7149C9.67301 15.4328 10.2999 15.283 10.94 15.283C11.5801 15.283 12.207 15.4328 12.7478 15.7149C13.2886 15.9971 13.7211 16.4 13.995 16.8768C14.0165 16.9131 14.0497 16.9438 14.091 16.9655C14.1323 16.9872 14.18 16.9992 14.229 17H18.22C18.4269 17 18.6253 16.9323 18.7715 16.8117C18.9178 16.6912 19 16.5276 19 16.3571V8.64286C19 8.47236 18.9178 8.30885 18.7715 8.18829C18.6253 8.06773 18.4269 8 18.22 8V8ZM18.48 16.3571C18.48 16.414 18.4526 16.4685 18.4038 16.5087C18.3551 16.5489 18.289 16.5714 18.22 16.5714H14.3915C13.9134 15.8304 13.1047 15.2714 12.136 15.0125C12.5765 14.7966 12.9189 14.4675 13.1104 14.0757C13.302 13.6838 13.3322 13.251 13.1963 12.8437C13.0605 12.4364 12.7661 12.0771 12.3585 11.8211C11.9509 11.565 11.4525 11.4263 10.94 11.4263C10.4275 11.4263 9.92911 11.565 9.52148 11.8211C9.11386 12.0771 8.81952 12.4364 8.68368 12.8437C8.54784 13.251 8.57802 13.6838 8.76957 14.0757C8.96113 14.4675 9.30347 14.7966 9.744 15.0125C8.77531 15.2714 7.96657 15.8304 7.4885 16.5714H6.78C6.71156 16.5701 6.64639 16.5471 6.59798 16.5072C6.54957 16.4673 6.52165 16.4135 6.52 16.3571V8.64286C6.52 8.58603 6.54739 8.53152 6.59615 8.49133C6.64491 8.45115 6.71104 8.42857 6.78 8.42857H18.22C18.289 8.42857 18.3551 8.45115 18.4038 8.49133C18.4526 8.53152 18.48 8.58603 18.48 8.64286V16.3571ZM10.94 14.8571C10.58 14.8571 10.2282 14.7692 9.92886 14.6043C9.62956 14.4395 9.39629 14.2053 9.25854 13.9312C9.12079 13.6571 9.08475 13.3555 9.15497 13.0645C9.2252 12.7735 9.39853 12.5063 9.65307 12.2965C9.9076 12.0867 10.2319 11.9438 10.5849 11.886C10.938 11.8281 11.3039 11.8578 11.6365 11.9713C11.969 12.0849 12.2533 12.2771 12.4533 12.5238C12.6533 12.7705 12.76 13.0605 12.76 13.3571C12.7583 13.7545 12.566 14.1352 12.225 14.4162C11.8841 14.6972 11.4222 14.8557 10.94 14.8571V14.8571ZM16.92 9.92857V15.0714C16.92 15.1283 16.8926 15.1828 16.8438 15.223C16.7951 15.2631 16.729 15.2857 16.66 15.2857H15.62C15.551 15.2857 15.4849 15.2631 15.4362 15.223C15.3874 15.1828 15.36 15.1283 15.36 15.0714C15.36 15.0146 15.3874 14.9601 15.4362 14.9199C15.4849 14.8797 15.551 14.8571 15.62 14.8571H16.4V10.1429H8.6V10.7857C8.6 10.8425 8.57261 10.8971 8.52385 10.9372C8.47509 10.9774 8.40896 11 8.34 11C8.27104 11 8.20491 10.9774 8.15615 10.9372C8.10739 10.8971 8.08 10.8425 8.08 10.7857V9.92857C8.08 9.87174 8.10739 9.81723 8.15615 9.77705C8.20491 9.73686 8.27104 9.71429 8.34 9.71429H16.66C16.729 9.71429 16.7951 9.73686 16.8438 9.77705C16.8926 9.81723 16.92 9.87174 16.92 9.92857Z"/>
</mask>
<path d="M6.78 8V9V8ZM7.651 17V18H7.65946L7.66792 17.9999L7.651 17ZM7.885 16.8768L8.7454 17.3866L8.75215 17.3748L7.885 16.8768ZM10.94 15.283V14.283V15.283ZM13.995 16.8768L13.1278 17.3749L13.1347 17.3865L13.995 16.8768ZM14.229 17L14.2121 17.9999L14.2205 18H14.229V17ZM18.22 17L18.22 18L18.22 17ZM14.3915 16.5714L13.5512 17.1135L13.8466 17.5714H14.3915V16.5714ZM12.136 15.0125L11.6959 14.1145L9.29882 15.2894L11.8778 15.9786L12.136 15.0125ZM9.744 15.0125L10.0022 15.9786L12.5812 15.2894L10.1841 14.1145L9.744 15.0125ZM7.4885 16.5714V17.5714H8.03342L8.32882 17.1135L7.4885 16.5714ZM6.78 16.5714L6.76014 17.5712L6.77007 17.5714H6.78V16.5714ZM6.52 16.3571H5.52V16.3718L5.52043 16.3864L6.52 16.3571ZM12.76 13.3571L13.76 13.3615V13.3571H12.76ZM16.4 14.8571V15.8571H17.4V14.8571H16.4ZM16.4 10.1429H17.4V9.14286H16.4V10.1429ZM8.6 10.1429V9.14286H7.6V10.1429H8.6ZM18.22 7H6.78V9H18.22V7ZM6.78 7C6.36375 7 5.93458 7.13463 5.59245 7.4166L6.86446 8.95997C6.83786 8.9819 6.81616 8.99135 6.80458 8.99531C6.79277 8.99934 6.78483 9 6.78 9L6.78 7ZM5.59245 7.4166C5.24484 7.7031 5 8.13785 5 8.64286H7C7 8.80687 6.91952 8.9146 6.86446 8.95997L5.59245 7.4166ZM5 8.64286V16.3571H7V8.64286H5ZM5 16.3571C5 16.8621 5.24484 17.2969 5.59245 17.5834L6.86446 16.04C6.91952 16.0854 7 16.1931 7 16.3571H5ZM5.59245 17.5834C5.93458 17.8654 6.36375 18 6.78 18V16C6.78483 16 6.79277 16.0007 6.80458 16.0047C6.81616 16.0086 6.83786 16.0181 6.86446 16.04L5.59245 17.5834ZM6.78 18H7.651V16H6.78V18ZM7.66792 17.9999C7.86546 17.9965 8.0681 17.9487 8.25492 17.8503L7.3231 16.0807C7.42735 16.0258 7.53449 16.0018 7.63408 16.0001L7.66792 17.9999ZM8.25492 17.8503C8.44187 17.7519 8.61973 17.5985 8.74532 17.3865L7.02468 16.367C7.10728 16.2276 7.21871 16.1356 7.3231 16.0807L8.25492 17.8503ZM8.75215 17.3748C8.92076 17.0813 9.20394 16.8054 9.59473 16.6015L8.66964 14.8283C7.97878 15.1887 7.39696 15.7187 7.01785 16.3787L8.75215 17.3748ZM9.59473 16.6015C9.98567 16.3975 10.4528 16.283 10.94 16.283V14.283C10.1471 14.283 9.36036 14.468 8.66964 14.8283L9.59473 16.6015ZM10.94 16.283C11.4272 16.283 11.8943 16.3975 12.2853 16.6015L13.2104 14.8283C12.5196 14.468 11.7329 14.283 10.94 14.283L10.94 16.283ZM12.2853 16.6015C12.6761 16.8054 12.9592 17.0813 13.1279 17.3748L14.8621 16.3787C14.483 15.7187 13.9012 15.1887 13.2104 14.8283L12.2853 16.6015ZM13.1347 17.3865C13.2603 17.5985 13.4381 17.7519 13.6251 17.8503L14.5569 16.0807C14.6613 16.1356 14.7727 16.2276 14.8553 16.367L13.1347 17.3865ZM13.6251 17.8503C13.8119 17.9487 14.0145 17.9965 14.2121 17.9999L14.2459 16.0001C14.3455 16.0018 14.4526 16.0258 14.5569 16.0807L13.6251 17.8503ZM14.229 18H18.22V16H14.229V18ZM18.22 18C18.6363 18 19.0654 17.8654 19.4075 17.5834L18.1355 16.04C18.1621 16.0181 18.1838 16.0086 18.1954 16.0047C18.2072 16.0007 18.2152 16 18.22 16L18.22 18ZM19.4075 17.5834C19.7552 17.2969 20 16.8621 20 16.3571H18C18 16.1931 18.0805 16.0854 18.1355 16.04L19.4075 17.5834ZM20 16.3571V8.64286H18V16.3571H20ZM20 8.64286C20 8.13785 19.7552 7.7031 19.4075 7.4166L18.1355 8.95997C18.0805 8.9146 18 8.80687 18 8.64286H20ZM19.4075 7.4166C19.0654 7.13463 18.6362 7 18.22 7V9C18.2152 9 18.2072 8.99934 18.1954 8.99531C18.1838 8.99135 18.1621 8.9819 18.1355 8.95997L19.4075 7.4166ZM17.48 16.3571C17.48 16.0795 17.6153 15.8627 17.7678 15.737L19.0399 17.2804C19.29 17.0742 19.48 16.7485 19.48 16.3571H17.48ZM17.7678 15.737C17.9149 15.6158 18.0796 15.5714 18.22 15.5714V17.5714C18.4983 17.5714 18.7952 17.482 19.0399 17.2804L17.7678 15.737ZM18.22 15.5714H14.3915V17.5714H18.22V15.5714ZM15.2318 16.0293C14.6006 15.0508 13.5676 14.36 12.3942 14.0464L11.8778 15.9786C12.6418 16.1828 13.2263 16.6099 13.5512 17.1135L15.2318 16.0293ZM12.5761 15.9105C13.1899 15.6096 13.7076 15.131 14.0088 14.5149L12.212 13.6364C12.1302 13.8039 11.9632 13.9835 11.6959 14.1145L12.5761 15.9105ZM14.0088 14.5149C14.3135 13.8917 14.3652 13.1877 14.145 12.5274L12.2477 13.1601C12.2991 13.3143 12.2905 13.476 12.212 13.6364L14.0088 14.5149ZM14.145 12.5274C13.9269 11.8736 13.469 11.3377 12.8905 10.9743L11.8266 12.6678C12.0633 12.8165 12.194 12.9992 12.2477 13.1601L14.145 12.5274ZM12.8905 10.9743C12.313 10.6115 11.628 10.4263 10.94 10.4263V12.4263C11.2771 12.4263 11.5887 12.5184 11.8266 12.6678L12.8905 10.9743ZM10.94 10.4263C10.252 10.4263 9.56696 10.6115 8.98953 10.9743L10.0534 12.6678C10.2913 12.5184 10.6029 12.4263 10.94 12.4263V10.4263ZM8.98953 10.9743C8.41101 11.3377 7.95306 11.8736 7.73504 12.5274L9.63232 13.1601C9.68597 12.9992 9.81671 12.8165 10.0534 12.6678L8.98953 10.9743ZM7.73504 12.5274C7.51481 13.1877 7.56651 13.8917 7.87119 14.5149L9.66795 13.6364C9.58952 13.476 9.58087 13.3143 9.63232 13.1601L7.73504 12.5274ZM7.87119 14.5149C8.17242 15.131 8.69015 15.6096 9.30391 15.9105L10.1841 14.1145C9.91679 13.9835 9.74984 13.8039 9.66795 13.6364L7.87119 14.5149ZM9.48581 14.0464C8.31239 14.36 7.27945 15.0508 6.64818 16.0293L8.32882 17.1135C8.65369 16.6099 9.23822 16.1828 10.0022 15.9786L9.48581 14.0464ZM7.4885 15.5714H6.78V17.5714H7.4885V15.5714ZM6.79986 15.5716C6.93476 15.5743 7.0924 15.6188 7.23398 15.7355L5.96197 17.2788C6.20037 17.4753 6.48836 17.5658 6.76014 17.5712L6.79986 15.5716ZM7.23398 15.7355C7.38035 15.8561 7.51179 16.0618 7.51957 16.3279L5.52043 16.3864C5.53151 16.7653 5.7188 17.0784 5.96197 17.2788L7.23398 15.7355ZM7.52 16.3571V8.64286H5.52V16.3571H7.52ZM7.52 8.64286C7.52 8.92053 7.38473 9.13727 7.23216 9.26302L5.96015 7.71965C5.71005 7.92577 5.52 8.25152 5.52 8.64286H7.52ZM7.23216 9.26302C7.08507 9.38425 6.92043 9.42857 6.78 9.42857V7.42857C6.50166 7.42857 6.20475 7.51805 5.96015 7.71965L7.23216 9.26302ZM6.78 9.42857H18.22V7.42857H6.78V9.42857ZM18.22 9.42857C18.0796 9.42857 17.9149 9.38425 17.7678 9.26302L19.0399 7.71965C18.7952 7.51805 18.4983 7.42857 18.22 7.42857V9.42857ZM17.7678 9.26302C17.6153 9.13727 17.48 8.92053 17.48 8.64286H19.48C19.48 8.25152 19.2899 7.92577 19.0399 7.71965L17.7678 9.26302ZM17.48 8.64286V16.3571H19.48V8.64286H17.48ZM10.94 13.8571C10.7394 13.8571 10.5548 13.8074 10.4112 13.7284L9.44647 15.4803C9.90151 15.7309 10.4207 15.8571 10.94 15.8571V13.8571ZM10.4112 13.7284C10.268 13.6495 10.1888 13.5553 10.152 13.4821L8.36504 14.3802C8.60373 14.8552 8.99113 15.2295 9.44647 15.4803L10.4112 13.7284ZM10.152 13.4821C10.1177 13.4137 10.1138 13.3539 10.1271 13.2991L8.18288 12.8299C8.05566 13.357 8.12391 13.9005 8.36504 14.3802L10.152 13.4821ZM10.1271 13.2991C10.1412 13.2405 10.1838 13.1549 10.2891 13.0682L9.01706 11.5248C8.61325 11.8576 8.30917 12.3066 8.18288 12.8299L10.1271 13.2991ZM10.2891 13.0682C10.3959 12.9801 10.5527 12.9046 10.7467 12.8728L10.4232 10.8991C9.91103 10.9831 9.41932 11.1933 9.01706 11.5248L10.2891 13.0682ZM10.7467 12.8728C10.9403 12.841 11.1396 12.8584 11.3134 12.9177L11.9596 11.025C11.4683 10.8572 10.9356 10.8151 10.4232 10.8991L10.7467 12.8728ZM11.3134 12.9177C11.4876 12.9772 11.6074 13.0683 11.6765 13.1535L13.2301 11.894C12.8992 11.4859 12.4505 11.1926 11.9596 11.025L11.3134 12.9177ZM11.6765 13.1535C11.743 13.2356 11.76 13.3065 11.76 13.3571H13.76C13.76 12.8144 13.5635 12.3054 13.2301 11.894L11.6765 13.1535ZM11.76 13.3528C11.7597 13.4175 11.7296 13.5287 11.589 13.6446L12.861 15.1879C13.4024 14.7418 13.7568 14.0916 13.76 13.3615L11.76 13.3528ZM11.589 13.6446C11.4431 13.7649 11.2107 13.8563 10.9371 13.8571L10.9429 15.8571C11.6336 15.8551 12.3251 15.6296 12.861 15.1879L11.589 13.6446ZM15.92 9.92857V15.0714H17.92V9.92857H15.92ZM15.92 15.0714C15.92 14.7938 16.0553 14.577 16.2078 14.4513L17.4799 15.9946C17.73 15.7885 17.92 15.4628 17.92 15.0714H15.92ZM16.2078 14.4513C16.3549 14.33 16.5196 14.2857 16.66 14.2857V16.2857C16.9383 16.2857 17.2352 16.1962 17.4799 15.9946L16.2078 14.4513ZM16.66 14.2857H15.62V16.2857H16.66V14.2857ZM15.62 14.2857C15.7604 14.2857 15.9251 14.33 16.0722 14.4513L14.8001 15.9946C15.0448 16.1962 15.3417 16.2857 15.62 16.2857V14.2857ZM16.0722 14.4513C16.2247 14.577 16.36 14.7938 16.36 15.0714H14.36C14.36 15.4628 14.55 15.7885 14.8001 15.9946L16.0722 14.4513ZM16.36 15.0714C16.36 15.3491 16.2247 15.5658 16.0722 15.6916L14.8001 14.1482C14.55 14.3543 14.36 14.6801 14.36 15.0714H16.36ZM16.0722 15.6916C15.9251 15.8128 15.7604 15.8571 15.62 15.8571V13.8571C15.3417 13.8571 15.0448 13.9466 14.8001 14.1482L16.0722 15.6916ZM15.62 15.8571H16.4V13.8571H15.62V15.8571ZM17.4 14.8571V10.1429H15.4V14.8571H17.4ZM16.4 9.14286H8.6V11.1429H16.4V9.14286ZM7.6 10.1429V10.7857H9.6V10.1429H7.6ZM7.6 10.7857C7.6 10.508 7.73526 10.2913 7.88784 10.1656L9.15985 11.7089C9.40995 11.5028 9.6 11.177 9.6 10.7857H7.6ZM7.88784 10.1656C8.03493 10.0443 8.19958 10 8.34 10V12C8.61833 12 8.91524 11.9105 9.15985 11.7089L7.88784 10.1656ZM8.34 10C8.48042 10 8.64507 10.0443 8.79216 10.1656L7.52015 11.7089C7.76476 11.9105 8.06166 12 8.34 12V10ZM8.79216 10.1656C8.94473 10.2913 9.08 10.508 9.08 10.7857H7.08C7.08 11.1771 7.27005 11.5028 7.52015 11.7089L8.79216 10.1656ZM9.08 10.7857V9.92857H7.08V10.7857H9.08ZM9.08 9.92857C9.08 10.2062 8.94473 10.423 8.79216 10.5487L7.52015 9.00536C7.27005 9.21149 7.08 9.53723 7.08 9.92857H9.08ZM8.79216 10.5487C8.64507 10.67 8.48042 10.7143 8.34 10.7143V8.71429C8.06166 8.71429 7.76476 8.80376 7.52015 9.00536L8.79216 10.5487ZM8.34 10.7143H16.66V8.71429H8.34V10.7143ZM16.66 10.7143C16.5196 10.7143 16.3549 10.67 16.2078 10.5487L17.4799 9.00536C17.2352 8.80376 16.9383 8.71429 16.66 8.71429V10.7143ZM16.2078 10.5487C16.0553 10.423 15.92 10.2062 15.92 9.92857H17.92C17.92 9.53724 17.73 9.21149 17.4799 9.00536L16.2078 10.5487Z" fill="#0041AA" mask="url(#path-2-inside-1_1700_11281)"/>
</svg>
