<svg width="25" height="25" viewBox="0 0 25 25" fill="none" xmlns="http://www.w3.org/2000/svg">
<circle cx="12.5" cy="12.5" r="12.5" fill="#CCDFFF"/>
<path d="M15.3993 14.6055C15.2414 14.2315 15.0123 13.8917 14.7246 13.6052C14.4379 13.3178 14.0982 13.0887 13.7244 12.9305C13.721 12.9289 13.7177 12.928 13.7143 12.9263C14.2358 12.5497 14.5748 11.9361 14.5748 11.2439C14.5748 10.0971 13.6457 9.16797 12.4989 9.16797C11.3521 9.16797 10.423 10.0971 10.423 11.2439C10.423 11.9361 10.762 12.5497 11.2835 12.9272C11.2802 12.9289 11.2768 12.9297 11.2735 12.9314C10.8985 13.0896 10.562 13.3164 10.2732 13.606C9.98583 13.8928 9.75672 14.2325 9.59851 14.6063C9.44309 14.9723 9.35927 15.3647 9.35158 15.7623C9.35136 15.7712 9.35293 15.7801 9.35619 15.7884C9.35946 15.7967 9.36435 15.8043 9.37059 15.8107C9.37684 15.8171 9.38429 15.8222 9.39253 15.8257C9.40076 15.8291 9.40961 15.8309 9.41855 15.8309H9.92078C9.95761 15.8309 9.98691 15.8016 9.98774 15.7656C10.0045 15.1194 10.264 14.5142 10.7227 14.0555C11.1973 13.5809 11.8276 13.3198 12.4989 13.3198C13.1702 13.3198 13.8005 13.5809 14.2751 14.0555C14.7338 14.5142 14.9933 15.1194 15.0101 15.7656C15.0109 15.8025 15.0402 15.8309 15.077 15.8309H15.5793C15.5882 15.8309 15.597 15.8291 15.6053 15.8257C15.6135 15.8222 15.621 15.8171 15.6272 15.8107C15.6335 15.8043 15.6384 15.7967 15.6416 15.7884C15.6449 15.7801 15.6465 15.7712 15.6462 15.7623C15.6379 15.3622 15.555 14.9729 15.3993 14.6055ZM12.4989 12.6836C12.1147 12.6836 11.7531 12.5338 11.481 12.2617C11.209 11.9897 11.0592 11.6281 11.0592 11.2439C11.0592 10.8597 11.209 10.498 11.481 10.226C11.7531 9.95396 12.1147 9.80413 12.4989 9.80413C12.8831 9.80413 13.2447 9.95396 13.5168 10.226C13.7888 10.498 13.9386 10.8597 13.9386 11.2439C13.9386 11.6281 13.7888 11.9897 13.5168 12.2617C13.2447 12.5338 12.8831 12.6836 12.4989 12.6836Z" fill="#0041AA"/>
</svg>
