<svg width="260" height="465" viewBox="0 0 260 465" fill="none" xmlns="http://www.w3.org/2000/svg">
<path d="M121.407 364.883L121.808 365.183L121.407 364.883C116.824 371.014 114.836 379.049 112.963 387.081C112.886 387.411 112.809 387.741 112.732 388.071C110.931 395.816 109.143 403.498 105.227 409.664C87.5821 437.439 51.7708 461.962 12.4088 464.326C-13.7231 465.891 -33.2159 456.729 -50.8697 444.744C-57.3072 440.374 -63.4882 435.637 -69.6616 430.906C-71.9636 429.142 -74.2645 427.378 -76.5772 425.635C-85.082 419.225 -93.7321 413.099 -103.115 408.275C-129.113 394.904 -151.949 389.909 -173.457 385.204C-179.134 383.963 -184.719 382.741 -190.245 381.391C-216.7 374.928 -241.921 365.508 -269.834 336.82C-306.904 298.721 -316.334 265.889 -309.386 235.95C-302.424 205.951 -278.994 178.72 -249.998 151.905C-233.625 136.775 -222.004 118.649 -210.696 100.186C-209.719 98.5904 -208.745 96.9926 -207.77 95.394C-197.45 78.4763 -187.073 61.4663 -173.233 46.2971C-155.115 26.4414 -138.26 14.3135 -121.677 7.57123C-105.098 0.830774 -88.7578 -0.540936 -71.6438 1.16908C-54.5182 2.88024 -36.6324 7.6751 -16.9579 13.2634C-14.8247 13.8693 -12.6707 14.4845 -10.4945 15.1059C7.38931 20.2134 26.7667 25.7474 48.3229 30.0627C62.5898 32.9216 77.3049 32.9799 91.9935 33.0381C96.8214 33.0573 101.647 33.0764 106.452 33.195C125.912 33.6751 145.112 35.7796 163.183 46.008C174.566 52.4537 182.174 59.0754 187.404 65.9418C192.633 72.8062 195.503 79.9395 197.379 87.4375C198.83 93.2374 199.682 99.2363 200.573 105.506C200.836 107.359 201.103 109.236 201.389 111.139C202.643 119.463 204.272 128.236 207.661 137.515C213.008 152.15 222.441 165.343 231.777 178.402C233.745 181.154 235.708 183.9 237.628 186.652C248.684 202.502 258.32 218.578 259.378 237.362C261.556 275.872 234.247 299.387 200.358 317.8C193.02 321.783 185.597 325.151 178.289 328.355C176.744 329.033 175.204 329.703 173.67 330.37C167.956 332.856 162.338 335.3 156.933 337.917C143.213 344.559 130.789 352.344 121.407 364.883Z" fill="#CCDFFF" stroke="#307880"/>
</svg>
