<svg width="279" height="244" viewBox="0 0 279 244" fill="none" xmlns="http://www.w3.org/2000/svg">
<path d="M211.184 191.337L211.184 191.337C208.918 194.599 207.941 198.862 207.03 203.067C206.993 203.235 206.957 203.403 206.92 203.571C206.038 207.649 205.173 211.647 203.283 214.85C194.709 229.369 177.311 242.175 158.217 243.409C145.56 244.224 136.114 239.456 127.527 233.184C124.394 230.896 121.388 228.418 118.379 225.937C117.254 225.01 116.13 224.083 114.998 223.165C110.848 219.8 106.614 216.573 102.017 214.03C89.3005 206.995 78.1192 204.364 67.6241 201.895C64.8592 201.244 62.1419 200.605 59.4567 199.899C46.5887 196.517 34.3364 191.596 20.7628 176.588C2.71782 156.636 -1.84426 139.479 1.52599 123.856C4.90703 108.184 16.2912 93.9368 30.429 79.871C38.4414 71.9058 44.1237 62.368 49.6384 52.6809C50.1147 51.8443 50.5898 51.0065 51.0649 50.1686C56.1006 41.2881 61.151 32.3816 67.8863 24.4401C76.708 14.0396 84.8998 7.70499 92.9408 4.18788C100.976 0.673492 108.897 -0.0438481 117.207 0.849495C125.531 1.74425 134.232 4.25244 143.831 7.18548C144.871 7.50331 145.921 7.82608 146.983 8.15222C155.705 10.832 165.168 13.7394 175.694 16.0063C182.684 17.513 189.902 17.5437 197.073 17.5742C199.423 17.5841 201.768 17.5941 204.098 17.6559C213.575 17.9075 222.882 19.0101 231.636 24.3405C237.164 27.7079 240.848 31.1603 243.376 34.7317C245.904 38.302 247.295 42.0153 248.205 45.9307C248.91 48.9626 249.324 52.096 249.758 55.3835C249.887 56.3578 250.017 57.3456 250.158 58.3483C250.77 62.7205 251.567 67.34 253.227 72.2291L253.7 72.0684L253.227 72.2292C255.845 79.9394 260.466 86.8926 265.021 93.7455C265.979 95.1874 266.935 96.6249 267.868 98.064C273.258 106.377 277.928 114.769 278.441 124.563L278.94 124.536L278.441 124.563C279.496 144.64 266.277 156.912 249.773 166.558C246.204 168.643 242.592 170.406 239.029 172.086C238.277 172.441 237.526 172.792 236.779 173.142C233.991 174.447 231.245 175.733 228.603 177.108C221.894 180.602 215.793 184.711 211.184 191.337Z" fill="#CCDFFF" fill-opacity="0.03" stroke="#CCDFFF"/>
</svg>
