<svg width="192" height="244" viewBox="0 0 192 244" fill="none" xmlns="http://www.w3.org/2000/svg">
<path d="M124.185 191.337L124.184 191.337C121.918 194.599 120.942 198.862 120.03 203.067C119.993 203.235 119.957 203.403 119.921 203.571C119.039 207.649 118.174 211.647 116.283 214.85C107.709 229.369 90.3113 242.175 71.2168 243.409C58.5604 244.225 49.1146 239.456 40.5274 233.184C37.394 230.896 34.3878 228.418 31.3786 225.937C30.2546 225.01 29.1301 224.083 27.9985 223.165C23.8478 219.8 19.6142 216.573 15.017 214.03C2.3007 206.995 -8.88065 204.364 -19.3757 201.895C-22.1406 201.244 -24.8579 200.605 -27.5431 199.899C-40.4111 196.517 -52.6634 191.596 -66.237 176.588C-84.282 156.636 -88.8441 139.479 -85.4738 123.856C-82.0928 108.184 -70.7086 93.9368 -56.5708 79.871C-48.5584 71.9059 -42.8761 62.368 -37.3614 52.6809C-36.8851 51.8443 -36.41 51.0066 -35.9349 50.1686C-30.8992 41.2881 -25.8489 32.3817 -19.1135 24.4401C-10.2918 14.0396 -2.1 7.70502 5.94099 4.18791C13.9758 0.673519 21.8967 -0.0438214 30.2075 0.849522C38.5315 1.74428 47.2322 4.25247 56.8309 7.1855C57.8711 7.50334 58.9216 7.82611 59.9832 8.15224C68.7054 10.8321 78.1681 13.7394 88.6945 16.0064C95.6837 17.5131 102.902 17.5437 110.073 17.5742C112.423 17.5842 114.768 17.5941 117.098 17.656C126.575 17.9075 135.882 19.0101 144.636 24.3405C150.164 27.7079 153.848 31.1604 156.376 34.7317C158.904 38.302 160.295 42.0154 161.205 45.9308C161.91 48.9627 162.324 52.0961 162.758 55.3837C162.887 56.3579 163.018 57.3457 163.158 58.3483C163.77 62.7205 164.567 67.3401 166.227 72.2292L166.7 72.0684L166.227 72.2292C168.845 79.9394 173.467 86.8927 178.021 93.7456C178.98 95.1875 179.935 96.625 180.868 98.0641C186.258 106.377 190.928 114.769 191.441 124.563L191.94 124.536L191.441 124.563C192.496 144.64 179.277 156.912 162.773 166.558C159.204 168.643 155.592 170.406 152.029 172.086C151.277 172.441 150.527 172.792 149.779 173.142C146.992 174.447 144.245 175.733 141.603 177.109C134.894 180.602 128.793 184.711 124.185 191.337Z" fill="#CCDFFF" fill-opacity="0.03" stroke="#CCDFFF"/>
</svg>
