<svg width="206" height="244" viewBox="0 0 206 244" fill="none" xmlns="http://www.w3.org/2000/svg">
<path d="M211.185 191.337L211.184 191.337C208.918 194.599 207.942 198.862 207.03 203.067C206.993 203.235 206.957 203.403 206.921 203.571C206.039 207.649 205.174 211.647 203.283 214.85C194.709 229.369 177.311 242.175 158.217 243.409C145.56 244.225 136.115 239.456 127.527 233.184C124.394 230.896 121.388 228.418 118.379 225.937C117.255 225.01 116.13 224.083 114.998 223.165C110.848 219.8 106.614 216.573 102.017 214.03C89.3007 206.995 78.1194 204.364 67.6243 201.895C64.8594 201.244 62.1421 200.605 59.4569 199.899C46.5889 196.517 34.3366 191.596 20.763 176.588C2.71801 156.636 -1.84406 139.479 1.52618 123.856C4.90722 108.184 16.2914 93.9368 30.4292 79.871C38.4416 71.9059 44.1239 62.368 49.6386 52.6809C50.1149 51.8443 50.59 51.0066 51.0651 50.1686C56.1008 41.2881 61.1511 32.3817 67.8865 24.4401C76.7082 14.0396 84.9 7.70502 92.941 4.18791C100.976 0.673519 108.897 -0.0438214 117.208 0.849522C125.531 1.74428 134.232 4.25247 143.831 7.1855C144.871 7.50334 145.922 7.82611 146.983 8.15224C155.705 10.8321 165.168 13.7394 175.694 16.0064C182.684 17.5131 189.902 17.5437 197.073 17.5742C199.423 17.5842 201.768 17.5941 204.098 17.656C213.575 17.9075 222.882 19.0101 231.636 24.3405C237.164 27.7079 240.848 31.1604 243.376 34.7317C245.904 38.302 247.295 42.0154 248.205 45.9308C248.91 48.9627 249.324 52.0961 249.758 55.3837C249.887 56.3579 250.018 57.3457 250.158 58.3483C250.77 62.7205 251.567 67.3401 253.227 72.2292L253.7 72.0684L253.227 72.2292C255.845 79.9394 260.467 86.8927 265.021 93.7456C265.98 95.1875 266.935 96.625 267.868 98.0641C273.258 106.377 277.928 114.769 278.441 124.563L278.94 124.536L278.441 124.563C279.496 144.64 266.277 156.912 249.773 166.558C246.204 168.643 242.592 170.406 239.029 172.086C238.277 172.441 237.527 172.792 236.779 173.142C233.992 174.447 231.245 175.733 228.603 177.109C221.894 180.602 215.793 184.711 211.185 191.337Z" fill="#CCDFFF" fill-opacity="0.03" stroke="#CCDFFF"/>
</svg>
