<svg width="23" height="20" viewBox="0 0 23 20" fill="none" xmlns="http://www.w3.org/2000/svg">
<path d="M1.64098 19.9995H5.13888V9.70412L0.140625 5.15625V18.1814C0.140625 19.1891 0.813806 19.9995 1.64098 19.9995Z" fill="#0051D5"/>
<path d="M17.1406 19.9995H20.6385C21.4657 19.9995 22.1389 19.1837 22.1389 18.1814V5.15625L17.1406 9.69879V19.9995Z" fill="#0051D5"/>
<path d="M17.1406 1.82462V9.69942L22.1389 5.15688V2.73099C22.1389 0.486382 20.0225 -0.798539 18.5398 0.550361L17.1406 1.82462Z" fill="#0051D5"/>
<path d="M5.14062 9.70435V1.82422L11.1421 7.27847L17.1435 1.82422V9.70435L11.1421 15.1533L5.14062 9.70435Z" fill="#0051D5"/>
<path d="M0.140625 2.7349V5.16079L5.13888 9.70333V1.82319L3.73972 0.554268C2.25697 -0.794632 0.140625 0.490288 0.140625 2.7349Z" fill="#0051D5"/>
</svg>
