<svg width="25" height="25" viewBox="0 0 25 25" fill="none" xmlns="http://www.w3.org/2000/svg">
<path d="M25 12.5764C25 5.63069 19.4035 0 12.5 0C5.59648 0 0 5.63059 0 12.5764C0 18.8536 4.57109 24.0566 10.5469 25V16.2118H7.37305L7.37305 12.5764H10.5469V9.80566C10.5469 6.6537 12.4131 4.91265 15.2683 4.91265C16.6359 4.91265 18.0664 5.15829 18.0664 5.15829V8.25326H16.4902C14.9373 8.25326 14.4531 9.22272 14.4531 10.2173V12.5764H17.9199L17.3657 16.2118H14.4531V25C20.4289 24.0566 25 18.8537 25 12.5764Z" fill="#0051D5"/>
</svg>
