<svg width="23" height="20" viewBox="0 0 23 20" fill="none" xmlns="http://www.w3.org/2000/svg">
<path d="M22.1242 2.3675C21.2976 2.77574 20.4219 3.04371 19.5264 3.16249C20.4627 2.53765 21.1851 1.54818 21.5302 0.369236C20.6402 0.957347 19.668 1.37171 18.6557 1.59442C17.8391 0.613215 16.6704 0 15.3721 0C12.8794 0 10.8428 2.2606 10.8235 5.04876C10.8207 5.44453 10.858 5.82982 10.9324 6.19944C7.18267 5.98882 3.8708 3.97883 1.66572 0.924197C1.27213 1.66988 1.04355 2.53726 1.03714 3.46242C1.02502 5.21411 1.81123 6.7594 3.016 7.66485C2.29941 7.63974 1.59991 7.42319 0.975914 7.03328C0.97551 7.05443 0.975364 7.07557 0.975217 7.09682C0.958291 9.54305 2.49998 11.5837 4.56151 12.0475C3.89546 12.2497 3.19808 12.2793 2.52265 12.134C3.08309 14.1399 4.73992 15.5995 6.71465 15.6404C5.16055 16.9945 3.20874 17.8017 1.09416 17.8017C0.72979 17.8017 0.370737 17.7778 0.0179421 17.7311C2.00548 19.1637 4.37217 19.9995 6.92108 19.9995C15.2232 19.9995 19.8163 12.3061 19.8625 5.63429C19.864 5.41531 19.8612 5.19757 19.8539 4.98109C20.7425 4.26654 21.5113 3.38149 22.1242 2.3675Z" fill="#0051D5"/>
</svg>
