<svg width="50" height="50" viewBox="0 0 50 50" fill="none" xmlns="http://www.w3.org/2000/svg">
<circle cx="25" cy="25" r="25" fill="#CCDFFF"/>
<path d="M30.8015 29.2148C30.4857 28.4668 30.0274 27.7873 29.4522 27.2143C28.8787 26.6396 28.1993 26.1814 27.4516 25.865C27.4449 25.8616 27.4382 25.8599 27.4315 25.8566C28.4745 25.1032 29.1525 23.8761 29.1525 22.4916C29.1525 20.1981 27.2943 18.3398 25.0007 18.3398C22.7072 18.3398 20.849 20.1981 20.849 22.4916C20.849 23.8761 21.527 25.1032 22.5699 25.8583C22.5632 25.8616 22.5565 25.8633 22.5498 25.8666C21.7998 26.183 21.1269 26.6367 20.5493 27.216C19.9746 27.7895 19.5164 28.4688 19.2 29.2165C18.8891 29.9485 18.7215 30.7333 18.7061 31.5285C18.7056 31.5463 18.7088 31.5641 18.7153 31.5807C18.7218 31.5974 18.7316 31.6125 18.7441 31.6253C18.7566 31.6381 18.7715 31.6483 18.788 31.6552C18.8045 31.6622 18.8222 31.6657 18.84 31.6657H19.8445C19.9182 31.6657 19.9767 31.6071 19.9784 31.5352C20.0119 30.2427 20.5309 29.0324 21.4483 28.115C22.3975 27.1657 23.6581 26.6434 25.0007 26.6434C26.3434 26.6434 27.604 27.1657 28.5532 28.115C29.4706 29.0324 29.9896 30.2427 30.0231 31.5352C30.0247 31.6088 30.0833 31.6657 30.157 31.6657H31.1615C31.1793 31.6657 31.197 31.6622 31.2135 31.6552C31.23 31.6483 31.2449 31.6381 31.2574 31.6253C31.2698 31.6125 31.2796 31.5974 31.2862 31.5807C31.2927 31.5641 31.2958 31.5463 31.2954 31.5285C31.2786 30.7282 31.1129 29.9498 30.8015 29.2148ZM25.0007 25.3711C24.2323 25.3711 23.5091 25.0714 22.965 24.5273C22.4209 23.9833 22.1213 23.26 22.1213 22.4916C22.1213 21.7232 22.4209 21 22.965 20.4559C23.5091 19.9118 24.2323 19.6122 25.0007 19.6122C25.7692 19.6122 26.4924 19.9118 27.0365 20.4559C27.5805 21 27.8802 21.7232 27.8802 22.4916C27.8802 23.26 27.5805 23.9833 27.0365 24.5273C26.4924 25.0714 25.7692 25.3711 25.0007 25.3711Z" fill="#0041AA"/>
</svg>
